<?xml version="1.0" encoding="UTF-8"?>
<svg width="30px" height="34px" viewBox="0 0 30 34" version="1.1" xmlns="http://www.w3.org/2000/svg" xmlns:xlink="http://www.w3.org/1999/xlink">
    <!-- Generator: Sketch 50.2 (55047) - http://www.bohemiancoding.com/sketch -->
    <title>Page 1</title>
    <desc>Created with Sketch.</desc>
    <defs>
        <polygon id="path-1" points="0.0516074661 0.127131783 0.971596377 0.127131783 0.971596377 2.60992248 0.0516074661 2.60992248"></polygon>
        <polygon id="path-3" points="0 0.0741482123 2.40785265 0.0741482123 2.40785265 1.1609956 0 1.1609956"></polygon>
        <polygon id="path-5" points="0.0735183024 0.215298452 1.07391031 0.215298452 1.07391031 2.09302326 0.0735183024 2.09302326"></polygon>
    </defs>
    <g id="Page-1" stroke="none" stroke-width="1" fill="none" fill-rule="evenodd">
        <g id="PERFIL-DOCENTE-Copy" transform="translate(-705.000000, -383.000000)">
            <g id="Page-1" transform="translate(720.000000, 399.860465) scale(-1, 1) translate(-720.000000, -399.860465) translate(705.000000, 383.000000)">
                <path d="M20.6796842,7.50470263 C19.4354726,6.53824049 17.9049134,6.3109286 16.3689074,6.28154815 C14.4570701,6.24520917 12.8759332,6.60395992 11.2753433,7.65701706 C9.90040777,8.56162562 8.87562562,9.69354608 8.26480255,11.2228758 C7.69521976,12.6478275 7.63297027,14.1926206 7.66176066,15.7072601 C7.46178419,16.3428056 7.27114514,16.9791243 7.04860323,17.6100307 C6.90542941,18.0182643 6.36308077,18.946068 6.55060735,19.3968259 C6.8167239,20.0339178 7.65709195,20.0949982 8.40486389,19.9589203 C8.53870028,20.3470515 8.48890069,20.6377633 8.36829231,21.0382652 C8.29826164,21.269443 8.26791502,21.5957206 8.4601103,21.7836008 C8.53480969,21.8562788 8.62195897,21.9142665 8.71377696,21.9645225 C8.50524118,22.3712098 8.42198249,22.7291874 8.67020232,23.1552039 C8.79625752,23.3709182 8.93554075,23.4343182 8.97678103,23.7111129 C9.0047933,23.9013127 9.07949268,24.1116148 9.24211946,24.2291366 C9.73233416,24.5855679 10.3579415,24.5631459 10.9376398,24.4649534 C11.1547349,24.4340266 11.3687175,24.3907291 11.5795876,24.3342877 C12.5156643,24.1116148 12.5234454,24.9798844 12.560017,25.4553838 C12.6012573,25.9734075 12.5374516,26.4883385 12.5522358,27.0055891 C12.5576827,27.2205302 12.8829362,27.2754253 12.9366264,27.0573914 C13.163837,26.1210829 13.2611018,24.540724 12.376381,23.8928078 C12.212198,23.7721933 11.9787625,23.8038933 11.7951265,23.811625 C11.2776776,23.8309542 10.7555601,24.0474417 10.2241051,24.076049 C9.46543949,24.1154807 8.93165015,22.7817629 9.03669616,22.0920955 C9.4576583,22.2011125 9.94086993,22.1415784 10.295692,21.9451933 C10.4801061,21.8431349 10.3493822,21.5864426 10.1587431,21.6235547 C9.84127076,21.6846351 9.53391392,21.729479 9.21177284,21.6761302 C9.01879943,21.6444303 8.75579536,21.5833499 8.7449017,21.3227917 C8.74023299,21.1952187 8.80248247,21.0382652 8.83360722,20.9145581 C8.92075649,20.5650854 8.86006325,20.2024688 8.67098044,19.9024789 C8.93709698,19.8359863 9.17831374,19.7493913 9.3611716,19.6604768 C9.60472271,19.5421818 9.42108673,19.2182237 9.18998552,19.2568822 C8.62896203,19.3512089 8.10295388,19.460999 7.52870238,19.4339381 C6.73502145,19.3960528 7.4119846,18.0553765 7.51158378,17.7368306 C7.71778519,17.082729 8.19010316,16.1974497 7.99946411,15.4923189 C8.1371911,14.2815351 8.30215224,13.0630197 8.64219005,11.8963066 C9.14874523,10.1628601 10.3423791,8.97449825 11.8192481,8.00262392 C14.6088032,6.16557269 19.1063285,6.33335052 21.341085,8.94821048 C23.6458722,11.6450264 23.0871831,15.4521141 21.6920165,18.4118077 C21.0088284,19.8591814 19.9389154,21.1001188 19.3343172,22.5799656 C18.7740719,23.953115 18.879896,25.6239348 19.0744256,27.0581646 C19.1071066,27.2986204 19.4868285,27.2313546 19.4891628,27.0024964 C19.5000565,25.9726343 19.437807,24.9582357 19.5786465,23.9322395 C19.7225984,22.8892335 20.2050319,22.0070469 20.7730585,21.1380041 C21.8196279,19.5398623 22.6911207,17.8597646 23.1790011,16.0080231 C23.9804632,12.9648271 23.2513661,9.50257316 20.6796842,7.50470263" id="Fill-1" fill="#FBB03F"></path>
                <path d="M18.6592099,27.3514907 C17.7701249,27.2740608 16.8475922,27.3221488 15.9515064,27.2838414 C15.0126388,27.2430888 14.0691041,27.1811449 13.1294586,27.2235276 C13.0135587,27.2284179 12.9762218,27.4215852 13.1006781,27.4435916 C14.0418793,27.6139374 14.9994153,27.6807717 15.9515064,27.7679823 C16.8351465,27.8486724 17.8572443,28.0556956 18.7074368,27.7280447 C18.9042334,27.6522449 18.8684522,27.3694219 18.6592099,27.3514907" id="Fill-3" fill="#FBB03F"></path>
                <path d="M17.7804853,25.5843388 C17.4803032,25.5605907 17.2123121,25.6848724 16.9427115,25.8012381 C16.6344815,25.9350191 16.2988891,26.1091718 16.0695273,26.3569436 C16.0131929,26.4171055 16.067113,26.539804 16.1572481,26.505765 C16.4340918,26.4028566 16.6900112,26.248494 16.9644405,26.1384611 C17.2557701,26.0220954 17.5744622,25.9777656 17.8448676,25.8178618 C17.9591461,25.7497839 17.9028116,25.5946296 17.7804853,25.5843388" id="Fill-5" fill="#FBB03F"></path>
                <path d="M18.0389877,26.0485213 C17.6214968,26.0159203 17.233266,26.3847768 16.9934764,26.8048634 C16.9299607,26.9175695 17.0627014,27.0321386 17.1340673,26.9473761 C17.4131082,26.6185722 17.7249775,26.4881684 18.0668204,26.3139862 C18.174583,26.2599617 18.1603098,26.0578358 18.0389877,26.0485213" id="Fill-7" fill="#FBB03F"></path>
                <path d="M18.4523762,26.5303356 C18.3487138,26.60011 18.2600027,26.6629071 18.1802624,26.7585977 C18.0556681,26.9081144 18.2430579,27.0955087 18.3915742,26.9709115 C18.4882594,26.8911692 18.5510549,26.8004624 18.6208277,26.6987911 C18.6896037,26.5971197 18.5540451,26.4615579 18.4523762,26.5303356" id="Fill-9" fill="#FBB03F"></path>
                <path d="M18.3156172,12.7734797 C18.0496251,11.5107837 17.1178928,10.5599675 15.7841325,10.4742195 C14.5073704,10.3915069 13.4350423,10.8680532 12.9425769,12.0837016 C12.6667051,12.7620972 12.8088209,13.5725295 13.0345342,14.2380249 C13.3484049,15.1622819 14.2238988,15.7716238 14.0050253,16.8514413 C13.9753862,16.997137 14.1821001,17.1026146 14.2565779,16.9576778 C14.6487262,16.1958107 14.3082563,15.4711264 13.9031884,14.7843837 C13.0155348,13.2796204 13.17589,11.2186335 15.2544282,11.0122312 C17.0540547,10.8323881 18.0070664,12.3804048 17.7319546,13.9883692 C17.5571597,15.0112744 16.4825517,16.0000321 16.7569035,17.0730202 C16.807822,17.2703165 17.0608945,17.2384455 17.1254926,17.0730202 C17.3960445,16.3733774 17.7000355,15.7056054 17.9895869,15.0120332 C18.2791383,14.318461 18.4736925,13.5277584 18.3156172,12.7734797" id="Fill-11" fill="#FBB03F"></path>
                <path d="M16.5741377,17.2508241 C16.0239227,17.1212573 15.3394095,17.3299103 14.7818691,17.4005831 C14.7118713,17.4089965 14.0477063,17.4620011 14.2121197,17.7160867 C14.4066484,18.0164461 14.8225654,17.8759418 15.1286022,17.8624803 C15.5860296,17.8397641 16.1484536,17.9070715 16.5741377,17.7253414 C16.7719222,17.6412072 16.8280832,17.3114008 16.5741377,17.2508241" id="Fill-13" fill="#FBB03F"></path>
                <path d="M15.9712088,17.9666829 C15.8147429,17.8651815 15.6704889,17.9146944 15.5041007,17.9576056 C15.3285536,18.0029924 15.1530064,18.0459035 14.9820388,18.1094451 C14.8347318,18.1647345 14.8576292,18.3999207 15.0194379,18.4056972 C15.1995646,18.4114737 15.3781647,18.3966199 15.5575281,18.3825912 C15.7269693,18.370213 15.8819087,18.3759895 16.002502,18.2291013 C16.0696679,18.1490554 16.0605089,18.024448 15.9712088,17.9666829" id="Fill-15" fill="#FBB03F"></path>
                <path d="M15.8613935,18.6049582 C15.6571654,18.6159691 15.4465551,18.6913512 15.2496209,18.7413236 C15.0709212,18.787061 15.0727447,19.028453 15.2496209,19.0750375 C15.4967004,19.1402557 15.8267477,19.1029881 15.9972417,18.9107215 C16.0957088,18.8006128 16.0446518,18.5956413 15.8613935,18.6049582" id="Fill-17" fill="#FBB03F"></path>
                <path d="M16.4679159,14.9466129 C16.4110728,15.0026862 16.3587174,15.0601441 16.3093537,15.1217556 C16.179961,15.2802839 16.2622338,15.3322037 16.203147,15.1501384 C16.1560271,15.0033785 15.9862459,14.8940009 15.8261879,14.8850014 C15.435766,14.8635413 15.2532699,15.1148329 15.1680054,15.4125063 C15.0258978,15.322512 14.9421291,15.1882129 14.8807985,15.0206851 C14.8389141,14.9085384 14.6489387,14.9237682 14.6511825,15.0497602 C14.656418,15.3868925 14.8867819,15.6527217 15.20615,15.795328 C15.3033816,15.8382484 15.4454892,15.8077888 15.470171,15.6956421 C15.492609,15.5897257 15.515795,15.487963 15.5629149,15.388277 C15.653415,15.1958278 15.814221,15.2401326 15.8471301,15.3931229 C15.8755516,15.5253452 15.9593203,15.6326461 16.1044196,15.669336 C16.443982,15.755869 16.7117426,15.2955137 16.7431559,15.0518369 C16.7603584,14.9196146 16.5576681,14.8593877 16.4679159,14.9466129" id="Fill-19" fill="#FBB03F"></path>
                <path d="M15.5190998,16.8518149 C15.4475897,16.7741461 15.4294968,16.706608 15.4027883,16.6086778 C15.3752181,16.5082149 15.2029048,16.4668478 15.1555186,16.5774414 C15.0469612,16.8281766 15.1641342,17.2536665 15.5010069,17.2055456 C15.5639013,17.1971033 15.6233494,17.1185903 15.6155953,17.057806 C15.606118,16.9674738 15.5819942,16.919353 15.5190998,16.8518149" id="Fill-21" fill="#FBB03F"></path>
                <path d="M16.3610947,16.0858692 C16.2556235,15.9935057 16.0843745,16.0810918 16.0696312,16.1702704 C16.0469493,16.3088157 16.0242673,16.5102637 16.0889109,16.6424391 C16.1478841,16.7634672 16.3554242,16.7785957 16.4574931,16.6766773 C16.6253398,16.5062825 16.5346119,16.2379506 16.3610947,16.0858692" id="Fill-23" fill="#FBB03F"></path>
                <path d="M12.1361854,15.124415 C12.0078855,15.1758496 11.9109923,15.2698785 11.7967252,15.3526561 C11.7212154,15.408109 11.6116259,15.4868682 11.5167374,15.5214259 C11.5006999,15.5198185 11.4826577,15.5238369 11.4666202,15.5334809 C11.4499145,15.5431248 11.4372182,15.5543762 11.4231854,15.5680385 C11.3884375,15.6025961 11.3897739,15.6660857 11.4078161,15.7102873 C11.4819895,15.8887011 11.7065143,15.7922612 11.8267955,15.7472559 C12.0118949,15.6789443 12.1936531,15.5841118 12.3039108,15.3872137 C12.3754113,15.2586272 12.2571348,15.0753914 12.1361854,15.124415" id="Fill-25" fill="#FBB03F"></path>
                <path d="M11.7017626,13.0269669 C11.4744727,13.0832779 11.2666449,13.1644038 11.0324041,13.1224092 C10.9017298,13.0975942 10.9010347,13.3581517 11.003906,13.4144626 C11.2610842,13.5557172 11.5703932,13.5843499 11.8011585,13.3486075 C11.9186264,13.2293046 11.8491188,12.9906988 11.7017626,13.0269669" id="Fill-27" fill="#FBB03F"></path>
                <path d="M12.9795007,10.8501116 C12.8955723,10.7359574 12.7751903,10.691209 12.6615903,10.6199768 C12.5284918,10.5359593 12.4352381,10.4044536 12.3352023,10.2811671 C12.236862,10.1587938 12.0647666,10.2893862 12.0969815,10.4309374 C12.1758232,10.7807059 12.538665,11.2409756 12.9057455,11.1514787 C13.0396917,11.1186023 13.0515604,10.9478276 12.9795007,10.8501116" id="Fill-29" fill="#FBB03F"></path>
                <path d="M14.6481168,9.61075081 C14.5196437,9.4408835 14.3950345,9.2710162 14.2443442,9.11390888 C14.1390543,9.002259 13.9081891,9.12268137 13.9613171,9.25028122 C14.0289345,9.41855353 14.1226329,9.57805335 14.2143994,9.73914817 C14.3100297,9.91061047 14.380545,10.1235427 14.5969207,10.2128626 C14.7340875,10.2694851 14.8654584,10.1977101 14.8809138,10.0780853 C14.9060289,9.89785048 14.7572706,9.75669315 14.6481168,9.61075081" id="Fill-31" fill="#FBB03F"></path>
                <path d="M17.1471699,9.12526095 C17.0220587,9.27434511 16.9595032,9.45261505 16.8861622,9.61826411 C16.8149783,9.77760273 16.6833959,9.95666148 16.7761507,10.1207329 C16.8397848,10.2327432 17.0004879,10.2698171 17.1320702,10.189359 C17.3208155,10.0741934 17.3143442,9.87935858 17.3542503,9.71292072 C17.395235,9.54096121 17.4545549,9.35795844 17.4394553,9.18284372 C17.4286699,9.07162221 17.2312963,9.02429391 17.1471699,9.12526095" id="Fill-33" fill="#FBB03F"></path>
                <path d="M19.3099731,10.2532591 C19.1090564,10.3560301 18.968243,10.5476633 18.8360157,10.7145696 C18.6986367,10.8884304 18.5638336,11.0669275 18.6162094,11.2863784 C18.6385334,11.3783314 18.7716193,11.4246943 18.8591984,11.3752406 C19.033498,11.2755604 19.0841565,11.1225629 19.1734528,10.962611 C19.2739111,10.7825685 19.4336142,10.6264802 19.5203347,10.4425741 C19.5778621,10.3220307 19.4559383,10.1783058 19.3099731,10.2532591" id="Fill-35" fill="#FBB03F"></path>
                <path d="M19.8007486,12.3438335 C19.6413725,12.4279251 19.5091244,12.5640736 19.3794194,12.6858063 C19.2514099,12.8059373 19.1123798,12.9100508 19.0733835,13.0846411 C19.0504944,13.1823476 19.1395076,13.2800541 19.2488667,13.2504218 C19.4319796,13.2007677 19.5294702,13.0718271 19.6490022,12.9396831 C19.7676865,12.8099416 19.9075644,12.6745941 19.985557,12.5184238 C20.0415081,12.4055007 19.9253671,12.277361 19.8007486,12.3438335" id="Fill-37" fill="#FBB03F"></path>
                <path d="M19.7070467,15.5415152 C19.5800569,15.4625162 19.4564089,15.3755375 19.3327609,15.2885589 C19.1944088,15.1904086 19.100169,15.0898644 18.9317404,15.1225812 C18.8649037,15.1353487 18.8221282,15.2374888 18.8421792,15.310902 C18.8956486,15.5016168 19.0206333,15.5558787 19.165669,15.6292919 C19.3113731,15.7035031 19.4604191,15.759361 19.6128069,15.8088351 C19.7444753,15.8511275 19.8320314,15.6197163 19.7070467,15.5415152" id="Fill-39" fill="#FBB03F"></path>
                <path d="M20.6234317,9.55970076 C20.533249,9.48060903 20.4084963,9.6078081 20.4934183,9.69994589 C21.7928002,11.1081048 21.5883862,12.8962303 21.7567272,14.7210477 C21.7762667,14.9354923 22.0528269,14.9403846 22.0663543,14.7210477 C22.1745735,12.9223224 22.0024749,10.7656458 20.6234317,9.55970076" id="Fill-41" fill="#FBB03F"></path>
                <path d="M22.0812029,15.1925467 C22.0681916,15.0984194 21.9328739,15.0930407 21.8929725,15.1674461 C21.7845449,15.3709403 21.7377042,15.6067067 21.6639734,15.8254406 C21.580701,16.0683786 21.4644666,16.2924912 21.4020122,16.5417043 C21.3525692,16.7335447 21.59111,16.8160181 21.6943331,16.6690003 C21.9562943,16.296077 22.1427898,15.6542186 22.0812029,15.1925467" id="Fill-43" fill="#FBB03F"></path>
                <g id="Group-47" transform="translate(14.883721, 0.000000)">
                    <mask id="mask-2" fill="white">
                        <use xlink:href="#path-1"></use>
                    </mask>
                    <g id="Clip-46"></g>
                    <path d="M0.910610465,1.06612403 C0.882994186,0.738217054 0.917877907,0.345968992 0.619912791,0.158372093 C0.55377907,0.116511628 0.469476744,0.116511628 0.403343023,0.158372093 C0.105377907,0.345968992 0.139534884,0.738217054 0.111918605,1.06612403 C0.0777616279,1.47 -0.0159883721,1.92891473 0.134447674,2.31341085 C0.288517442,2.70875969 0.734738372,2.70875969 0.88880814,2.31341085 C1.03924419,1.92891473 0.945494186,1.47 0.910610465,1.06612403" id="Fill-45" fill="#FBB03F" mask="url(#mask-2)"></path>
                </g>
                <path d="M6.46094122,5.8645446 C6.35276594,5.60847398 6.21735228,5.43940171 6.02668361,5.24734875 C5.84457558,5.0618617 5.66246755,4.81974365 5.43755635,4.6949913 C5.17295494,4.54807899 4.79395233,4.79019704 4.90290585,5.12834157 C4.98539923,5.38523293 5.16906374,5.60437028 5.31537276,5.82514912 C5.3931967,5.94169408 5.46790769,6.09681378 5.5667441,6.19284026 C5.67024995,6.29379118 5.78620762,6.37094066 5.90372178,6.45219383 C6.05625671,6.55642771 6.27260728,6.51703223 6.39712559,6.38489322 C6.53720869,6.23716017 6.53643045,6.04346573 6.46094122,5.8645446" id="Fill-48" fill="#FBB03F"></path>
                <g id="Group-52" transform="translate(0.000000, 16.046512)">
                    <mask id="mask-4" fill="white">
                        <use xlink:href="#path-3"></use>
                    </mask>
                    <g id="Clip-51"></g>
                    <path d="M2.2184186,0.467116279 C1.95663566,0.319790698 1.68291473,0.22944186 1.38275969,0.184674419 C1.05105426,0.135837209 0.697178295,0.0430465116 0.361209302,0.0845581395 C0.0141550388,0.128511628 -0.150418605,0.530604651 0.177023256,0.731651163 C0.42772093,0.886302326 0.721054264,0.94572093 1.00415504,1.02467442 C1.34097674,1.11827907 1.67268217,1.1842093 2.02314729,1.15327907 C2.38896124,1.11990698 2.57058915,0.664906977 2.2184186,0.467116279" id="Fill-50" fill="#FBB03F" mask="url(#mask-4)"></path>
                </g>
                <path d="M5.445133,26.0478382 C5.12326825,26.075513 4.87503766,26.217458 4.60707008,26.42368 C4.32999312,26.6370439 4.03014271,26.8289821 3.79557619,27.1075158 C3.63995762,27.2923121 3.73788345,27.711898 3.99446431,27.6717249 C4.2882418,27.6270881 4.55165469,27.5047833 4.82949077,27.3887276 C5.1559102,27.2530317 5.48005229,27.1253705 5.71461881,26.8138056 C5.9173025,26.5450921 5.80115791,26.0165924 5.445133,26.0478382" id="Fill-53" fill="#FBB03F"></path>
                <g id="Group-57" transform="translate(15.116279, 31.627907)">
                    <mask id="mask-6" fill="white">
                        <use xlink:href="#path-5"></use>
                    </mask>
                    <g id="Clip-56"></g>
                    <path d="M1.06700581,0.770312292 C1.14258721,0.299880399 0.577906977,-0.0182591362 0.337354651,0.433036545 C0.0997093023,0.877953488 -0.174273256,1.87622591 0.487063953,2.0763588 C0.773401163,2.16247176 1.0190407,1.90652492 1.0619186,1.60831894 C1.10188953,1.33084385 1.02194767,1.05097674 1.06700581,0.770312292" id="Fill-55" fill="#FBB03F" mask="url(#mask-6)"></path>
                </g>
                <path d="M25.9829072,27.9060026 C25.7724399,27.5731702 25.3967166,27.4788547 25.0685435,27.29568 C24.7177645,27.0992543 24.4363619,26.8225435 24.1152043,26.5871445 C23.7503942,26.3197873 23.3497267,26.821764 23.5352498,27.1670679 C23.7449376,27.5560219 24.1019526,27.8709266 24.4542906,28.1289302 C24.8120851,28.3908311 25.24861,28.7033973 25.7108587,28.5747853 C25.9868048,28.497618 26.1411475,28.1562115 25.9829072,27.9060026" id="Fill-58" fill="#FBB03F"></path>
                <path d="M29.7800414,17.0787685 C29.437555,16.9228635 29.1220625,16.9708911 28.7618612,17.055863 C28.3940679,17.1430516 28.0051855,17.2235902 27.6694476,17.3854063 C27.2417613,17.5915555 27.4728975,18.1021259 27.9005838,18.133898 C28.2422266,18.1590201 28.6032715,18.094737 28.939853,18.0481872 C29.2865572,18.0016374 29.6391664,17.9639542 29.8728333,17.7097773 C30.0474508,17.5191447 30.0651656,17.2080736 29.7800414,17.0787685" id="Fill-60" fill="#FBB03F"></path>
                <path d="M25.653993,4.42205925 C25.3015327,4.37902309 25.0393721,4.74767248 24.8107098,4.9937094 C24.5878733,5.23406231 24.3278974,5.47685122 24.2084687,5.79921644 C24.1006915,6.09072554 24.4043609,6.32620642 24.6315667,6.27099022 C24.9170305,6.20196996 25.1915709,5.91776889 25.426059,5.72776017 C25.7137074,5.49471529 26.0217461,5.29333853 26.0457775,4.8589169 C26.0603419,4.60232393 25.855711,4.44641934 25.653993,4.42205925" id="Fill-62" fill="#FBB03F"></path>
            </g>
        </g>
    </g>
</svg>