<?xml version="1.0" encoding="UTF-8"?>
<svg width="154px" height="155px" viewBox="0 0 154 155" version="1.1" xmlns="http://www.w3.org/2000/svg" xmlns:xlink="http://www.w3.org/1999/xlink">
    <!-- Generator: Sketch 50.2 (55047) - http://www.bohemiancoding.com/sketch -->
    <title>Group 21</title>
    <desc>Created with Sketch.</desc>
    <defs>
        <filter x="-5.2%" y="-5.2%" width="114.7%" height="114.7%" filterUnits="objectBoundingBox" id="filter-1">
            <feOffset dx="3" dy="3" in="SourceAlpha" result="shadowOffsetOuter1"></feOffset>
            <feGaussianBlur stdDeviation="3" in="shadowOffsetOuter1" result="shadowBlurOuter1"></feGaussianBlur>
            <feColorMatrix values="0 0 0 0 0.529411765   0 0 0 0 0.529411765   0 0 0 0 0.529411765  0 0 0 0.51525702 0" type="matrix" in="shadowBlurOuter1" result="shadowMatrixOuter1"></feColorMatrix>
            <feMerge>
                <feMergeNode in="shadowMatrixOuter1"></feMergeNode>
                <feMergeNode in="SourceGraphic"></feMergeNode>
            </feMerge>
        </filter>
        <polygon id="path-2" points="0 0 65.3208 0 65.3208 101.33 0 101.33"></polygon>
        <polygon id="path-4" points="0 0 65.3108 0 65.3108 101.335 0 101.335"></polygon>
        <circle id="path-6" cx="65" cy="65" r="65"></circle>
    </defs>
    <g id="Page-1" stroke="none" stroke-width="1" fill="none" fill-rule="evenodd">
        <g id="Home-Copy-2" transform="translate(-646.000000, -2948.000000)">
            <g id="Group-21" filter="url(#filter-1)" transform="translate(649.000000, 2951.000000)">
                <g id="Page-1">
                    <path d="M19,71.5 C19,42.511 42.505,19 71.5,19 C100.49,19 124,42.511 124,71.5 C124,100.49 100.49,124 71.5,124 C42.505,124 19,100.49 19,71.5" id="Fill-1" fill="#788EC7"></path>
                    <path d="M71.845,134.887 C48.281,134.887 27.727,122.05 16.751,103 L10,106.899 C16.251,117.718 25.241,126.708 36.067,132.958 C70.125,152.628 113.685,140.958 133.345,106.899 L126.852,103.15 C115.854,122.117 95.345,134.887 71.845,134.887" id="Fill-3" fill="#FBB03F"></path>
                    <g id="Group-7" transform="translate(77.000000, 0.192000)">
                        <mask id="mask-3" fill="white">
                            <use xlink:href="#path-2"></use>
                        </mask>
                        <g id="Clip-6"></g>
                        <path d="M57.829,70.997 C57.829,80.489 55.732,89.487 52,97.577 L58.5,101.33 C62.972,91.851 65.321,81.483 65.321,70.957 C65.321,33.616 36.568,3.002 0,0 L0,5.901 L0,7.708 C32.411,10.607 57.829,37.833 57.829,70.997" id="Fill-5" fill="#FBB03F" mask="url(#mask-3)"></path>
                    </g>
                    <g id="Group-10" transform="translate(0.000000, 0.192000)">
                        <mask id="mask-5" fill="white">
                            <use xlink:href="#path-4"></use>
                        </mask>
                        <g id="Clip-9"></g>
                        <path d="M65.3109499,7.743 L65.3109499,5.914 L65.3109499,0 C54.8689499,0.868 44.7189499,4.022 35.6029499,9.286 C3.2629499,27.962 -8.8710501,68.158 6.8139499,101.335 L13.5789499,97.429 C9.8929499,89.379 7.8229499,80.436 7.8229499,71.006 C7.8229499,37.957 33.0569499,10.801 65.3109499,7.743" id="Fill-8" fill="#FBB03F" mask="url(#mask-5)"></path>
                    </g>
                </g>
                <g id="Group-Copy" transform="translate(6.000000, 6.000000)">
                    <g id="Group-11">
                        <mask id="mask-7" fill="white">
                            <use xlink:href="#path-6"></use>
                        </mask>
                        <use id="Mask" fill="#EF462F" xlink:href="#path-6"></use>
                        <g mask="url(#mask-7)" fill="#DB1A00">
                            <g transform="translate(-37.000000, 0.000000)">
                                <path d="M184.228072,47.6128327 L138.708895,51.485446 L93.1897174,47.6128327 C93.1897174,47.6128327 47.155783,51.4966398 45.7990821,51.4966398 C44.4423812,51.4966398 0,40.2815534 0,40.2815534 L0,53.2621288 C0,53.2621288 37.0850165,71.2689525 38.1147532,71.3862637 C39.1444899,71.5035749 93.9283979,64.9135503 98.3825609,63.4023848 C102.760001,61.9174129 133.138459,60.0366276 138.57686,60.7969117 L138.57686,60.8392244 C138.617452,60.8316126 138.664512,60.8246724 138.708895,60.8175083 C138.753278,60.8246724 138.800561,60.8316126 138.84093,60.8392244 L138.84093,60.7969117 C144.279554,60.0366276 174.658012,61.9174129 179.035452,63.4023848 C183.489392,64.9135503 238.273523,71.5035749 239.303037,71.3862637 C240.332773,71.2689525 277.418013,53.2621288 277.418013,53.2621288 L277.418013,40.2815534 C277.418013,40.2815534 232.975409,51.4966398 231.618931,51.4966398 C230.26223,51.4966398 184.228072,47.6128327 184.228072,47.6128327" id="Fill-1"></path>
                                <path d="M175.478991,68.6503876 C169.559065,68.0248209 144.300519,75.0525632 138.708895,76.6371385 C133.117048,75.0525632 107.858502,68.0248209 101.938799,68.6503876 C95.2710478,69.3547922 40.6492837,80.5861817 38.4196373,80.4300692 C36.1897679,80.2737333 0,59.8446602 0,59.8446602 L0,131.757579 L137.535526,131.757579 L139.882264,131.757579 L277.41779,131.757579 L277.41779,59.8446602 C277.41779,59.8446602 241.227799,80.2737333 238.998152,80.4300692 C236.768506,80.5861817 182.146742,69.3547922 175.478991,68.6503876" id="Fill-4"></path>
                                <path d="M200.467022,34.097651 C191.245215,33.8356982 142.956748,29.1675088 138.967106,28.7807001 L138.967106,28.7551057 C138.967106,28.7551057 138.92112,28.7595569 138.834951,28.7677916 C138.749006,28.7595569 138.702797,28.7551057 138.702797,28.7551057 L138.702797,28.7807001 C134.713155,29.1675088 86.4246875,33.8356982 77.2028813,34.097651 C67.5821555,34.3711768 0,27 0,27 L0,28.7283985 C0,28.7283985 67.5821555,39.258365 77.2028813,38.9850617 C86.5436714,38.7197705 135.964606,33.933847 138.834951,33.6554249 C141.705297,33.933847 191.126232,38.7197705 200.467022,38.9850617 C210.087747,39.258365 277.669903,28.7283985 277.669903,28.7283985 L277.669903,27 C277.669903,27 210.087747,34.3711768 200.467022,34.097651" id="Fill-7"></path>
                                <path d="M138.84093,0 L138.57686,0 L0,0 L0,10.7886951 C46.6133703,15.6527942 81.3960322,24.6183333 90.3186323,25.3133619 C98.9425931,25.9850394 136.221647,23.798618 138.708895,23.6514614 C141.196143,23.798618 178.47542,25.9850394 187.099158,25.3133619 C196.021981,24.6183333 230.804419,15.6527942 277.41779,10.7886951 L277.41779,0 L138.84093,0 Z" id="Fill-9"></path>
                            </g>
                        </g>
                    </g>
                    <path d="M21.8715208,33.2441406 L21.203552,33.2255859 C20.9561549,33.2255859 20.7737023,33.278157 20.6561887,33.3833008 C20.5386751,33.4884445 20.4799192,33.6956365 20.4799192,34.0048828 C20.4799192,36.4788535 20.63454,40.1835691 20.9437864,45.1191406 C21.2530327,50.0547122 21.4076536,53.7594277 21.4076536,56.2333984 L21.4076536,57.6992188 C21.6674205,57.6621092 21.9271835,57.6435547 22.1869504,57.6435547 C23.238388,57.6435547 23.7640989,58.0888627 23.7640989,58.9794922 L23.7640989,59.2021484 L22.8178098,59.8515625 L20.2387083,59.9443359 C18.0492442,59.9443359 16.9545286,59.5670611 16.9545286,58.8125 C16.9545286,58.2063772 17.3379883,57.9033203 18.1049192,57.9033203 L18.9027708,57.9589844 C19.2738664,57.9589844 19.4594114,57.6621123 19.4594114,57.0683594 C19.4594114,55.1139225 19.3418995,52.1854036 19.1068723,48.2827148 C18.8718451,44.3800261 18.7543333,41.4515072 18.7543333,39.4970703 L18.828552,35.6191406 C18.828552,34.8027303 18.7976278,34.0976592 18.7357786,33.5039062 C18.4017925,33.6152349 18.1049205,33.6708984 17.8451536,33.6708984 C17.2514006,33.6708984 16.9545286,33.3678416 16.9545286,32.7617188 C16.9545286,32.4524724 17.1462584,32.1834321 17.5297239,31.9545898 C17.9131893,31.7257476 18.3894216,31.5618495 18.9584348,31.4628906 C20.0222422,31.2773428 20.8108086,31.1845703 21.3241575,31.1845703 C21.8375064,31.1845703 22.205504,31.2866201 22.4281614,31.4907227 C22.6508187,31.6948252 22.7621458,31.9360338 22.7621458,32.2143555 C22.7621458,32.4926772 22.6786505,32.7338857 22.5116575,32.9379883 C22.3446645,33.1420909 22.1312877,33.2441406 21.8715208,33.2441406 Z M25.5453489,40.0908203 L25.8051145,33.1142578 L25.8051145,32.8730469 C25.8051145,31.6113218 26.083432,30.9804688 26.6400754,30.9804688 C27.1472394,30.9804688 27.8275712,32.1555872 28.6810911,34.5058594 C30.2396926,38.7734588 32.1075125,45.8179847 34.2846067,55.6396484 L34.3217161,55.8251953 L34.4701536,42.5771484 L34.4701536,31.3330078 C34.6185918,30.7021453 35.0329757,30.3867188 35.7133176,30.3867188 C36.3936596,30.3867188 36.7338254,30.8815055 36.7338254,31.8710938 L36.7338254,32.09375 C36.5853872,32.4029963 36.5111692,32.7740864 36.5111692,33.2070312 L36.2699583,47.2529297 L36.2699583,58.8681641 C36.2699583,59.2516295 36.1648161,59.6289044 35.9545286,60 C35.7442411,60.3710956 35.484478,60.5566406 35.1752317,60.5566406 C34.643328,60.5566406 33.6042759,57.9497331 32.0580442,52.7358398 C30.5118125,47.5219466 28.9841585,41.9153946 27.4750364,35.9160156 L27.4750364,48.3847656 C27.4750364,49.5970113 27.5647165,51.4029828 27.7440794,53.8027344 C27.9234422,56.202486 28.0131223,58.0084575 28.0131223,59.2207031 C28.0131223,59.4557303 27.8708711,59.6505526 27.5863645,59.8051758 C27.3018579,59.959799 26.9400451,60.0371094 26.5009153,60.0371094 C26.0617855,60.0371094 25.8422239,59.8391947 25.8422239,59.4433594 L26.0277708,56.7158203 C26.0277708,55.4046158 25.9473679,53.2770329 25.7865598,50.3330078 C25.6257517,47.3889827 25.5453489,45.589196 25.5453489,44.9335938 L25.5453489,40.0908203 Z M38.6820676,59.5546875 C38.6820676,58.8743456 38.96657,58.5341797 39.5355833,58.5341797 C39.8200899,58.5341797 40.1942723,58.6300446 40.6581419,58.8217773 C41.1220114,59.0135101 41.5240256,59.109375 41.8641965,59.109375 C42.2043675,59.109375 42.5723651,58.8929058 42.9682004,58.4599609 C43.3640358,58.0270161 43.6732775,57.4889355 43.8959348,56.8457031 C44.3536194,55.5344987 44.5824583,54.3501029 44.5824583,53.2924805 C44.5824583,52.234858 44.3969132,51.099941 44.0258176,49.8876953 C43.654722,48.6754497 43.2032291,47.5374402 42.6713254,46.4736328 C42.1394217,45.4098254 41.6013412,44.346034 41.0570676,43.2822266 C39.7706029,40.7464066 39.133565,38.4332787 39.1459348,36.3427734 C39.133565,34.3635969 39.7582332,32.8112035 41.0199583,31.6855469 C41.6879303,31.0917939 42.4734043,30.7949219 43.3764036,30.7949219 C43.8340881,30.7949219 44.2793962,30.921711 44.7123411,31.175293 C45.1452859,31.428875 45.4483428,31.7597636 45.6215208,32.1679688 L44.9721067,32.984375 C44.3412442,32.984375 43.8464574,32.8606783 43.4877317,32.6132812 C43.0176773,32.6627607 42.6094782,32.8854147 42.2631223,33.28125 C41.6322598,34.0110714 41.3168333,34.9109647 41.3168333,35.980957 C41.3168333,37.0509494 41.4528996,38.0930939 41.7250364,39.1074219 C41.9971732,40.1217499 42.337339,41.0309205 42.7455442,41.8349609 C43.1537494,42.6390014 43.5928726,43.511063 44.062927,44.4511719 C44.5453513,45.3912807 44.9906593,46.2942665 45.3988645,47.1601562 C46.3513432,49.1640725 46.8275754,51.3287644 46.8275754,53.6542969 C46.8399453,55.2871175 46.4255614,56.8580654 45.5844114,58.3671875 C45.1885761,59.084639 44.6443107,59.6752906 43.9515989,60.1391602 C43.2588871,60.6030297 42.4857828,60.8349609 41.6322629,60.8349609 C40.7168938,60.8349609 39.9963606,60.6988946 39.4706419,60.4267578 C38.9449231,60.154621 38.6820676,59.8639338 38.6820676,59.5546875 Z M50.9467161,41.4638672 L50.6127317,44.1171875 L50.6127317,45.0263672 C50.6127317,47.9703923 50.6776725,49.918615 50.8075559,50.8710938 C50.9374394,51.8235725 51.0704133,52.6770796 51.2064817,53.4316406 C51.3425501,54.1862017 51.5188179,54.8294244 51.7352903,55.3613281 C51.9517627,55.8932318 52.2084333,56.3942034 52.5053098,56.8642578 C53.0990628,57.8043667 53.9216457,58.2744141 54.9730833,58.2744141 C55.4060281,58.2744141 55.9441087,58.0486676 56.5873411,57.597168 C57.2305735,57.1456683 57.7191753,56.9199219 58.0531614,56.9199219 C58.3871474,56.9199219 58.7458678,57.1116517 59.1293333,57.4951172 C59.1293333,58.7692121 58.4057077,59.6783827 56.9584348,60.2226562 C56.2409833,60.4824232 55.4616942,60.6123047 54.6205442,60.6123047 C53.7793942,60.6123047 53.0619534,60.4422218 52.4682004,60.1020508 C51.8744475,59.7618798 51.3796608,59.3227566 50.9838254,58.784668 C50.5879901,58.2465793 50.2416394,57.5569704 49.9447629,56.7158203 C49.6478865,55.8746703 49.4128628,55.0397177 49.2396848,54.2109375 C49.0912466,53.3697875 48.9675499,52.4049534 48.8685911,51.3164062 C48.7201528,49.4856679 48.63975,47.4817817 48.6273801,45.3046875 L48.6644895,40.7587891 C48.6644895,39.3115162 48.7510772,38.1425826 48.9242551,37.2519531 C48.850036,36.843748 48.812927,36.4479186 48.812927,36.0644531 C48.812927,34.5058516 49.3943014,33.2657924 50.5570676,32.3442383 C51.7198339,31.4226842 53.1547153,30.9619141 54.8617551,30.9619141 C55.467878,30.9619141 56.061622,31.131997 56.6430051,31.472168 C57.2243882,31.8123389 57.5150754,32.2607394 57.5150754,32.8173828 C57.5150754,33.0895196 57.4099333,33.2998039 57.1996458,33.4482422 C56.9893582,33.5966804 56.6337303,33.6708984 56.1327512,33.6708984 C55.6317722,33.6708984 55.2885139,33.5162776 55.1029661,33.2070312 L55.1029661,33.2255859 L54.5834348,33.2255859 L54.5834348,33.1328125 C53.1114223,33.1328125 52.1094791,33.5904902 51.5775754,34.5058594 C51.0827813,35.3470094 50.8353879,36.7942606 50.8353879,38.8476562 L50.9467161,41.4638672 Z M61.1703489,58.8867188 L61.3187864,36.6025391 L61.3187864,31.9267578 C61.3187864,31.6298813 61.3806347,31.419597 61.5043333,31.2958984 C61.6280318,31.1721999 61.9527356,31.1103516 62.4784544,31.1103516 C63.0041731,31.1103516 63.5360688,31.2371407 64.0741575,31.4907227 C64.6122461,31.7443047 65.0668314,32.0813781 65.437927,32.5019531 C65.7966528,32.9472679 66.1058945,33.4420546 66.3656614,33.9863281 C66.8604555,35.0377657 67.1078489,36.18196 67.1078489,37.4189453 C67.1078489,38.6559307 66.7986072,40.0722576 66.1801145,41.6679688 C66.1058954,41.8411467 65.9574594,42.2060519 65.734802,42.7626953 C65.5121446,43.3193387 65.3822631,43.6471349 65.3451536,43.7460938 C65.3575234,45.6263115 65.8337556,48.0693209 66.7738645,51.0751953 C67.0954807,52.0895233 67.5531584,53.4780185 68.1469114,55.2407227 C68.7406644,57.0034268 69.1117544,58.1197893 69.2601926,58.5898438 L69.2601926,58.6826172 C69.2601926,59.5361371 69.1612353,60.0340162 68.9633176,60.1762695 C68.7654,60.3185228 68.5551156,60.3896484 68.3324583,60.3896484 C67.8624038,60.3896484 67.4047261,60.0494826 66.9594114,59.3691406 L66.9594114,59.2392578 C66.8357128,56.9384651 66.0440541,53.4564035 64.5844114,48.7929688 C63.9164393,46.6653539 63.4525767,45.0882213 63.1928098,44.0615234 L63.1928098,59.0351562 C63.1928098,59.4186217 63.1247766,59.7154937 62.9887083,59.9257812 C62.8526399,60.1360688 62.6052465,60.2412109 62.2465208,60.2412109 C61.887795,60.2412109 61.6187547,60.1391612 61.4393919,59.9350586 C61.260029,59.730956 61.1703489,59.4804702 61.1703489,59.1835938 L61.1703489,58.8867188 Z M63.2670286,32.8544922 L63.062927,40.6103516 C63.062927,41.3896523 63.0752967,41.9710267 63.1000364,42.3544922 C63.5329813,41.946287 63.9597348,41.4576851 64.3803098,40.8886719 L64.9740598,37.6044922 C65.0111694,37.4313142 65.0297239,37.2333996 65.0297239,37.0107422 C65.0297239,36.4046194 64.9060272,35.6686241 64.6586301,34.8027344 C64.3122742,33.6152284 63.8484117,32.9658209 63.2670286,32.8544922 Z M72.0805051,28.5498047 C71.9568066,28.4508459 71.8949583,28.333334 71.8949583,28.1972656 C71.8949583,28.0611972 72.071226,27.829266 72.4237669,27.5014648 C72.7763077,27.1736637 73.5741513,26.4778699 74.8173215,25.4140625 C76.0604918,24.3502551 76.8119491,23.7008475 77.0717161,23.4658203 C77.2201543,23.4163409 77.3871448,23.3916016 77.5726926,23.3916016 C77.7582404,23.3916016 77.9808945,23.5493148 78.2406614,23.8647461 C78.5004283,24.1801774 78.6303098,24.4863266 78.6303098,24.7832031 C78.6303098,25.0800796 78.5375373,25.290364 78.3519895,25.4140625 C77.3871409,26.1191442 75.5440604,27.1891204 72.8226926,28.6240234 C72.7237338,28.6735029 72.606222,28.6982422 72.4701536,28.6982422 C72.3340852,28.6982422 72.2042037,28.6487635 72.0805051,28.5498047 Z M75.4760129,33.2441406 L74.8080442,33.2255859 C74.5606471,33.2255859 74.3781945,33.278157 74.2606809,33.3833008 C74.1431673,33.4884445 74.0844114,33.6956365 74.0844114,34.0048828 C74.0844114,36.4788535 74.2390322,40.1835691 74.5482786,45.1191406 C74.8575249,50.0547122 75.0121458,53.7594277 75.0121458,56.2333984 L75.0121458,57.6992188 C75.2719127,57.6621092 75.5316757,57.6435547 75.7914426,57.6435547 C76.8428802,57.6435547 77.3685911,58.0888627 77.3685911,58.9794922 L77.3685911,59.2021484 L76.422302,59.8515625 L73.8432004,59.9443359 C71.6537364,59.9443359 70.5590208,59.5670611 70.5590208,58.8125 C70.5590208,58.2063772 70.9424805,57.9033203 71.7094114,57.9033203 L72.5072629,57.9589844 C72.8783585,57.9589844 73.0639036,57.6621123 73.0639036,57.0683594 C73.0639036,55.1139225 72.9463917,52.1854036 72.7113645,48.2827148 C72.4763373,44.3800261 72.3588254,41.4515072 72.3588254,39.4970703 L72.4330442,35.6191406 C72.4330442,34.8027303 72.40212,34.0976592 72.3402708,33.5039062 C72.0062847,33.6152349 71.7094127,33.6708984 71.4496458,33.6708984 C70.8558928,33.6708984 70.5590208,33.3678416 70.5590208,32.7617188 C70.5590208,32.4524724 70.7507506,32.1834321 71.1342161,31.9545898 C71.5176815,31.7257476 71.9939137,31.5618495 72.562927,31.4628906 C73.6267344,31.2773428 74.4153007,31.1845703 74.9286497,31.1845703 C75.4419986,31.1845703 75.8099962,31.2866201 76.0326536,31.4907227 C76.2553109,31.6948252 76.3666379,31.9360338 76.3666379,32.2143555 C76.3666379,32.4926772 76.2831427,32.7338857 76.1161497,32.9379883 C75.9491566,33.1420909 75.7357799,33.2441406 75.4760129,33.2441406 Z M81.8773801,33.6337891 C81.5186544,33.6337891 81.3392942,34.0883744 81.3392942,34.9975586 C81.3392942,35.9067428 81.3640335,37.3354395 81.4135129,39.2836914 C81.4629924,41.2319433 81.4877317,42.6451779 81.4877317,43.5234375 C82.1433339,43.3749993 82.7061538,42.8307339 83.1762083,41.890625 C83.5596737,41.0989544 83.8751002,40.3351274 84.1224973,39.5991211 C84.3698944,38.8631148 84.5307001,38.4085295 84.6049192,38.2353516 L84.6049192,36.8808594 C84.6049192,36.1386682 84.3296941,35.4119502 83.7792356,34.7006836 C83.2287771,33.989417 82.5948316,33.6337891 81.8773801,33.6337891 Z M81.6547239,58.3300781 C82.9288188,58.1321605 83.9245771,57.5507861 84.6420286,56.5859375 C85.3594801,55.6210889 85.7182004,54.5078188 85.7182004,53.2460938 C85.7182004,51.9843687 85.6130583,50.874191 85.4027708,49.9155273 C85.1924832,48.9568637 84.960552,48.2332381 84.70697,47.7446289 C84.453388,47.2560197 84.1596084,46.8385434 83.8256223,46.4921875 C83.4174172,46.0716125 83.0834361,45.8180343 82.8236692,45.7314453 L81.469177,45.7314453 C81.5928755,49.2321139 81.6547239,53.4316161 81.6547239,58.3300781 Z M79.5394895,50.0175781 L79.2797239,34.5800781 L79.2797239,34.3574219 C79.2797239,32.996738 79.4900082,32.1308612 79.9105833,31.7597656 C80.1208708,31.5742178 80.3868186,31.4814453 80.7084348,31.4814453 C82.5144334,31.4814453 83.9245756,32.0628197 84.9389036,33.2255859 C85.9532316,34.3883522 86.4603879,35.885082 86.4603879,37.7158203 C86.4603879,38.8662167 86.1573311,40.0598896 85.5512083,41.296875 C84.9450854,42.5338604 84.2214599,43.4554006 83.3803098,44.0615234 C84.9265415,45.1005911 86.0305344,46.4210532 86.6923215,48.0229492 C87.3541087,49.6248452 87.6849973,51.3040277 87.6849973,53.0605469 C87.6849973,53.9882859 87.453066,54.9407503 86.9891965,55.9179688 C86.525327,56.8951872 86.0614645,57.6744763 85.597595,58.2558594 C85.1337255,58.8372425 84.5245193,59.3258444 83.7699583,59.7216797 C83.0153972,60.117515 82.1866294,60.3154297 81.2836301,60.3154297 L81.1351926,60.3154297 C79.9476867,60.3154297 79.3539426,60.0000032 79.3539426,59.3691406 L79.5394895,50.0175781 Z M94.0307004,46.0839844 L93.0844114,46.046875 C92.7133158,46.046875 92.4535527,46.1396475 92.3051145,46.3251953 L92.3051145,58.0517578 C93.6039491,57.9775387 94.3090202,57.9404297 94.4203489,57.9404297 C95.8676217,57.9404297 96.5912473,58.2744107 96.5912473,58.9423828 L96.5912473,59.0722656 C96.4180694,59.4186215 96.1211973,59.6845694 95.7006223,59.8701172 C95.2800473,60.055665 94.9089573,60.1608072 94.5873411,60.1855469 C94.2657249,60.2102866 93.851341,60.2226562 93.344177,60.2226562 L92.156677,60.2226562 C91.2165681,60.2226562 90.6351937,60.0371112 90.4125364,59.6660156 C90.3135776,59.4928377 90.2640989,59.2639988 90.2640989,58.9794922 L90.2640989,36.8994141 C90.2640989,36.4664692 90.1775112,35.8232465 90.0043333,34.9697266 C89.8311553,34.1162067 89.7445676,33.4667991 89.7445676,33.0214844 L89.7445676,32.8916016 C90.1651427,32.1988898 90.4805692,31.7535817 90.6908567,31.5556641 L93.5111692,31.2216797 C93.8946347,31.2216797 94.2811868,31.3360991 94.6708372,31.5649414 C95.0604875,31.7937837 95.2553098,32.0937481 95.2553098,32.4648438 C95.2553098,33.2194048 94.6801203,33.5966797 93.5297239,33.5966797 L92.4349973,33.5595703 C92.2494495,33.5595703 92.1133832,33.5657551 92.0267942,33.578125 L92.3236692,39.8496094 C92.3236692,40.3567734 92.292745,41.095861 92.2308958,42.0668945 C92.1690465,43.037928 92.1381223,43.7460915 92.1381223,44.1914062 C92.2741907,44.1666665 92.4597357,44.1233727 92.6947629,44.0615234 C93.2142968,43.925455 93.6194034,43.8574219 93.910095,43.8574219 C94.2007865,43.8574219 94.4605496,43.9625641 94.6893919,44.1728516 C94.9182341,44.3831391 95.0326536,44.6367173 95.0326536,44.9335938 C95.0326536,45.2304702 94.9398811,45.4964181 94.7543333,45.7314453 C94.5687855,45.9664725 94.3275769,46.0839844 94.0307004,46.0839844 Z M103.029724,37.9384766 L102.955505,42.8369141 L103.28949,51.5761719 L103.604919,58.4042969 C103.604919,59.6412822 103.240014,60.2597656 102.510193,60.2597656 C102.089618,60.2597656 101.780376,60.0618509 101.582458,59.6660156 C101.384541,59.2701803 101.285583,58.8310571 101.285583,58.3486328 L101.582458,52.28125 C101.582458,50.9700455 101.495871,48.9970835 101.322693,46.3623047 C101.149515,43.7275259 101.062927,41.7545638 101.062927,40.4433594 L101.118591,37.1220703 C101.118591,35.3037018 101.001079,34.1223986 100.766052,33.578125 L98.7064817,33.7822266 C98.3848655,33.7822266 98.0972707,33.6863616 97.8436887,33.4946289 C97.5901067,33.3028962 97.4633176,33.0555028 97.4633176,32.7524414 C97.4633176,32.44938 97.7663745,32.1927094 98.3724973,31.9824219 C98.99099,31.7597645 99.7331701,31.5989588 100.59906,31.5 C102.120552,31.3268221 103.400812,31.2402344 104.43988,31.2402344 C104.749126,31.2402344 105.030536,31.3422841 105.284118,31.5463867 C105.5377,31.7504893 105.66449,32.0071599 105.66449,32.3164062 C105.66449,32.6256526 105.553162,32.8699535 105.330505,33.0493164 C105.107848,33.2286793 104.835715,33.3183594 104.514099,33.3183594 L103.159607,33.2441406 C102.986429,33.2441406 102.856547,33.2503255 102.769958,33.2626953 C102.943136,34.722338 103.029724,36.2809162 103.029724,37.9384766 Z M111.639099,46.0839844 L110.69281,46.046875 C110.321714,46.046875 110.061951,46.1396475 109.913513,46.3251953 L109.913513,58.0517578 C111.212348,57.9775387 111.917419,57.9404297 112.028747,57.9404297 C113.47602,57.9404297 114.199646,58.2744107 114.199646,58.9423828 L114.199646,59.0722656 C114.026468,59.4186215 113.729596,59.6845694 113.309021,59.8701172 C112.888446,60.055665 112.517356,60.1608072 112.19574,60.1855469 C111.874123,60.2102866 111.459739,60.2226562 110.952575,60.2226562 L109.765075,60.2226562 C108.824967,60.2226562 108.243592,60.0371112 108.020935,59.6660156 C107.921976,59.4928377 107.872497,59.2639988 107.872497,58.9794922 L107.872497,36.8994141 C107.872497,36.4664692 107.78591,35.8232465 107.612732,34.9697266 C107.439554,34.1162067 107.352966,33.4667991 107.352966,33.0214844 L107.352966,32.8916016 C107.773541,32.1988898 108.088968,31.7535817 108.299255,31.5556641 L111.119568,31.2216797 C111.503033,31.2216797 111.889585,31.3360991 112.279236,31.5649414 C112.668886,31.7937837 112.863708,32.0937481 112.863708,32.4648438 C112.863708,33.2194048 112.288519,33.5966797 111.138122,33.5966797 L110.043396,33.5595703 C109.857848,33.5595703 109.721782,33.5657551 109.635193,33.578125 L109.932068,39.8496094 C109.932068,40.3567734 109.901143,41.095861 109.839294,42.0668945 C109.777445,43.037928 109.746521,43.7460915 109.746521,44.1914062 C109.882589,44.1666665 110.068134,44.1233727 110.303161,44.0615234 C110.822695,43.925455 111.227802,43.8574219 111.518493,43.8574219 C111.809185,43.8574219 112.068948,43.9625641 112.29779,44.1728516 C112.526633,44.3831391 112.641052,44.6367173 112.641052,44.9335938 C112.641052,45.2304702 112.548279,45.4964181 112.362732,45.7314453 C112.177184,45.9664725 111.935975,46.0839844 111.639099,46.0839844 Z" id="INSCRÃBETE" fill="#FFFFFF"></path>
                    <path d="M46.1058668,77.3994141 L41.7923902,77.3994141 L41.7923902,80.9267578 L46.8031324,80.9267578 L46.8031324,82 L40.4798902,82 L40.4798902,72.046875 L46.7347731,72.046875 L46.7347731,73.1269531 L41.7923902,73.1269531 L41.7923902,76.3261719 L46.1058668,76.3261719 L46.1058668,77.3994141 Z M55.7632587,82 L54.4439227,82 L49.4331805,74.3300781 L49.4331805,82 L48.1138446,82 L48.1138446,72.046875 L49.4331805,72.046875 L54.4575946,79.7509766 L54.4575946,72.046875 L55.7632587,72.046875 L55.7632587,82 Z M66.5399564,77.3994141 L62.2264799,77.3994141 L62.2264799,80.9267578 L67.237222,80.9267578 L67.237222,82 L60.9139799,82 L60.9139799,72.046875 L67.1688627,72.046875 L67.1688627,73.1269531 L62.2264799,73.1269531 L62.2264799,76.3261719 L66.5399564,76.3261719 L66.5399564,77.3994141 Z M71.4805514,77.5634766 C70.3548947,77.2399072 69.5357297,76.8422875 69.0230319,76.3706055 C68.510334,75.8989234 68.2539889,75.3167352 68.2539889,74.6240234 C68.2539889,73.8401654 68.5672996,73.1918971 69.1939303,72.6791992 C69.820561,72.1665013 70.6351688,71.9101562 71.637778,71.9101562 C72.3213751,71.9101562 72.9309068,72.0423164 73.4663912,72.3066406 C74.0018757,72.5709649 74.4165851,72.9355446 74.7105319,73.4003906 C75.0044786,73.8652367 75.1514498,74.3733696 75.1514498,74.9248047 L73.8321139,74.9248047 C73.8321139,74.3232392 73.6407096,73.8504249 73.2578951,73.5063477 C72.8750807,73.1622704 72.3350471,72.9902344 71.637778,72.9902344 C70.9906393,72.9902344 70.4859243,73.1326483 70.1236178,73.4174805 C69.7613113,73.7023126 69.5801608,74.0976537 69.5801608,74.6035156 C69.5801608,75.0091166 69.7521968,75.3520494 70.0962741,75.6323242 C70.4403513,75.9125991 71.0259574,76.1689442 71.85311,76.4013672 C72.6802626,76.6337902 73.3273915,76.8901353 73.7945162,77.1704102 C74.261641,77.450685 74.6079917,77.7776674 74.8335787,78.1513672 C75.0591658,78.525067 75.1719576,78.9648412 75.1719576,79.4707031 C75.1719576,80.2773478 74.8575077,80.9233374 74.2285983,81.4086914 C73.5996889,81.8940454 72.758877,82.1367188 71.7061373,82.1367188 C71.0225402,82.1367188 70.3845257,82.0056979 69.7920748,81.7436523 C69.199624,81.4816068 68.74276,81.1227236 68.4214694,80.6669922 C68.1001787,80.2112607 67.9395358,79.6940133 67.9395358,79.1152344 L69.2588717,79.1152344 C69.2588717,79.7167999 69.4810375,80.1918928 69.9253756,80.5405273 C70.3697138,80.8891619 70.9632951,81.0634766 71.7061373,81.0634766 C72.3988491,81.0634766 72.9297683,80.9222019 73.2989108,80.6396484 C73.6680532,80.3570949 73.8526217,79.9720076 73.8526217,79.484375 C73.8526217,78.9967424 73.681725,78.6196302 73.3399264,78.3530273 C72.9981278,78.0864244 72.3783423,77.8232435 71.4805514,77.5634766 Z M83.4074745,73.1269531 L80.2082557,73.1269531 L80.2082557,82 L78.9025917,82 L78.9025917,73.1269531 L75.7102089,73.1269531 L75.7102089,72.046875 L83.4074745,72.046875 L83.4074745,73.1269531 Z M89.5170148,79.4023438 L85.3470929,79.4023438 L84.4105695,82 L83.0570538,82 L86.8578351,72.046875 L88.0062726,72.046875 L91.8138898,82 L90.4672101,82 L89.5170148,79.4023438 Z M85.7435773,78.3222656 L89.1273663,78.3222656 L87.4320538,73.6669922 L85.7435773,78.3222656 Z M30.3765323,93.3994141 L26.0630558,93.3994141 L26.0630558,96.9267578 L31.073798,96.9267578 L31.073798,98 L24.7505558,98 L24.7505558,88.046875 L31.0054386,88.046875 L31.0054386,89.1269531 L26.0630558,89.1269531 L26.0630558,92.3261719 L30.3765323,92.3261719 L30.3765323,93.3994141 Z M35.6315804,91.8613281 L38.0173226,88.046875 L39.5622445,88.046875 L36.4177132,92.9824219 L39.6374398,98 L38.0788461,98 L35.6315804,94.1171875 L33.1706429,98 L31.6188851,98 L34.8454476,92.9824219 L31.6940804,88.046875 L33.2321664,88.046875 L35.6315804,91.8613281 Z M42.151277,94.1035156 L42.151277,98 L40.838777,98 L40.838777,88.046875 L44.5096754,88.046875 C45.5988736,88.046875 46.4522179,88.324867 47.069734,88.8808594 C47.6872501,89.4368517 47.9960035,90.172847 47.9960035,91.0888672 C47.9960035,92.0550179 47.694086,92.7989883 47.0902418,93.3208008 C46.4863976,93.8426133 45.6216602,94.1035156 44.4960035,94.1035156 L42.151277,94.1035156 Z M42.151277,93.0302734 L44.5096754,93.0302734 C45.2115018,93.0302734 45.7492569,92.8650733 46.1229567,92.534668 C46.4966564,92.2042627 46.6835035,91.7268911 46.6835035,91.1025391 C46.6835035,90.5100882 46.4966564,90.0361346 46.1229567,89.6806641 C45.7492569,89.3251935 45.2365667,89.1406251 44.5848707,89.1269531 L42.151277,89.1269531 L42.151277,93.0302734 Z M54.9737079,93.3994141 L50.6602313,93.3994141 L50.6602313,96.9267578 L55.6709735,96.9267578 L55.6709735,98 L49.3477313,98 L49.3477313,88.046875 L55.6026141,88.046875 L55.6026141,89.1269531 L50.6602313,89.1269531 L50.6602313,92.3261719 L54.9737079,92.3261719 L54.9737079,93.3994141 Z M60.6320763,93.9736328 L58.2941857,93.9736328 L58.2941857,98 L56.9748497,98 L56.9748497,88.046875 L60.2697716,88.046875 C61.390871,88.046875 62.2533298,88.3020808 62.8571739,88.8125 C63.4610181,89.3229192 63.7629357,90.0657503 63.7629357,91.0410156 C63.7629357,91.6608104 63.5954569,92.2008441 63.2604943,92.6611328 C62.9255316,93.1214216 62.4595532,93.4654937 61.862545,93.6933594 L64.2004357,97.9179688 L64.2004357,98 L62.7922325,98 L60.6320763,93.9736328 Z M58.2941857,92.9003906 L60.3107872,92.9003906 C60.9624832,92.9003906 61.4808699,92.7317725 61.865963,92.3945312 C62.2510561,92.05729 62.4435997,91.6061226 62.4435997,91.0410156 C62.4435997,90.4257782 62.2601706,89.9541032 61.8933068,89.6259766 C61.5264429,89.2978499 60.9966631,89.1315104 60.3039513,89.1269531 L58.2941857,89.1269531 L58.2941857,92.9003906 Z M66.6869291,98 L65.3744291,98 L65.3744291,88.046875 L66.6869291,88.046875 L66.6869291,98 Z M74.3824069,95.4023438 L70.212485,95.4023438 L69.2759616,98 L67.9224459,98 L71.7232272,88.046875 L72.8716647,88.046875 L76.6792819,98 L75.3326022,98 L74.3824069,95.4023438 Z M70.6089694,94.3222656 L73.9927584,94.3222656 L72.2974459,89.6669922 L70.6089694,94.3222656 Z M85.3454628,98 L84.0261268,98 L79.0153847,90.3300781 L79.0153847,98 L77.6960487,98 L77.6960487,88.046875 L79.0153847,88.046875 L84.0397987,95.7509766 L84.0397987,88.046875 L85.3454628,88.046875 L85.3454628,98 Z M94.6747296,94.8417969 C94.5516821,95.8945365 94.1631769,96.7068656 93.5092023,97.2788086 C92.8552277,97.8507516 91.985933,98.1367188 90.9012921,98.1367188 C89.725505,98.1367188 88.7832944,97.7151735 88.074632,96.8720703 C87.3659696,96.0289671 87.0116437,94.9010487 87.0116437,93.4882812 L87.0116437,92.53125 C87.0116437,91.6061152 87.1768439,90.7926467 87.5072492,90.0908203 C87.8376545,89.3889939 88.3059115,88.8500995 88.9120343,88.4741211 C89.5181571,88.0981427 90.219973,87.9101562 91.0175031,87.9101562 C92.0748,87.9101562 92.9224478,88.2052379 93.5604718,88.7954102 C94.1984958,89.3855824 94.5699114,90.2024687 94.6747296,91.2460938 L93.3553937,91.2460938 C93.2414608,90.453121 92.9942302,89.878908 92.6136945,89.5234375 C92.2331587,89.167967 91.7011002,88.9902344 91.0175031,88.9902344 C90.1789572,88.9902344 89.5215745,89.3001271 89.0453351,89.9199219 C88.5690957,90.5397166 88.3309796,91.4215438 88.3309796,92.5654297 L88.3309796,93.5292969 C88.3309796,94.6093804 88.5565633,95.4684213 89.0077374,96.1064453 C89.4589116,96.7444693 90.0900902,97.0634766 90.9012921,97.0634766 C91.6304624,97.0634766 92.1898644,96.8982764 92.5795148,96.5678711 C92.9691652,96.2374658 93.2277889,95.6621135 93.3553937,94.8417969 L94.6747296,94.8417969 Z M97.5508715,98 L96.2383715,98 L96.2383715,88.046875 L97.5508715,88.046875 L97.5508715,98 Z M105.246349,95.4023438 L101.076427,95.4023438 L100.139904,98 L98.7863883,98 L102.58717,88.046875 L103.735607,88.046875 L107.543224,98 L106.196545,98 L105.246349,95.4023438 Z M101.472912,94.3222656 L104.856701,94.3222656 L103.161388,89.6669922 L101.472912,94.3222656 Z" id="EN-ESTA-EXPERIANCIA" fill="#FFFFFF"></path>
                </g>
            </g>
        </g>
    </g>
</svg>