<?xml version="1.0" encoding="UTF-8"?>
<svg width="100px" height="74px" viewBox="0 0 100 74" version="1.1" xmlns="http://www.w3.org/2000/svg" xmlns:xlink="http://www.w3.org/1999/xlink">
    <!-- Generator: Sketch 50.2 (55047) - http://www.bohemiancoding.com/sketch -->
    <title>undraw_organize_resume_utk5</title>
    <desc>Created with Sketch.</desc>
    <defs>
        <linearGradient x1="50%" y1="100%" x2="50%" y2="0%" id="linearGradient-1">
            <stop stop-color="#808080" stop-opacity="0.25" offset="0%"></stop>
            <stop stop-color="#808080" stop-opacity="0.12" offset="54%"></stop>
            <stop stop-color="#808080" stop-opacity="0.1" offset="100%"></stop>
        </linearGradient>
        <linearGradient x1="102882%" y1="81541%" x2="102882%" y2="40741%" id="linearGradient-2">
            <stop stop-color="#808080" stop-opacity="0.25" offset="0%"></stop>
            <stop stop-color="#808080" stop-opacity="0.12" offset="54%"></stop>
            <stop stop-color="#808080" stop-opacity="0.1" offset="100%"></stop>
        </linearGradient>
        <linearGradient x1="79921%" y1="58903%" x2="79921%" y2="34083%" id="linearGradient-3">
            <stop stop-color="#808080" stop-opacity="0.25" offset="0%"></stop>
            <stop stop-color="#808080" stop-opacity="0.12" offset="54%"></stop>
            <stop stop-color="#808080" stop-opacity="0.1" offset="100%"></stop>
        </linearGradient>
        <linearGradient x1="222535%" y1="81755%" x2="222535%" y2="42313%" id="linearGradient-4">
            <stop stop-color="#808080" stop-opacity="0.25" offset="0%"></stop>
            <stop stop-color="#808080" stop-opacity="0.12" offset="54%"></stop>
            <stop stop-color="#808080" stop-opacity="0.1" offset="100%"></stop>
        </linearGradient>
    </defs>
    <g id="Page-1" stroke="none" stroke-width="1" fill="none" fill-rule="evenodd">
        <g id="Home-Copy-2" transform="translate(-430.000000, -1695.000000)">
            <g id="Group-9" transform="translate(95.000000, 1520.000000)">
                <g id="Group-7" transform="translate(306.000000, 135.000000)">
                    <g id="Group-4-Copy-2">
                        <g id="Group-34">
                            <g id="Group-12">
                                <g id="undraw_organize_resume_utk5" transform="translate(29.000000, 40.173826)">
                                    <path d="M2.76323676,46.3426573 C1.56443556,46.5374625 0.0609390609,47.0949051 0.0749250749,48.3906094 C0.0819180819,49.047952 0.518481518,49.6083916 0.943056943,50.0889111 C2.74767368,52.1452189 4.80648158,53.9636703 7.06993007,55.5004995 C8.15084915,56.2327672 9.31268731,56.9330669 10.030969,58.0649351 C10.7492507,59.1968032 10.9300699,60.6373626 10.987013,62.007992 C11.1270823,65.2531185 10.7445804,68.4996623 9.85414585,71.6233766 C13.3736264,72.2937063 17.2987013,72.8811189 20.2317682,70.7642358 C21.988012,69.4965035 23.1758242,67.3726274 25.1328671,66.4935065 C26.4395604,65.9060939 27.9190809,65.958042 29.3436563,66.032967 C36.0869131,66.3879454 42.8135198,67.0539461 49.5234765,68.030969 C52.3336663,68.4405594 55.1978022,68.9040959 57.978022,68.3746254 C60.7582418,67.8451548 63.4935065,66.1178821 64.5184815,63.3176823 C64.6763237,62.8861139 64.8181818,62.4045954 65.1718282,62.1448551 C65.4915085,61.9130869 65.9100899,61.9180819 66.2987013,61.9320679 L89.7832168,62.7392607 C91.0699301,62.7832168 92.4015984,62.8191808 93.5794206,62.2897103 C94.7212787,61.7772228 95.5994006,60.7912088 96.4445554,59.8251748 C98.3776224,57.6213786 100.456543,54.9100899 99.8881119,51.9190809 C99.4335664,49.5214785 97.4015984,47.8461538 95.3866134,46.6733267 C93.3716284,45.5004995 91.1488511,44.5404595 89.6683317,42.6653347 C87.4155844,39.8111888 87.5044955,35.7262737 87.3646354,32.022977 C87.2371787,28.6696433 86.8244326,25.3332506 86.1308691,22.04995 C85.5204795,19.1638362 84.6703297,16.2737263 83.0809191,13.8361638 C81.4915085,11.3986014 79.0609391,9.44655345 76.3116883,9.08891109 C72.7212787,8.62137862 69.1118881,10.8611389 65.5994006,9.91008991 C62.6323676,9.11088911 60.5904096,6.27072927 58.1318681,4.3026973 C53.7652348,0.806193806 48.034965,0.0739260739 42.6173826,0.00699300699 C36.8731269,-0.0659340659 30.977023,0.515484515 25.8571429,3.21278721 C24.6843157,3.83016983 23.5374625,4.57742258 22.7252747,5.66833167 C21.4805195,7.34165834 21.1788212,9.58941059 20.3646354,11.5454545 C17.0829171,19.4215784 6.40959041,21.1198801 2.94505495,28.9120879 C1.71528472,31.6763237 1.72727273,34.9000999 2.62337662,37.8031968 C3.58741259,40.9270729 6.3006993,42.6523477 7.37662338,45.3756244 C6.21878122,46.1208791 4.16683317,46.1138861 2.76323676,46.3426573 Z" id="Shape" fill="#FF1F00" fill-rule="nonzero" opacity="0.1"></path>
                                    <g id="Group" opacity="0.2" transform="translate(86.113886, 14.785215)">
                                        <path d="M2.35264735,22.2697303 C2.35264735,22.2697303 2.83216783,15.8991009 6.43256743,12.4375624 C7.95199322,10.9954426 8.96261158,9.09935009 9.31268731,7.03396603 C9.46982681,6.05213264 9.53670625,5.05796981 9.51248751,4.06393606" id="Shape" stroke="#535461" stroke-width="2"></path>
                                        <path d="M11.7722278,1.86913087 C11.5064935,2.56843157 9.46453546,4.12787213 9.46453546,4.12787213 C9.46453546,4.12787213 8.96503497,1.60939061 9.22877123,0.907092907 C9.49443068,0.20446091 10.279386,-0.149775332 10.982018,0.115884116 C11.68465,0.381543563 12.0388862,1.16649887 11.7732268,1.86913087 L11.7722278,1.86913087 Z" id="Shape" fill="#FF1F00" fill-rule="nonzero"></path>
                                        <path d="M12.4035964,6.55544456 C11.7992008,7.000999 9.23876124,7.1968032 9.23876124,7.1968032 C9.23876124,7.1968032 10.1868132,4.81018981 10.7912088,4.36463536 C11.1823807,4.07661004 11.6974981,4.0191514 12.1425213,4.21390357 C12.5875445,4.40865573 12.8948639,4.8260312 12.9487152,5.30880868 C13.0025664,5.79158616 12.7947683,6.26642025 12.4035964,6.55444555 L12.4035964,6.55544456 Z" id="Shape" fill="#FF1F00" fill-rule="nonzero"></path>
                                        <path d="M9.7972028,13.1708292 C9.04995005,13.2497502 6.74125874,12.1268731 6.74125874,12.1268731 C6.74125874,12.1268731 8.76423576,10.5454545 9.51048951,10.4655345 C10.257536,10.3863608 10.9273198,10.9277787 11.0064935,11.6748252 C11.0856672,12.4218717 10.5442493,13.0916555 9.7972028,13.1708292 Z" id="Shape" fill="#FF1F00" fill-rule="nonzero"></path>
                                        <path d="M6.6983017,17.7322677 C5.97502498,17.9320679 3.50949051,17.2197802 3.50949051,17.2197802 C3.50949051,17.2197802 5.23576424,15.3216783 5.95904096,15.1148851 C6.42659134,14.9828289 6.92907687,15.1102391 7.2772161,15.4491215 C7.62535533,15.7880039 7.76625764,16.2868742 7.64684648,16.7578128 C7.52743532,17.2287514 7.16585209,17.6002115 6.6983017,17.7322677 Z" id="Shape" fill="#FF1F00" fill-rule="nonzero"></path>
                                        <path d="M6.51648352,6.32367632 C6.83516484,7.003996 8.99100899,8.3986014 8.99100899,8.3986014 C8.99100899,8.3986014 9.2977023,5.84915085 8.97902098,5.16883117 C8.77272776,4.72894122 8.34742647,4.43252226 7.86332399,4.39123246 C7.37922151,4.34994265 6.90986452,4.57005489 6.63205526,4.96865503 C6.354246,5.36725518 6.3101903,5.88378637 6.51648352,6.32367632 Z" id="Shape" fill="#FF1F00" fill-rule="nonzero"></path>
                                        <path d="M2.95904096,11.7042957 C3.46653347,12.2577423 5.94105894,12.9440559 5.94105894,12.9440559 C5.94105894,12.9440559 5.47052947,10.4195804 4.96303696,9.86613387 C4.45544259,9.31246978 3.59512262,9.27512291 3.04145854,9.78271728 C2.48779446,10.2903117 2.45044758,11.1506316 2.95804196,11.7042957 L2.95904096,11.7042957 Z" id="Shape" fill="#FF1F00" fill-rule="nonzero"></path>
                                        <path d="M0.21978022,17.4075924 C0.626373626,18.038961 2.95004995,19.1328671 2.95004995,19.1328671 C2.95004995,19.1328671 2.91308691,16.5654346 2.50649351,15.9360639 C2.09959039,15.3046055 1.25783208,15.1225675 0.626373664,15.5294706 C-0.00508475029,15.9363737 -0.187122833,16.778132 0.21978022,17.4095904 L0.21978022,17.4075924 Z" id="Shape" fill="#FF1F00" fill-rule="nonzero"></path>
                                    </g>
                                    <polygon id="Shape" fill="url(#linearGradient-1)" fill-rule="nonzero" points="16.3976024 8.77422577 16.3976024 12.3676324 16.3976024 54.8281718 90.4035964 54.8281718 90.4035964 12.3676324 90.4035964 8.77422577"></polygon>
                                    <rect id="Rectangle-path" fill="#F6F7F9" fill-rule="nonzero" x="17.1798202" y="9.26073926" width="72.4425574" height="3.51748252"></rect>
                                    <g id="Group" opacity="0.2" transform="translate(17.082917, 9.190809)" fill="#FF1F00" fill-rule="nonzero">
                                        <rect id="Rectangle-path" x="0.0969030969" y="0.0699300699" width="72.4425574" height="3.51748252"></rect>
                                    </g>
                                    <rect id="Rectangle-path" fill="#F6F7F9" fill-rule="nonzero" x="17.1798202" y="12.7782218" width="72.4425574" height="41.5634366"></rect>
                                    <circle id="Oval" fill="#F6F7F9" fill-rule="nonzero" cx="18.9170829" cy="10.998002" r="1"></circle>
                                    <circle id="Oval" fill="#F6F7F9" fill-rule="nonzero" cx="21.000999" cy="10.998002" r="1"></circle>
                                    <circle id="Oval" fill="#F6F7F9" fill-rule="nonzero" cx="23.0859141" cy="10.998002" r="1"></circle>
                                    <g id="Group" opacity="0.2" transform="translate(19.680320, 17.882118)" fill="#FF1F00" fill-rule="nonzero">
                                        <rect id="Rectangle-path" x="0.017982018" y="0.0649350649" width="37.2637363" height="2.69230769"></rect>
                                    </g>
                                    <g id="Group" opacity="0.2" transform="translate(66.433566, 17.882118)" fill="#FF1F00" fill-rule="nonzero">
                                        <rect id="Rectangle-path" x="0.0829170829" y="0.0649350649" width="19.5434565" height="2.69230769"></rect>
                                    </g>
                                    <g id="Group" opacity="0.2" transform="translate(26.873127, 30.969031)" fill="#FF1F00" fill-rule="nonzero">
                                        <rect id="Rectangle-path" x="0.0779220779" y="12.4285714" width="2.60539461" height="8.5994006"></rect>
                                        <rect id="Rectangle-path" x="5.11588412" y="6.26073926" width="2.60539461" height="14.7662338"></rect>
                                        <rect id="Rectangle-path" x="10.1538462" y="0.0939060939" width="2.60539461" height="20.9330669"></rect>
                                        <rect id="Rectangle-path" x="15.1918082" y="2.09190809" width="2.60539461" height="18.9360639"></rect>
                                        <rect id="Rectangle-path" x="20.2297702" y="7.998002" width="2.60539461" height="13.028971"></rect>
                                    </g>
                                    <g id="Group" opacity="0.2" transform="translate(66.433566, 26.473526)" fill="#FF1F00" fill-rule="nonzero">
                                        <rect id="Rectangle-path" x="0.03996004" y="0.0729270729" width="19.5434565" height="24.016983"></rect>
                                    </g>
                                    <path d="M99.6853147,43.6363636 C99.5604396,43.000999 99.3206793,42.3796204 99.3146853,41.7322677 C99.3056943,40.6813187 99.8651349,39.4605395 99.1298701,38.6843157 C98.962038,38.5074925 98.7372627,38.3756244 98.6123876,38.1688312 C98.5180931,37.9900484 98.4732582,37.7893259 98.4825175,37.5874126 C98.4705295,36.3616384 99.1458541,35.1168831 98.7412587,33.955045 C98.6622681,33.6943638 98.499297,33.4671175 98.2777223,33.3086913 C98.043956,33.1568432 97.7782218,33.1278721 97.4915085,33.1328671 C97.2327672,33.1328671 96.96004,33.1618382 96.6923077,33.1668332 C96.5408531,33.1669366 96.3900427,33.1471196 96.2437562,33.1078921 C95.9340659,33.01998 95.6713287,32.8171828 95.3646354,32.7172827 C95.2035014,32.6650361 95.0343968,32.6416996 94.8651349,32.6483516 C94.1938062,32.6263736 93.5804196,33.0729271 93.1028971,33.5054945 C92.8647709,33.7059218 92.6127227,33.8891993 92.3486513,34.0539461 C92.3886114,34.025974 91.4165834,34.6933067 91.7822178,34.7002997 C92.0434384,34.7079693 92.2959661,34.7958656 92.5054945,34.952048 C92.0522702,35.6513336 92.0923834,36.5610996 92.6053946,37.2177822 C92.4465534,37.0619381 92.2707293,36.8911089 92.0909091,36.7182817 C91.5554446,36.1918082 90.8071928,35.4855145 90.4555445,35.2927073 C89.8771229,34.982018 89.0509491,34.3066933 89.0509491,34.3066933 C89.0509491,34.3066933 87.977023,34.9060939 88.3076923,35.7382617 C88.4654627,35.7870718 88.6193977,35.8475105 88.7682318,35.9190809 C88.7683191,36.0296813 88.7896865,36.1392318 88.8311688,36.2417582 C89.1707999,36.3489537 89.492403,36.506556 89.7852148,36.7092907 C89.8183184,36.7552762 89.8489963,36.8029603 89.8771229,36.8521479 C90.01998,37.1018981 90.4645355,37.5564436 91.007992,38.0619381 C91.3896104,38.4445554 91.8921079,38.9020979 92.3926074,39.3426573 C92.2417582,39.6423576 92.0829171,39.9420579 92.0549451,40.2417582 C92.0163738,40.2265678 91.9786855,40.2092246 91.9420579,40.1898102 C91.1988012,39.7902098 89.4645355,39.8321678 89.4645355,39.8321678 C89.4645355,39.8321678 88.018981,39.0769231 87.7302697,37.3676324 C87.7302697,37.3676324 87.4415584,36.3336663 87.5234765,36.0559441 L87.5184815,36.0559441 L87.5554446,36.047952 L87.9020979,35.4195804 C87.9464263,35.3362391 87.9453867,35.2360875 87.8993379,35.1536843 C87.8532891,35.0712812 87.7685366,35.0179102 87.6743257,35.011988 C85.984016,34.8601399 85.9040959,36.4105894 85.9040959,36.4105894 L85.9190809,36.4105894 L85.9140859,36.4235764 C86.1208791,37.4175824 86.2857143,37.3376623 86.2447552,38.1328671 L86.9050949,39.8821179 C86.9050949,39.8821179 86.9460539,40.4815185 88.1438561,41.2737263 C89.3416583,42.0659341 90.7042957,43.3016983 90.7042957,43.3016983 C90.7042957,43.3016983 89.982018,43.6793207 90.2497502,45.4085914 C90.5774226,47.5224775 90.0849151,50.5374625 90.0849151,50.5374625 L90.0849151,52.4855145 L90.1768232,52.4605395 C90.1648352,52.5254745 90.1538462,52.5944056 90.1418581,52.6693307 C89.9893792,53.6482486 89.9702239,54.6433116 90.0849151,55.6273726 C90.3326673,57.6953047 91.3236763,60.5224775 91.3236763,60.5224775 C91.3236763,60.5224775 91.6953047,61.5164835 91.7782218,62.3116883 C91.7913259,62.46915 91.8269883,62.6239117 91.8841159,62.7712288 C92.0703259,63.2076218 92.1687691,63.6764153 92.1738262,64.1508492 C92.1702361,65.3425455 92.3859486,66.5247313 92.8101898,67.6383616 C93.2287712,68.7012987 93.3846154,69.3246753 93.4305694,69.6883117 C93.1308691,70.0759241 92.7452547,70.4985015 92.4385614,70.5404595 C91.8601399,70.6203796 90.7452547,70.6993007 91.4885115,71.6533467 C91.5142928,71.6862274 91.5430527,71.7166594 91.5744256,71.7442557 C91.00999,71.8341658 90.3896104,72.031968 90.993007,72.8061938 C91.7362637,73.7602398 96.1128871,73.3226773 96.1128871,73.3226773 C96.1128871,73.3226773 96.1408591,72.7922078 96.1128871,72.2097902 C96.4195804,72.1888112 96.6123876,72.1698302 96.6123876,72.1698302 C96.6123876,72.1698302 96.7362637,69.8641359 96.1998002,69.5854146 C96.1006227,69.5961577 96.0032475,69.6196621 95.9100899,69.6553447 C95.8521479,69.3366633 95.8101898,68.9400599 95.7802198,68.6473526 L95.993007,68.6313686 L95.993007,68.6153846 L96.005994,68.6153846 L96.005994,65.1408591 C96.005994,65.1408591 95.7582418,62.994006 94.8501499,62.043956 C94.7333627,61.9242998 94.6326191,61.7899751 94.5504496,61.6443556 L94.5384615,61.6193806 C94.5444555,61.3476523 94.5444555,60.981019 94.5384615,60.5604396 L94.5514486,60.5374625 C94.5674326,60.5114885 94.5834166,60.4885115 94.5984016,60.4675325 C94.6194179,60.4395506 94.6421031,60.4128621 94.6663337,60.3876124 L94.6793207,60.3706294 C94.6793207,60.3706294 95.1788212,59.7712288 96.8681319,55.997003 C97.9000999,53.6933067 97.6273726,52.4005994 97.2577423,51.7342657 C97.1798202,51.4345654 97.016983,50.7632368 96.8131868,49.6133866 C96.7296505,49.1254006 96.6898654,48.6309287 96.6943057,48.1358641 C96.9503155,48.1998196 97.2137046,48.2293836 97.4775225,48.2237762 C97.8915858,48.2330422 98.3020901,48.1454679 98.6763237,47.968032 C98.4065934,47.5744256 98.1248751,47.1128871 98.2607393,46.6603397 C98.4145854,46.1448551 99.023976,45.9080919 99.3756244,45.4925075 C99.7992008,44.99001 99.8101898,44.2727273 99.6853147,43.6363636 Z" id="Shape" fill="url(#linearGradient-2)" fill-rule="nonzero"></path>
                                    <path d="M89.2217782,34.7312687 C89.2217782,34.7312687 88.1968032,35.3226773 88.5124875,36.1508492 C88.5124875,36.1508492 89.5774226,36.4665335 90.010989,37.2547453 C90.4445554,38.042957 93.7962038,40.8821179 93.7962038,40.8821179 L96.2437562,39.6603397 C96.2437562,39.6603397 95.3936064,38.5254745 92.7042957,37.7322677 C92.7042957,37.7322677 91.1188811,36.033966 90.5664336,35.7172827 C90.013986,35.4005994 89.2217782,34.7312687 89.2217782,34.7312687 Z" id="Shape" fill="#797C9C" fill-rule="nonzero"></path>
                                    <path d="M89.7212787,35.2307692 C89.7212787,35.2307692 88.6963037,35.8221778 89.011988,36.6503497 C89.011988,36.6503497 90.0769231,36.966034 90.5104895,37.7542458 C90.9440559,38.5424575 94.2957043,41.3816184 94.2957043,41.3816184 L96.7432567,40.1598402 C96.7432567,40.1598402 95.8931069,39.024975 93.2037962,38.2317682 C93.2037962,38.2317682 91.6183816,36.5334665 91.0659341,36.2167832 C90.5134865,35.9000999 89.7212787,35.2307692 89.7212787,35.2307692 Z" id="Shape" fill="#000000" fill-rule="nonzero" opacity="0.05"></path>
                                    <path d="M1.56043956,64.3176823 C1.56043956,64.3176823 -4.1998002,67.7932068 6.41858142,73.1438561 C6.41858142,73.1438561 8.75824176,68.8001998 6.17182817,65.2587413 C5.13242361,63.8300271 3.18881011,63.4043118 1.64735265,64.2677323 L1.56043956,64.3176823 Z" id="Shape" fill="#FF1F00" fill-rule="nonzero"></path>
                                    <path d="M1.62637363,64.2437562 C1.62637363,64.2437562 6.55644356,68.014985 6.42157842,73.1428571" id="Shape" stroke="#535461"></path>
                                    <path d="M6.6973027,73.2067932 C6.6973027,73.2067932 4.89210789,67.0739261 7.03296703,62.5674326 C7.94425886,60.6811922 8.21908533,58.5502355 7.81618382,56.4945055 C7.61710187,55.5201841 7.32918559,54.566148 6.95604396,53.6443556" id="Shape" stroke="#535461" stroke-width="2"></path>
                                    <path d="M8.29270729,50.7902098 C8.29270729,51.5414585 6.93306693,53.7192807 6.93306693,53.7192807 C6.93306693,53.7192807 5.57342657,51.5414585 5.57342657,50.7902098 C5.57342657,50.0390253 6.18238193,49.4300699 6.93356643,49.4300699 C7.68475094,49.4300699 8.29370629,50.0390253 8.29370629,50.7902098 L8.29270729,50.7902098 Z" id="Shape" fill="#FF1F00" fill-rule="nonzero"></path>
                                    <path d="M10.5404595,54.954046 C10.1318681,55.5844156 7.80719281,56.6733267 7.80719281,56.6733267 C7.80719281,56.6733267 7.84915085,54.1058941 8.25774226,53.4765235 C8.52185468,53.0687553 8.98344635,52.8328643 9.46864016,52.8577083 C9.95383397,52.8825522 10.3889174,53.1643568 10.6099988,53.596969 C10.8310802,54.0295812 10.804572,54.5472768 10.5404595,54.955045 L10.5404595,54.954046 Z" id="Shape" fill="#FF1F00" fill-rule="nonzero"></path>
                                    <path d="M10.4425574,62.0629371 C9.77222777,62.4015984 7.21478521,62.1628372 7.21478521,62.1628372 C7.21478521,62.1628372 8.54745255,59.965035 9.21778222,59.6293706 C9.88841369,59.2911583 10.7062432,59.5606373 11.0444555,60.2312688 C11.3826678,60.9019002 11.1131889,61.7197297 10.4425574,62.0579421 L10.4425574,62.0629371 Z" id="Shape" fill="#FF1F00" fill-rule="nonzero"></path>
                                    <path d="M9.15684316,67.4255744 C8.55744256,67.8721279 5.99300699,68.0739261 5.99300699,68.0739261 C5.99300699,68.0739261 6.93506494,65.6853147 7.53946054,65.2387612 C7.93009709,64.9498437 8.44519584,64.8912749 8.89072408,65.0851173 C9.33625232,65.2789597 9.6445237,65.6957639 9.69941539,66.1785239 C9.75430707,66.6612839 9.54747971,67.1366568 9.15684316,67.4255744 Z" id="Shape" fill="#FF1F00" fill-rule="nonzero"></path>
                                    <path d="M4.95204795,56.8191808 C5.49050949,57.3426573 8.000999,57.8851149 8.000999,57.8851149 C8.000999,57.8851149 7.38661339,55.3876124 6.84715285,54.8681319 C6.49863152,54.5290686 5.99569644,54.4016952 5.52779838,54.5339919 C5.05990033,54.6662886 4.69812414,55.0381564 4.57874742,55.5095163 C4.4593707,55.9808763 4.60052961,56.4801176 4.94905095,56.8191808 L4.95204795,56.8191808 Z" id="Shape" fill="#FF1F00" fill-rule="nonzero"></path>
                                    <path d="M3.52747253,63.1098901 C4.1978022,63.4485514 6.75524476,63.2097902 6.75524476,63.2097902 C6.75524476,63.2097902 5.42257742,61.011988 4.75224775,60.6763237 C4.08161627,60.3381113 3.26378676,60.6075903 2.92557443,61.2782218 C2.58736209,61.9488533 2.85684105,62.7666828 3.52747253,63.1048951 L3.52747253,63.1098901 Z" id="Shape" fill="#FF1F00" fill-rule="nonzero"></path>
                                    <path d="M2.98301698,69.4135864 C3.58241758,69.8601399 6.14685315,70.0619381 6.14685315,70.0619381 C6.14685315,70.0619381 5.2047952,67.6733267 4.6003996,67.2267732 C3.99652781,66.7801453 3.14492958,66.9076167 2.6983017,67.5114885 C2.25167382,68.1153603 2.3791452,68.9669585 2.98301698,69.4135864 Z" id="Shape" fill="#FF1F00" fill-rule="nonzero"></path>
                                    <path d="M8.29270729,50.7902098 C8.29270729,51.5414585 6.93306693,53.7192807 6.93306693,53.7192807 C6.93306693,53.7192807 5.57342657,51.5414585 5.57342657,50.7902098 C5.57342657,50.0390253 6.18238193,49.4300699 6.93356643,49.4300699 C7.68475094,49.4300699 8.29370629,50.0390253 8.29370629,50.7902098 L8.29270729,50.7902098 Z" id="Shape" fill="#000000" fill-rule="nonzero" opacity="0.25"></path>
                                    <path d="M10.5404595,54.954046 C10.1318681,55.5844156 7.80719281,56.6733267 7.80719281,56.6733267 C7.80719281,56.6733267 7.84915085,54.1058941 8.25774226,53.4765235 C8.52185468,53.0687553 8.98344635,52.8328643 9.46864016,52.8577083 C9.95383397,52.8825522 10.3889174,53.1643568 10.6099988,53.596969 C10.8310802,54.0295812 10.804572,54.5472768 10.5404595,54.955045 L10.5404595,54.954046 Z" id="Shape" fill="#000000" fill-rule="nonzero" opacity="0.25"></path>
                                    <path d="M10.4425574,62.0629371 C9.77222777,62.4015984 7.21478521,62.1628372 7.21478521,62.1628372 C7.21478521,62.1628372 8.54745255,59.965035 9.21778222,59.6293706 C9.88841369,59.2911583 10.7062432,59.5606373 11.0444555,60.2312688 C11.3826678,60.9019002 11.1131889,61.7197297 10.4425574,62.0579421 L10.4425574,62.0629371 Z" id="Shape" fill="#000000" fill-rule="nonzero" opacity="0.25"></path>
                                    <path d="M9.15684316,67.4255744 C8.55744256,67.8721279 5.99300699,68.0739261 5.99300699,68.0739261 C5.99300699,68.0739261 6.93506494,65.6853147 7.53946054,65.2387612 C7.93009709,64.9498437 8.44519584,64.8912749 8.89072408,65.0851173 C9.33625232,65.2789597 9.6445237,65.6957639 9.69941539,66.1785239 C9.75430707,66.6612839 9.54747971,67.1366568 9.15684316,67.4255744 Z" id="Shape" fill="#000000" fill-rule="nonzero" opacity="0.25"></path>
                                    <path d="M4.95204795,56.8191808 C5.49050949,57.3426573 8.000999,57.8851149 8.000999,57.8851149 C8.000999,57.8851149 7.38661339,55.3876124 6.84715285,54.8681319 C6.49863152,54.5290686 5.99569644,54.4016952 5.52779838,54.5339919 C5.05990033,54.6662886 4.69812414,55.0381564 4.57874742,55.5095163 C4.4593707,55.9808763 4.60052961,56.4801176 4.94905095,56.8191808 L4.95204795,56.8191808 Z" id="Shape" fill="#000000" fill-rule="nonzero" opacity="0.25"></path>
                                    <path d="M3.52747253,63.1098901 C4.1978022,63.4485514 6.75524476,63.2097902 6.75524476,63.2097902 C6.75524476,63.2097902 5.42257742,61.011988 4.75224775,60.6763237 C4.08161627,60.3381113 3.26378676,60.6075903 2.92557443,61.2782218 C2.58736209,61.9488533 2.85684105,62.7666828 3.52747253,63.1048951 L3.52747253,63.1098901 Z" id="Shape" fill="#000000" fill-rule="nonzero" opacity="0.25"></path>
                                    <path d="M2.98301698,69.4135864 C3.58241758,69.8601399 6.14685315,70.0619381 6.14685315,70.0619381 C6.14685315,70.0619381 5.2047952,67.6733267 4.6003996,67.2267732 C3.99652781,66.7801453 3.14492958,66.9076167 2.6983017,67.5114885 C2.25167382,68.1153603 2.3791452,68.9669585 2.98301698,69.4135864 Z" id="Shape" fill="#000000" fill-rule="nonzero" opacity="0.25"></path>
                                    <path d="M10.8741259,73.3236763 C10.8741259,73.3236763 9.06893107,67.1948052 11.2127872,62.6843157 C12.124079,60.7980754 12.3989055,58.6671186 11.996004,56.6113886 C11.796922,55.6370672 11.5090058,54.6830311 11.1358641,53.7612388" id="Shape" stroke="#535461" stroke-width="2"></path>
                                    <path d="M12.4695305,50.9100899 C12.4695305,51.6613387 11.1098901,53.8391608 11.1098901,53.8391608 C11.1098901,53.8391608 9.75024975,51.6613387 9.75024975,50.9100899 C9.75024975,50.1589054 10.3592051,49.54995 11.1103896,49.54995 C11.8615741,49.54995 12.4705295,50.1589054 12.4705295,50.9100899 L12.4695305,50.9100899 Z" id="Shape" fill="#FF1F00" fill-rule="nonzero"></path>
                                    <path d="M14.7182817,55.0699301 C14.3096903,55.7002997 11.985015,56.7892108 11.985015,56.7892108 C11.985015,56.7892108 12.026973,54.2217782 12.4355644,53.5924076 C12.8438469,52.9620526 13.6858288,52.7820273 14.3161838,53.1903097 C14.9465388,53.5985921 15.1265641,54.4405741 14.7182817,55.0709291 L14.7182817,55.0699301 Z" id="Shape" fill="#FF1F00" fill-rule="nonzero"></path>
                                    <path d="M14.6193806,62.1788212 C13.9490509,62.5174825 11.3916084,62.2787213 11.3916084,62.2787213 C11.3916084,62.2787213 12.7242757,60.0809191 13.3946054,59.7452547 C13.8293202,59.5264697 14.3477336,59.5562216 14.7545644,59.8233031 C15.1613952,60.0903846 15.394836,60.5542198 15.366952,61.0400863 C15.339068,61.5259529 15.0540954,61.9600362 14.6193806,62.1788212 Z" id="Shape" fill="#FF1F00" fill-rule="nonzero"></path>
                                    <path d="M13.3336663,67.5424575 C12.7342657,67.989011 10.1698302,68.1908092 10.1698302,68.1908092 C10.1698302,68.1908092 11.1118881,65.8021978 11.7162837,65.3556444 C12.1069203,65.0667268 12.622019,65.008158 13.0675473,65.2020004 C13.5130755,65.3958428 13.8213469,65.812647 13.8762386,66.295407 C13.9311303,66.778167 13.7243029,67.25354 13.3336663,67.5424575 Z" id="Shape" fill="#FF1F00" fill-rule="nonzero"></path>
                                    <path d="M9.13086913,56.9350649 C9.66933067,57.4585415 12.1798202,58.000999 12.1798202,58.000999 C12.1798202,58.000999 11.5654346,55.5034965 11.025974,54.984016 C10.6774527,54.6449527 10.1745176,54.5175793 9.70661957,54.649876 C9.23872152,54.7821727 8.87694535,55.1540405 8.75756862,55.6254005 C8.6381919,56.0967604 8.7793508,56.5960017 9.12787213,56.9350649 L9.13086913,56.9350649 Z" id="Shape" fill="#FF1F00" fill-rule="nonzero"></path>
                                    <path d="M7.7042957,63.2257742 C8.37462537,63.5644356 10.9320679,63.3256743 10.9320679,63.3256743 C10.9320679,63.3256743 9.5994006,61.1278721 8.92907093,60.7922078 C8.25843945,60.4539955 7.44060994,60.7234744 7.1023976,61.3941059 C6.76418526,62.0647374 7.03366422,62.8825669 7.7042957,63.2207792 L7.7042957,63.2257742 Z" id="Shape" fill="#FF1F00" fill-rule="nonzero"></path>
                                    <path d="M7.15984016,69.5304695 C7.75924076,69.977023 10.3236763,70.1788212 10.3236763,70.1788212 C10.3236763,70.1788212 9.38161838,67.7902098 8.77722278,67.3436563 C8.17335099,66.8970285 7.32175275,67.0244998 6.87512488,67.6283716 C6.428497,68.2322434 6.55596837,69.0838417 7.15984016,69.5304695 Z" id="Shape" fill="#FF1F00" fill-rule="nonzero"></path>
                                    <rect id="Rectangle-path" fill="#FF1F00" fill-rule="nonzero" x="2.45154845" y="73.1098901" width="95.2047952" height="1"></rect>
                                    <rect id="Rectangle-path" fill="url(#linearGradient-3)" fill-rule="nonzero" x="69.7532468" y="34.048951" width="20.1768232" height="24.7952048"></rect>
                                    <rect id="Rectangle-path" fill="#FF1F00" fill-rule="nonzero" x="70.0699301" y="34.4385614" width="19.5434565" height="24.016983"></rect>
                                    <rect id="Rectangle-path" fill="#E8EAF1" fill-rule="nonzero" x="71.3826174" y="36.5464535" width="3.996004" height="3.996004"></rect>
                                    <rect id="Rectangle-path" fill="#E8EAF1" fill-rule="nonzero" x="73.3806194" y="42.9400599" width="14.1858142" height="1"></rect>
                                    <rect id="Rectangle-path" fill="#E8EAF1" fill-rule="nonzero" x="73.3806194" y="44.6383616" width="14.1858142" height="1"></rect>
                                    <rect id="Rectangle-path" fill="#E8EAF1" fill-rule="nonzero" x="73.3806194" y="46.3366633" width="14.1858142" height="1"></rect>
                                    <rect id="Rectangle-path" fill="#E8EAF1" fill-rule="nonzero" x="73.3806194" y="48.034965" width="14.1858142" height="1"></rect>
                                    <rect id="Rectangle-path" fill="#E8EAF1" fill-rule="nonzero" x="73.3806194" y="49.7332667" width="14.1858142" height="1"></rect>
                                    <rect id="Rectangle-path" fill="#E8EAF1" fill-rule="nonzero" x="73.3806194" y="51.4315684" width="14.1858142" height="1"></rect>
                                    <rect id="Rectangle-path" fill="#E8EAF1" fill-rule="nonzero" x="73.3806194" y="53.1298701" width="14.1858142" height="1"></rect>
                                    <path d="M95.6093906,68.3616384 C95.6093906,68.3616384 95.7272727,70.0959041 95.9250749,70.2937063 C96.1228771,70.4915085 94.1508492,70.6093906 94.1508492,70.6093906 L94.4265734,68.3616384 L95.6093906,68.3616384 Z" id="Shape" fill="#FFB9B9" fill-rule="nonzero"></path>
                                    <path d="M95.6093906,68.3616384 C95.6093906,68.3616384 95.7272727,70.0959041 95.9250749,70.2937063 C96.1228771,70.4915085 94.1508492,70.6093906 94.1508492,70.6093906 L94.4265734,68.3616384 L95.6093906,68.3616384 Z" id="Shape" fill="#000000" fill-rule="nonzero" opacity="0.05"></path>
                                    <path d="M96.043956,69.7022977 C96.043956,69.7022977 95.7682318,69.7022977 94.7822178,70.2147852 C94.7822178,70.2147852 94.1118881,70.0969031 93.8361638,69.1498501 C93.8361638,69.1498501 93.007992,70.5694306 92.4565435,70.6483516 C91.9050949,70.7272727 90.8401598,70.8061938 91.5494505,71.7522478 C92.2587413,72.6983017 96.4385614,72.2647353 96.4385614,72.2647353 C96.4385614,72.2647353 96.5554446,69.978022 96.043956,69.7022977 Z" id="Shape" fill="#E4E2F3" fill-rule="nonzero"></path>
                                    <path d="M96.043956,69.7022977 C96.043956,69.7022977 95.7682318,69.7022977 94.7822178,70.2147852 C94.7822178,70.2147852 94.1118881,70.0969031 93.8361638,69.1498501 C93.8361638,69.1498501 93.007992,70.5694306 92.4565435,70.6483516 C91.9050949,70.7272727 90.8401598,70.8061938 91.5494505,71.7522478 C92.2587413,72.6983017 96.4385614,72.2647353 96.4385614,72.2647353 C96.4385614,72.2647353 96.5554446,69.978022 96.043956,69.7022977 Z" id="Shape" fill="#000000" fill-rule="nonzero" opacity="0.05"></path>
                                    <path d="M95.4515485,71.042957 L95.1758242,71.7922078 L93.3626374,71.2797203 L93.4625375,70.5364635 L93.4875125,70.3566434 L93.5564436,69.8571429 C93.5564436,69.8571429 95.0939061,69.4625375 95.0939061,69.6573427 C95.1142821,69.819933 95.1476896,69.9806233 95.1938062,70.1378621 C95.2567433,70.3806194 95.3356643,70.6563437 95.3936064,70.8371628 C95.4275724,70.964036 95.4515485,71.042957 95.4515485,71.042957 Z" id="Shape" fill="#FFB9B9" fill-rule="nonzero"></path>
                                    <path d="M94.4615385,60.7602398 C94.2608059,61.0990398 94.2608059,61.5203408 94.4615385,61.8591409 C94.5390661,62.0015199 94.6344047,62.1334496 94.7452547,62.2517483 C95.6123876,63.1978022 95.8491508,65.3266733 95.8491508,65.3266733 L95.8491508,68.7562438 L95.2577423,68.8011988 L94.3116883,68.8741259 L92.8921079,63.038961 C92.8921079,63.038961 92.0639361,58.7812188 92.4585415,58.031968 C92.8531469,57.2827173 93.2077922,52.5914086 93.2077922,52.5914086 L93.5354645,52.2527473 L94.3116883,51.4485514 L96.5594406,51.4485514 C96.7392896,51.5774023 96.8886593,51.7441644 96.997003,51.9370629 C97.3746254,52.5614386 97.7132867,53.8601399 96.6783217,56.2577423 C95.0619381,60.002997 94.5884116,60.5944056 94.5884116,60.5944056 C94.5398849,60.6446215 94.4973126,60.7002673 94.4615385,60.7602398 Z" id="Shape" fill="#4C4C78" fill-rule="nonzero"></path>
                                    <path d="M94.4745255,60.7432567 C94.273793,61.0820568 94.273793,61.5033578 94.4745255,61.8421578 C94.5520531,61.9845368 94.6473917,62.1164666 94.7582418,62.2347652 C95.6253746,63.1808192 95.8621379,65.3096903 95.8621379,65.3096903 L95.8621379,68.7392607 L95.2707293,68.7842158 L94.3246753,68.8571429 L92.9050949,63.021978 C92.9050949,63.021978 92.0769231,58.7642358 92.4715285,58.014985 C92.8661339,57.2657343 93.2207792,52.5744256 93.2207792,52.5744256 L93.5484515,52.2357642 L94.3246753,51.4315684 L96.5724276,51.4315684 C96.7522766,51.5604193 96.9016463,51.7271814 97.00999,51.9200799 C97.3876124,52.5444555 97.7262737,53.8431568 96.6913087,56.2407592 C95.0749251,59.986014 94.6013986,60.5774226 94.6013986,60.5774226 C94.552872,60.6276385 94.5102996,60.6832843 94.4745255,60.7432567 Z" id="Shape" fill="#000000" fill-rule="nonzero" opacity="0.05"></path>
                                    <path d="M95.1978022,70.1428571 L93.4905095,70.3566434 L93.5594406,69.8571429 C93.5594406,69.8571429 95.0969031,69.4625375 95.0969031,69.6573427 C95.1173412,69.8216448 95.1510851,69.9840163 95.1978022,70.1428571 Z" id="Shape" fill="#000000" fill-rule="nonzero" opacity="0.1"></path>
                                    <path d="M94.3456543,55.7062937 C94.3456543,55.7062937 94.4455544,58.8101898 94.4595405,60.7602398 C94.4595405,61.2017982 94.4595405,61.5834166 94.4595405,61.8591409 C94.4617971,62.0039946 94.4510985,62.14876 94.4275724,62.2917083 C94.3096903,62.6463536 94.5454545,63.4345654 94.5454545,63.4345654 C95.1370562,64.9926652 95.3791918,66.6616954 95.2547453,68.3236763 L95.2547453,70.0579421 L93.3626374,70.2947053 C93.3626374,70.2947053 93.6783217,70.0579421 92.8101898,67.7712288 C92.4042808,66.6634798 92.1982864,65.4924575 92.2017982,64.3126873 C92.1972253,63.843052 92.1033134,63.3785779 91.9250749,62.9440559 C91.8708614,62.7975604 91.8372407,62.6442499 91.8251748,62.4885115 C91.7462537,61.7002997 91.3916084,60.7142857 91.3916084,60.7142857 C91.3916084,60.7142857 90.4455544,57.9170829 90.2087912,55.8651349 C90.0994522,54.8892178 90.1179231,53.9032053 90.2637363,52.9320679 C90.2985136,52.685391 90.3458612,52.4406502 90.4055944,52.1988012 C90.4055944,52.1988012 94.2597403,49.7732268 95.7152847,51.4495504 C95.8554544,51.6136737 95.9666052,51.8005015 96.043956,52.001998 C96.1238486,52.2009278 96.1860279,52.4065206 96.2297702,52.6163836 C96.6823177,54.8391608 94.3456543,55.7062937 94.3456543,55.7062937 Z" id="Shape" fill="#4C4C78" fill-rule="nonzero"></path>
                                    <circle id="Oval" fill="#FFB9B9" fill-rule="nonzero" cx="94.2287712" cy="36.4275724" r="2.01098901"></circle>
                                    <path d="M93.1248751,37.6883117 C93.1248751,37.6883117 93.953047,40.013986 93.1248751,41.2367632 C92.2967033,42.4595405 95.7662338,42.0649351 95.7662338,42.0649351 L97.1068931,40.4485514 C97.1068931,40.4485514 95.5294705,40.4485514 95.4505495,37.6883117 C95.3716284,34.9280719 93.1248751,37.6883117 93.1248751,37.6883117 Z" id="Shape" fill="#FFB9B9" fill-rule="nonzero"></path>
                                    <path d="M97.1068931,52.3946054 C96.821169,52.4933798 96.5273374,52.5669213 96.2287712,52.6143856 C95.7382617,52.6903097 95.1588412,52.6933067 94.8201798,52.3946054 C94.6203796,52.2177822 94.1208791,52.1948052 93.5304695,52.2527473 C92.2787213,52.3726274 90.5854146,52.8391608 90.2617383,52.9310689 C90.2965156,52.684392 90.3438632,52.4396512 90.4035964,52.1978022 C90.4035964,52.1978022 94.2577423,49.7722278 95.7132867,51.4485514 L96.5544456,51.4485514 C96.7342946,51.5774023 96.8836643,51.7441644 96.992008,51.9370629 C97.0649351,52.2507493 97.1068931,52.3946054 97.1068931,52.3946054 Z" id="Shape" fill="#000000" fill-rule="nonzero" opacity="0.1"></path>
                                    <path d="M95.4515485,71.042957 L95.1758242,71.7922078 L93.3626374,71.2797203 L93.4625375,70.5364635 C93.7742258,71.2257742 94.3056943,71.3196803 94.3056943,71.3196803 C94.6519322,71.1281308 95.015111,70.9689474 95.3906094,70.8441558 C95.4275724,70.964036 95.4515485,71.042957 95.4515485,71.042957 Z" id="Shape" fill="#000000" fill-rule="nonzero" opacity="0.1"></path>
                                    <path d="M95.5694306,70.8461538 C95.5694306,70.8461538 95.2937063,70.8461538 94.3076923,71.3586414 C94.3076923,71.3586414 93.6373626,71.2407592 93.3616384,70.2937063 C93.3616384,70.2937063 92.5334665,71.7132867 91.982018,71.7922078 C91.4305694,71.8711289 90.3656344,71.95005 91.0749251,72.8961039 C91.7842158,73.8421578 95.964036,73.4085914 95.964036,73.4085914 C95.964036,73.4085914 96.0819181,71.1218781 95.5694306,70.8461538 Z" id="Shape" fill="#E4E2F3" fill-rule="nonzero"></path>
                                    <path d="M86.2157842,36.8121878 C86.2157842,36.8121878 86.2927073,35.2767233 87.9060939,35.4265734 C87.9966355,35.4357606 88.076812,35.4890333 88.1203627,35.5689428 C88.1639133,35.6488523 88.165228,35.7451047 88.1238761,35.8261738 L87.7932068,36.4485514 L86.2157842,36.8121878 Z" id="Shape" fill="#FFB9B9" fill-rule="nonzero"></path>
                                    <path d="M95.5304695,40.9210789 C95.5304695,40.9210789 93.5984016,40.6053946 93.0859141,40.2117882 C93.0859141,40.2117882 92.6913087,40.961039 91.982018,40.5664336 C91.2727273,40.1718282 89.6163836,40.2117882 89.6163836,40.2117882 C88.7378575,39.6736299 88.1341708,38.7826642 87.96004,37.7672328 C87.96004,37.7672328 87.6843157,36.7422577 87.7602398,36.4685315 C87.7602398,36.4685315 86.7352647,35.4035964 86.2227772,36.8231768 C86.4225774,37.8091908 86.5774226,37.7302697 86.5384615,38.5214785 L87.1688312,40.2557443 C87.1688312,40.2557443 87.2077922,40.8471528 88.3516484,41.6353646 C89.4955045,42.4235764 90.7962038,43.6463536 90.7962038,43.6463536 C90.7962038,43.6463536 90.1058941,44.020979 90.3626374,45.7362637 C90.6763237,47.8341658 90.2047952,50.8221778 90.2047952,50.8221778 L90.2047952,52.7542458 C90.2047952,52.7542458 94.1478521,51.6113886 94.8171828,52.2017982 C95.4865135,52.7922078 97.1038961,52.2017982 97.1038961,52.2017982 C97.1038961,52.2017982 96.9040959,51.5314685 96.6303696,49.9150849 C96.3566434,48.2987013 96.6693307,46.7182817 96.6693307,46.7182817 C96.6693307,46.7182817 97.6943057,43.998002 98.1678322,42.8941059 C98.6413586,41.7902098 97.8131868,40.2967033 96.985015,39.7402597 C96.1568432,39.1838162 95.8491508,39.5194805 95.8491508,39.5194805 C95.8491508,39.5194805 97.3046953,40.5664336 95.5304695,40.9210789 Z" id="Shape" fill="#797C9C" fill-rule="nonzero"></path>
                                    <path d="M90.4645355,46.7407108 C90.4645355,46.7407108 90.7792208,46.6393896 92.3556444,46.3234275 C93.9320679,46.0074654 96.6923077,46.7447103 96.6923077,46.7447103" id="Shape" fill="#000000" fill-rule="nonzero" opacity="0.05"></path>
                                    <path d="M91.8271728,35.1248751 C92.7262737,35.1438561 93.3916084,36.2527473 92.993007,37.0529471 C92.8181818,37.4045954 92.4795205,37.7142857 92.5144855,38.1048951 C92.5304695,38.2827173 92.6253746,38.4435564 92.6663337,38.6173826 C92.8551449,39.4165834 91.8991009,40.1648352 92.1178821,40.954046 C92.1925667,41.1656778 92.3087194,41.3602844 92.4595405,41.5264735 L94.1198801,43.6183816 C94.2207029,43.7335079 94.3041681,43.8627443 94.3676324,44.001998 C94.4309127,44.2002583 94.4553353,44.4088681 94.4395604,44.6163836 C94.4315684,45.6153846 94.4965035,46.6873127 95.0859141,47.4975025 C95.7942058,48.4705295 97.2377622,48.8201798 98.3116883,48.2777223 C98.0539461,47.8871129 97.7852148,47.4295704 97.9120879,46.979021 C98.0589411,46.4685315 98.6403596,46.2327672 98.976024,45.8211788 C99.3816184,45.3216783 99.3916084,44.6123876 99.2757243,43.982018 C99.1598402,43.3516484 98.9270729,42.7352647 98.9220779,42.0939061 C98.9140859,41.0519481 99.4475524,39.8411588 98.7452547,39.0719281 C98.5844156,38.8961039 98.3706294,38.7662338 98.2507493,38.5604396 C98.1604127,38.3818476 98.1177422,38.182948 98.1268731,37.983017 C98.1158841,36.7682318 98.7602398,35.5324675 98.3736264,34.3806194 C98.2999291,34.1243235 98.1445289,33.899116 97.9310689,33.7392607 C97.3836164,33.3706294 96.6243756,33.7282717 95.991009,33.5394605 C95.6913087,33.4525475 95.4445554,33.2507493 95.1518482,33.1518482 C94.3626374,32.8851149 93.6323676,33.4205794 93.0869131,33.9340659 C92.8601313,34.1322175 92.6194196,34.3138363 92.3666334,34.4775225 C92.4055944,34.4565435 91.4775225,35.1178821 91.8271728,35.1248751 Z" id="Shape" fill="#000000" fill-rule="nonzero" opacity="0.1"></path>
                                    <path d="M91.9270729,35.1248751 C92.8261738,35.1438561 93.4915085,36.2527473 93.0929071,37.0529471 C92.9180819,37.4045954 92.5794206,37.7142857 92.6143856,38.1048951 C92.6303696,38.2827173 92.7252747,38.4435564 92.7662338,38.6173826 C92.955045,39.4165834 91.999001,40.1648352 92.2177822,40.954046 C92.2924668,41.1656778 92.4086195,41.3602844 92.5594406,41.5264735 L94.2197802,43.6183816 C94.320603,43.7335079 94.4040682,43.8627443 94.4675325,44.001998 C94.5308128,44.2002583 94.5552354,44.4088681 94.5394605,44.6163836 C94.5314685,45.6153846 94.5964036,46.6873127 95.1858142,47.4975025 C95.8941059,48.4705295 97.3376623,48.8201798 98.4115884,48.2777223 C98.1538462,47.8871129 97.8851149,47.4295704 98.011988,46.979021 C98.1588412,46.4685315 98.7402597,46.2327672 99.0759241,45.8211788 C99.4815185,45.3216783 99.4915085,44.6123876 99.3756244,43.982018 C99.2597403,43.3516484 99.026973,42.7352647 99.021978,42.0939061 C99.013986,41.0519481 99.5474525,39.8411588 98.8451548,39.0719281 C98.6843157,38.8961039 98.4705295,38.7662338 98.3506494,38.5604396 C98.2603128,38.3818476 98.2176423,38.182948 98.2267732,37.983017 C98.2157842,36.7682318 98.8601399,35.5324675 98.4735265,34.3806194 C98.3998292,34.1243235 98.244429,33.899116 98.030969,33.7392607 C97.4835165,33.3706294 96.7242757,33.7282717 96.0909091,33.5394605 C95.7912088,33.4525475 95.5444555,33.2507493 95.2517483,33.1518482 C94.4625375,32.8851149 93.7322677,33.4205794 93.1868132,33.9340659 C92.9600314,34.1322175 92.7193197,34.3138363 92.4665335,34.4775225 C92.5054945,34.4565435 91.5774226,35.1178821 91.9270729,35.1248751 Z" id="Shape" fill="#B36362" fill-rule="nonzero"></path>
                                    <path d="M61.7462537,54.1408591 C61.5176464,53.9272036 61.3190372,53.6835629 61.1558442,53.4165834 C60.8101898,52.8731269 60.2317682,52.5804196 59.8351648,52.4345654 L59.8351648,52.2577423 L59.8591409,52.2577423 L59.8481518,52.0939061 L59.8591409,52.0939061 L59.8311688,51.6603397 L59.6903097,49.4945055 C59.6903097,49.4945055 59.1808192,48.042957 60.0799201,46.7142857 C60.979021,45.3856144 60.1358641,44.1108891 59.2907093,43.6123876 C59.2907093,43.6123876 58.8911089,41.5074925 59.2347652,41.008991 C58.7754753,40.7424596 58.3019025,40.5013377 57.8161838,40.2867133 C57.8088578,40.2607393 57.8018648,40.2340992 57.7952048,40.2067932 C57.7862138,40.006993 57.7742258,39.8141858 57.7632368,39.6183816 C57.7747754,39.5172845 57.7934704,39.4171331 57.8191808,39.3186813 C57.8301698,39.2777223 57.8421578,39.2357642 57.8551449,39.1928072 C58.6831187,38.8717614 59.2303715,38.0768381 59.2347652,37.1888112 C59.2349467,36.9350474 59.1896067,36.6833087 59.1008991,36.4455544 C59.1447186,36.3718512 59.1783257,36.2925384 59.2007992,36.2097902 C59.2451431,35.9707171 59.1973143,35.7237205 59.0669331,35.5184815 C58.8431568,35.018981 58.2787213,34.5624376 57.8681319,34.3956044 C57.2817183,34.1558442 56.3986014,34.2127872 55.7882118,34.2857143 C55.4455544,34.3266733 55.0539461,34.4425574 54.9300699,34.7592408 C54.8972063,34.8792109 54.8711903,35.0009525 54.8521479,35.1238761 C54.7242757,35.6073926 54.1698302,35.8331668 53.8271728,36.2027972 C53.5274725,36.5294705 53.3916084,36.971029 53.2937063,37.4015984 C53.0124673,38.6353654 52.9448878,39.9082247 53.0939061,41.1648352 C53.1288711,41.4545455 53.1748252,41.7422577 53.2237762,42.02997 C53.017982,42.3196803 52.8321678,42.8291708 52.9170829,43.7282717 L52.2407592,46.9410589 L51.959041,48.8241758 C51.8817603,49.3585278 52.0713917,49.8968123 52.4665335,50.2647353 C52.8981019,50.6883117 53.4215784,51.4045954 53.7442557,51.8691309 C53.6036002,52.2799176 53.5340052,52.711677 53.5384615,53.1458541 C53.5454545,53.3456543 53.5564436,53.5344655 53.5704296,53.7162837 C53.5994134,54.0995265 53.6718049,54.4782411 53.7862138,54.8451548 C53.8651349,55.6183816 54.021978,56.6073926 54.3276723,57.2427572 L54.4405594,60.6213786 C54.4405594,60.6213786 54.2717283,63.7232767 53.9330669,64.3326673 C53.5944056,64.9420579 54.6663337,70.0939061 54.6663337,70.0939061 L54.6663337,70.8141858 L54.4855145,71.3416583 L54.4405594,71.3076923 C53.5944056,72.3606394 54.4405594,72.7482517 54.4405594,72.7482517 C54.4405594,72.7482517 54.6703297,72.7592408 55.03996,72.7732268 C54.9752953,73.0762565 55.123562,73.3847005 55.4005994,73.5234765 C55.4005994,73.5234765 60.1958042,73.7452547 61.040959,73.5234765 C61.8861139,73.3016983 61.6613387,72.5244755 61.2097902,72.5814186 C60.9813105,72.5894068 60.753092,72.5593603 60.5344655,72.4925075 C60.7982018,72.1838162 60.5874126,71.7652348 60.2517483,71.8061938 C59.8001998,71.8611389 58.7852148,71.4595405 58.7852148,71.4595405 L58.7852148,71.4665335 C58.7526381,71.4542742 58.7192599,71.4442608 58.6853147,71.4365634 C58.3082191,71.3508105 57.9357687,71.2457775 57.5694306,71.1218781 C57.3516484,70.6553447 56.8501499,69.4005994 57.2097902,68.4245754 C57.3726274,67.985015 57.4255744,67.3996004 57.4255744,66.8321678 C57.4341322,65.1213267 57.6840139,63.4202481 58.1678322,61.7792208 L58.8441558,59.4545455 C58.8441558,59.4545455 59.8031968,56.6293706 59.8591409,55.8581419 L59.8511489,54.7272727 C60.6443556,55.2377622 61.2737263,55.0829171 61.6763237,54.8461538 C61.7986258,54.7763842 61.8795443,54.6516829 61.8934368,54.5115665 C61.9073294,54.3714501 61.852474,54.2332868 61.7462537,54.1408591 Z M54.2187812,48.2647353 C54.2377622,48.1838162 54.2537463,48.0949051 54.2677323,48.001998 C54.4009324,48.001998 54.5341325,48.001998 54.6673327,48.001998 C54.8323277,48.3402013 54.9014329,48.7171704 54.8671329,49.0919081 C54.5614386,48.992008 54.1038961,48.7542458 54.2187812,48.2647353 Z" id="Shape" fill="url(#linearGradient-4)" fill-rule="nonzero"></path>
                                    <path d="M54.7552448,70.5554446 L54.5384615,71.2067932 L55.2437562,71.9120879 L57.5774226,72.4545455 L59.2597403,72.2917083 L59.1508492,71.6923077 C59.0850365,71.4309507 58.8788194,71.2282027 58.6163836,71.1668332 C57.9250749,71.003996 56.6063936,70.6343656 56.3286713,70.1188811 L54.7552448,70.5554446 Z" id="Shape" fill="#DB8B8B" fill-rule="nonzero"></path>
                                    <path d="M54.7552448,70.5554446 L54.5384615,71.2067932 L55.2437562,71.9120879 L57.5774226,72.4545455 L59.2597403,72.2917083 L59.1508492,71.6923077 C59.0850365,71.4309507 58.8788194,71.2282027 58.6163836,71.1668332 C57.9250749,71.003996 56.6063936,70.6343656 56.3286713,70.1188811 L54.7552448,70.5554446 Z" id="Shape" fill="#000000" fill-rule="nonzero" opacity="0.1"></path>
                                    <path d="M58.7172827,72.1298701 L58.3916084,71.6953047 L58.7172827,71.1958042 C58.7172827,71.1958042 59.6943057,71.5904096 60.1278721,71.5354645 C60.5614386,71.4805195 60.7792208,72.2407592 59.965035,72.4585415 C59.1508492,72.6763237 54.5374625,72.4585415 54.5374625,72.4585415 C54.5374625,72.4585415 53.7232767,72.0789211 54.5374625,71.047952 L55.2427572,71.5904096 C55.2427572,71.5904096 56.4415584,72.2417582 57.033966,72.1328671 L58.7172827,72.1298701 Z" id="Shape" fill="#474463" fill-rule="nonzero"></path>
                                    <path d="M60.1798202,73.0519481 L58.4975025,73.2147852 L56.1658342,72.6683317 L55.4605395,71.969031 L55.5184815,71.7962038 L55.5994006,71.5544456 L55.6783217,71.3176823 L57.2517483,70.8831169 C57.3315073,71.0131376 57.4406591,71.1226316 57.5704296,71.2027972 C58.0819181,71.5524476 59,71.8021978 59.5384615,71.9310689 C59.5611637,71.9363407 59.5835175,71.9430135 59.6053946,71.951049 C59.8372131,72.028841 60.0134325,72.2193688 60.0729271,72.4565435 L60.1798202,73.0519481 Z" id="Shape" fill="#DB8B8B" fill-rule="nonzero"></path>
                                    <path d="M60.1798202,73.0519481 L58.4975025,73.2147852 L56.1658342,72.6683317 L55.4605395,71.969031 L55.5184815,71.7962038 L56.1668332,72.2957043 C56.1668332,72.2957043 57.3656344,72.9470529 57.958042,72.8381618 L59.6403596,72.8381618 L59.3146853,72.4035964 L59.6073926,71.952048 C59.8392111,72.02984 60.0154305,72.2203678 60.0749251,72.4575425 L60.1798202,73.0519481 Z" id="Shape" fill="#000000" fill-rule="nonzero" opacity="0.1"></path>
                                    <path d="M59.6393606,72.8891109 L59.3136863,72.4545455 L59.6393606,71.955045 C59.6393606,71.955045 60.6163836,72.3496503 61.04995,72.2947053 C61.4835165,72.2397602 61.7012987,73 60.8871129,73.2177822 C60.0729271,73.4355644 55.4595405,73.2177822 55.4595405,73.2177822 C55.4595405,73.2177822 54.6453546,72.8381618 55.4595405,71.8071928 L56.1648352,72.3496503 C56.1648352,72.3496503 57.3636364,73.000999 57.956044,72.8921079 L59.6393606,72.8891109 Z" id="Shape" fill="#474463" fill-rule="nonzero"></path>
                                    <path d="M58.2817183,41.4115884 C58.2817183,41.4115884 55.6763237,41.6833167 56.0569431,40.5974026 C56.1629509,40.289694 56.1904224,39.9603804 56.1368631,39.6393606 C56.0692682,39.2411685 55.9117625,38.8636331 55.6763237,38.5354645 L58.1188811,38.9150849 C57.9726539,39.1598046 57.8613538,39.4237641 57.7882118,39.6993007 C57.4975025,40.8511489 58.2817183,41.4115884 58.2817183,41.4115884 Z" id="Shape" fill="#DB8B8B" fill-rule="nonzero"></path>
                                    <path d="M53.8321678,53.7872128 C53.8321678,53.7872128 53.8861139,56.1208791 54.4315684,57.2607393 L54.5404595,60.5714286 C54.5404595,60.5714286 54.3776224,63.6103896 54.0519481,64.2077922 C53.7262737,64.8051948 54.7572428,69.8521479 54.7572428,69.8521479 L54.7572428,70.7202797 C54.7572428,70.7202797 56.4915085,71.3696304 56.983017,70.6103896 L56.4945055,64.1518482 L56.7112887,55.1968032 L53.8321678,53.7872128 Z" id="Shape" fill="#474463" fill-rule="nonzero"></path>
                                    <path d="M53.8321678,53.7872128 C53.8321678,53.7872128 53.8861139,56.1208791 54.4315684,57.2607393 L54.5404595,60.5714286 C54.5404595,60.5714286 54.3776224,63.6103896 54.0519481,64.2077922 C53.7262737,64.8051948 54.7572428,69.8521479 54.7572428,69.8521479 L54.7572428,70.7202797 C54.7572428,70.7202797 56.4915085,71.3696304 56.983017,70.6103896 L56.4945055,64.1518482 L56.7112887,55.1968032 L53.8321678,53.7872128 Z" id="Shape" fill="#000000" fill-rule="nonzero" opacity="0.1"></path>
                                    <path d="M52.7472527,46.2947053 L52.4215784,47.1628372 L52.1498501,49.007992 C52.0755625,49.5294664 52.2574745,50.054742 52.6383616,50.4185814 C53.2897103,51.0699301 54.1578422,52.4265734 54.1578422,52.4265734 L55.1888112,49.3296703 C55.1888112,49.3296703 54.1578422,49.1668332 54.3206793,48.4615385 C54.4835165,47.7562438 54.4295704,46.4535465 54.4295704,46.4535465 L52.7472527,46.2947053 Z" id="Shape" fill="#CBCDDA" fill-rule="nonzero"></path>
                                    <path d="M52.7472527,46.1948052 L52.4215784,47.0629371 L52.1498501,48.9080919 C52.0755625,49.4295663 52.2574745,49.9548419 52.6383616,50.3186813 C53.2897103,50.97003 54.1578422,52.3266733 54.1578422,52.3266733 L55.1888112,49.2297702 C55.1888112,49.2297702 54.1578422,49.0669331 54.3206793,48.3616384 C54.4835165,47.6563437 54.4295704,46.3536464 54.4295704,46.3536464 L52.7472527,46.1948052 Z" id="Shape" fill="#000000" fill-rule="nonzero" opacity="0.05"></path>
                                    <path d="M57.5704296,71.2007992 C56.8711289,72.2997003 55.7912088,71.6753247 55.5984016,71.5514486 L55.6773227,71.3146853 L57.2507493,70.8801199 C57.3306684,71.0106181 57.4401813,71.1204733 57.5704296,71.2007992 Z" id="Shape" fill="#000000" fill-rule="nonzero" opacity="0.1"></path>
                                    <path d="M59.7482517,55.9020979 C59.6943057,56.6623377 58.7712288,59.4295704 58.7712288,59.4295704 L58.1208791,61.7072927 C57.6543637,63.3179293 57.4136391,64.9855186 57.4055944,66.6623377 C57.4055944,67.2177822 57.3546454,67.7912088 57.1978022,68.2217782 C56.7632368,69.4205794 57.6323676,71.043956 57.6323676,71.043956 C56.8721279,72.4005994 55.5704296,71.4785215 55.5704296,71.4785215 L55.5704296,70.6103896 C55.5704296,70.6103896 54.5394605,65.8891109 54.8101898,64.966034 C55.0809191,64.042957 55.1898102,61.5464535 55.1898102,61.5464535 L55.1898102,57.041958 C54.3203291,56.1755672 53.791621,55.0252457 53.7002997,53.8011988 C53.6873127,53.6233766 53.6773227,53.4365634 53.6703297,53.2427572 C53.6263736,52.017982 54.4635365,50.5824176 54.7902098,50.0709291 C54.8691309,49.9470529 54.9180819,49.8781219 54.9180819,49.8781219 L59.7132867,51.7762238 L59.7242757,51.7762238 L59.7242757,51.962038 L59.7242757,52.3726274 L59.7482517,55.9020979 Z" id="Shape" fill="#474463" fill-rule="nonzero"></path>
                                    <path d="M58.1198801,38.9150849 C57.9736529,39.1598046 57.8623528,39.4237641 57.7892108,39.6993007 C57.2532379,39.9030517 56.6576527,39.8814334 56.1378621,39.6393606 C56.0702672,39.2411685 55.9127615,38.8636331 55.6773227,38.5354645 L58.1198801,38.9150849 Z" id="Shape" fill="#000000" fill-rule="nonzero" opacity="0.1"></path>
                                    <circle id="Oval" fill="#DB8B8B" fill-rule="nonzero" cx="57.033966" cy="37.6123876" r="2.11688312"></circle>
                                    <path d="M59.7482517,52.3746254 L59.7252747,52.3746254 C57.4495504,52.8421578 54.5924076,50.4705295 54.5924076,50.4705295 C54.6694959,50.3428368 54.7363066,50.2092154 54.7922078,50.0709291 C54.8711289,49.9470529 54.9200799,49.8781219 54.9200799,49.8781219 L59.7152847,51.7762238 L59.7272727,51.966034 L59.7482517,52.3746254 Z" id="Shape" fill="#000000" fill-rule="nonzero" opacity="0.1"></path>
                                    <path d="M59.1508492,41.3566434 C59.1508492,41.3566434 56.1118881,39.5114885 55.1348651,40.2707293 L53.7782218,42.006993 C53.7782218,42.006993 52.9100899,42.2787213 53.0729271,44.014985 L52.4215784,47.1628372 L54.3756244,47.6513487 C54.3756244,47.6513487 55.5154845,48.7372627 54.5924076,50.3106893 C54.5924076,50.3106893 57.4685315,52.6983017 59.7482517,52.2087912 L59.5804196,49.6603397 C59.5804196,49.6603397 59.0919081,48.2497502 59.96004,46.9470529 C60.8281718,45.6443556 60.013986,44.3966034 59.1998002,43.9080919 C59.2057942,43.9080919 58.8251748,41.8451548 59.1508492,41.3566434 Z" id="Shape" fill="#CBCDDA" fill-rule="nonzero"></path>
                                    <path d="M59.3136863,52.4285714 C59.3136863,52.4285714 60.4535465,52.6453546 60.996004,53.5144855 C61.1527074,53.7754126 61.3439105,54.0139963 61.5644356,54.2237762 C61.6647101,54.3152336 61.7159947,54.4486157 61.7028212,54.583693 C61.6896477,54.7187704 61.6135584,54.8397303 61.4975025,54.9100899 C61.0669331,55.1688312 60.3646354,55.3286713 59.4775225,54.5994006 C57.957043,53.3516484 59.3136863,52.4285714 59.3136863,52.4285714 Z" id="Shape" fill="#DB8B8B" fill-rule="nonzero"></path>
                                    <path d="M57.6313686,42.3886114 C57.6313686,42.3886114 56.5454545,42.2797203 56.2747253,45.1018981 C56.003996,47.9240759 55.5694306,48.5754246 55.5694306,48.5754246 C55.5694306,48.5754246 55.2977023,50.040959 55.9490509,50.9090909 C56.6003996,51.7772228 57.8471528,53.6223776 57.8471528,53.6223776 C57.8471528,53.6223776 59.2037962,54.001998 59.4755245,52.6453546 L57.7932068,49.4975025 C57.7932068,49.4975025 57.5214785,48.4115884 58.1728272,47.6523477 C58.8241758,46.8931069 59.3136863,41.8451548 57.6313686,42.3886114 Z" id="Shape" fill="#000000" fill-rule="nonzero" opacity="0.1"></path>
                                    <path d="M57.7402597,42.2257742 C57.7402597,42.2257742 56.6543457,42.1168831 56.3836164,44.9390609 C56.1128871,47.7612388 55.6783217,48.4125874 55.6783217,48.4125874 C55.6783217,48.4125874 55.4065934,49.8781219 56.0579421,50.7462537 C56.7092907,51.6143856 57.956044,53.4595405 57.956044,53.4595405 C57.956044,53.4595405 59.3126873,53.8391608 59.5844156,52.4825175 L57.9020979,49.3346653 C57.9020979,49.3346653 57.6313686,48.2497502 58.2817183,47.4935065 C58.9320679,46.7372627 59.4225774,41.6823177 57.7402597,42.2257742 Z" id="Shape" fill="#CBCDDA" fill-rule="nonzero"></path>
                                    <path d="M58.6353646,44.2607393 C58.6353646,44.2607393 58.7442557,45.9430569 58.2557443,46.8661339 C57.7672328,47.7892108 57.7672328,48.983017 58.2557443,49.6343656" id="Shape" fill="#000000" fill-rule="nonzero" opacity="0.1"></path>
                                    <path d="M58.9070929,42.1988012 C58.9070929,42.1988012 58.4725275,41.7642358 57.2247752,41.7102897 C55.977023,41.6563437 55.4335664,41.2757243 55.4335664,41.2757243" id="Shape" fill="#000000" fill-rule="nonzero" opacity="0.1"></path>
                                    <path d="M55.8841159,34.8771229 C55.5544456,34.9180819 55.1778222,35.030969 55.0589411,35.3406593 C55.0273149,35.4583827 55.0023008,35.5777834 54.984016,35.6983017 C54.8611389,36.1728272 54.3276723,36.3976024 53.998002,36.7552448 C53.7072927,37.0749251 53.5794206,37.5074925 53.4845155,37.9300699 C53.2143162,39.1397405 53.1498107,40.3862837 53.2937063,41.6173826 C53.3996004,42.5164835 53.6163836,43.4035964 53.6763237,44.3076923 C53.7362637,45.2117882 53.6263736,46.1628372 53.1318681,46.9220779 C52.9190809,47.2487512 52.6393606,47.5354645 52.4885115,47.8951049 C52.8001998,48.1478521 53.2287712,48.1838162 53.6303696,48.1948052 C54.0965701,48.2107892 54.5627706,48.2107892 55.028971,48.1948052 C55.2737263,48.1868132 55.5284715,48.1708292 55.7412587,48.046953 C55.897495,47.9473785 56.0260197,47.8099189 56.1148851,47.6473526 C56.3816184,47.1938062 56.4495504,46.6483516 56.4375624,46.1238761 C56.4255744,45.5994006 56.3426573,45.0759241 56.3376623,44.5494505 C56.3326673,44.2627373 56.3546454,43.959041 56.5194805,43.7242757 C56.6383616,43.5544456 56.8191808,43.4405594 56.974026,43.3036963 C57.5554446,42.7892108 57.7542458,41.963037 57.7732268,41.1868132 C57.7922078,40.4105894 57.6643357,39.6333666 57.7302697,38.8601399 C57.7562438,38.5604396 57.8691309,38.1938062 58.1668332,38.1348651 C58.2622558,38.1309663 58.357172,38.1189347 58.4505495,38.0989011 C58.6893107,38.006993 58.6663337,37.6703297 58.7342657,37.4235764 C58.8111888,37.1468531 59.046953,36.9330669 59.1138861,36.6533467 C59.2697303,35.997003 58.4345654,35.2127872 57.8871129,34.984016 C57.3246753,34.7492507 56.4755245,34.8061938 55.8841159,34.8771229 Z" id="Shape" fill="#000000" fill-rule="nonzero" opacity="0.1"></path>
                                    <path d="M55.8341658,34.7682318 C55.5044955,34.8091908 55.1278721,34.9220779 55.008991,35.2317682 C54.9773649,35.3494916 54.9523508,35.4688923 54.9340659,35.5894106 C54.8111888,36.0639361 54.2777223,36.2887113 53.9480519,36.6463536 C53.6573427,36.966034 53.5294705,37.3986014 53.4345654,37.8211788 C53.1643661,39.0308494 53.0998606,40.2773926 53.2437562,41.5084915 C53.3496503,42.4075924 53.5664336,43.2947053 53.6263736,44.1988012 C53.6863137,45.1028971 53.5764236,46.0539461 53.0819181,46.8131868 C52.8691309,47.1398601 52.5894106,47.4265734 52.4385614,47.7862138 C52.7502498,48.038961 53.1788212,48.0749251 53.5804196,48.0859141 C54.04662,48.1018981 54.5128205,48.1018981 54.979021,48.0859141 C55.2237762,48.0779221 55.4785215,48.0619381 55.6913087,47.9380619 C55.8475449,47.8384874 55.9760696,47.7010278 56.0649351,47.5384615 C56.3316683,47.0849151 56.3996004,46.5394605 56.3876124,46.014985 C56.3756244,45.4905095 56.2927073,44.967033 56.2877123,44.4405594 C56.2827173,44.1538462 56.3046953,43.8501499 56.4695305,43.6153846 C56.5884116,43.4455544 56.7692308,43.3316683 56.9240759,43.1948052 C57.5054945,42.6803197 57.7042957,41.8541459 57.7232767,41.0779221 C57.7422577,40.3016983 57.6143856,39.5244755 57.6803197,38.7512488 C57.7062937,38.4515485 57.8191808,38.0849151 58.1168831,38.025974 C58.2123058,38.0220752 58.307222,38.0100436 58.4005994,37.99001 C58.6393606,37.8981019 58.6163836,37.5614386 58.6843157,37.3146853 C58.7612388,37.037962 58.997003,36.8241758 59.0639361,36.5444555 C59.2197802,35.8881119 58.3846154,35.1038961 57.8371628,34.8751249 C57.2707293,34.6403596 56.4215784,34.6963037 55.8341658,34.7682318 Z" id="Shape" fill="#472727" fill-rule="nonzero"></path>
                                </g>
                            </g>
                        </g>
                    </g>
                </g>
            </g>
        </g>
    </g>
</svg>