<?xml version="1.0" encoding="UTF-8"?>
<svg width="100px" height="77px" viewBox="0 0 100 77" version="1.1" xmlns="http://www.w3.org/2000/svg" xmlns:xlink="http://www.w3.org/1999/xlink">
    <!-- Generator: Sketch 50.2 (55047) - http://www.bohemiancoding.com/sketch -->
    <title>undraw_High_five_u364 (1)</title>
    <desc>Created with Sketch.</desc>
    <defs>
        <linearGradient x1="50.0049089%" y1="100.006199%" x2="50.0049089%" y2="0.00039645933%" id="linearGradient-1">
            <stop stop-color="#808080" stop-opacity="0.25" offset="0%"></stop>
            <stop stop-color="#808080" stop-opacity="0.12" offset="54%"></stop>
            <stop stop-color="#808080" stop-opacity="0.1" offset="100%"></stop>
        </linearGradient>
    </defs>
    <g id="Page-1" stroke="none" stroke-width="1" fill="none" fill-rule="evenodd">
        <g id="Home-Copy-2" transform="translate(-126.000000, -1693.000000)">
            <g id="Group-9" transform="translate(95.000000, 1520.000000)">
                <g id="Group-6" transform="translate(0.000000, 135.000000)">
                    <g id="Group-4">
                        <g id="Group-34">
                            <g id="Group-12">
                                <g id="undraw_High_five_u364-(1)" transform="translate(31.000000, 38.000000)">
                                    <path d="M23.7835952,63.0927012 C22.9428434,63.0076369 22.0645052,62.9166379 21.2682638,63.1391899 C20.4720225,63.3617418 19.8122796,64.0115934 20.0486793,64.6327606 C20.5768692,66.0175281 23.6767702,65.0531364 25.1060482,65.999724 C25.6164339,66.3380029 25.815247,66.8701493 26.2138622,67.2855796 C26.8587683,67.9601592 27.9675714,68.2746993 29.0377989,68.4477952 C35.4670769,69.48736 42.7964537,66.8117912 48.4314686,69.388448 C50.2563944,70.223265 51.6955635,71.5516528 53.6965526,72.1085271 C56.3473934,72.8464104 59.2504597,72.058082 61.9932885,71.5526419 C65.4139899,70.9275524 68.9008481,70.7447159 72.3681649,71.0086261 C74.9329522,71.20645 78.344426,71.272721 79.1653954,69.4102086 C79.6935853,68.2123847 78.57588,66.8790514 77.0922005,66.3122858 C75.608521,65.7455202 73.8716268,65.7633244 72.2148514,65.817726 C69.0170274,65.9324638 65.8182144,66.1639178 62.6203904,66.0511582 C56.4364142,65.8315736 50.5946733,63.3805351 44.5729127,63.2994272 C37.5600541,63.214363 30.8290947,63.8028892 23.7835952,63.0927012 Z" id="Shape" fill="#FF1F00" fill-rule="nonzero" opacity="0.1"></path>
                                    <path d="M17.049456,32.0880317 C16.0603363,33.0880317 16,34.6211672 16,34.6211672 C16,34.6211672 17.5321464,34.5341246 18.5173096,33.5331355 C19.5024728,32.5321464 19.5677547,31 19.5677547,31 C19.5677547,31 18.0346192,31.0900099 17.049456,32.0880317 Z" id="Shape" fill="#FF1F00" fill-rule="nonzero" opacity="0.1"></path>
                                    <path d="M21.0975529,7.71711177 C21.4467121,9.07715134 22.7276221,9.92284866 22.7276221,9.92284866 C22.7276221,9.92284866 23.4427556,8.56478734 23.0935964,7.20474777 C22.7444371,5.84470821 21.4635271,5 21.4635271,5 C21.4635271,5 20.7444371,6.35806133 21.0975529,7.71711177 Z" id="Shape" fill="#FF1F00" fill-rule="nonzero" opacity="0.1"></path>
                                    <path d="M79.0504451,11.0890208 C78.0613254,12.0890208 78,13.6221563 78,13.6221563 C78,13.6221563 79.5331355,13.5351137 80.5182987,12.5341246 C81.5034619,11.5331355 81.5677547,10 81.5677547,10 C81.5677547,10 80.0356083,10.0939664 79.0504451,11.0890208 Z" id="Shape" fill="#FF1F00" fill-rule="nonzero" opacity="0.1"></path>
                                    <path d="M49.0097796,25.4470821 C48.8950417,26.8456973 49.8277816,28.0642928 49.8277816,28.0642928 C49.8277816,28.0642928 50.9484542,27.0148368 51.0631921,25.6152324 C51.17793,24.2156281 50.2451901,23 50.2451901,23 C50.2451901,23 49.1245175,24.0474777 49.0097796,25.4470821 Z" id="Shape" fill="#FF1F00" fill-rule="nonzero" opacity="0.1"></path>
                                    <path d="M81.0097796,44.4480712 C80.8950417,45.8466864 81.8277816,47.0652819 81.8277816,47.0652819 C81.8277816,47.0652819 82.9484542,46.0158259 83.0631921,44.6172107 C83.17793,43.2185955 82.2451901,42 82.2451901,42 C82.2451901,42 81.1245175,43.049456 81.0097796,44.4480712 Z" id="Shape" fill="#FF1F00" fill-rule="nonzero" opacity="0.1"></path>
                                    <path d="M58.0172216,9.53346565 C51.615639,9.34058731 45.5187053,7.55522628 39.6967468,5.59676931 C33.8747883,3.63831234 28.1082206,1.47312935 21.8599516,0.436531922 C17.8411583,-0.230134745 13.2447191,-0.324101115 10.0073304,1.54038949 C6.89061426,3.33366347 5.88369042,6.4305972 5.34264196,9.30398988 C4.93512465,11.4652164 4.69575768,13.7401917 5.81148469,15.7639305 C6.58695452,17.1694696 7.96183088,18.3504785 8.91336401,19.6956813 C12.2239476,24.379163 9.88369042,30.1536437 6.29714245,34.7303005 C4.61563899,36.8757011 2.66212761,38.9212006 1.36341347,41.2050779 C0.0646993251,43.4889553 -0.535696323,46.1041877 0.600802194,48.4325754 C1.72642039,50.7411808 4.40990209,52.4751076 7.31692484,53.6946922 C13.2209802,56.1674914 20.1754807,56.8806467 26.9618309,57.2822293 C41.979635,58.172437 57.0765688,57.7866803 72.1339377,57.4009236 C77.706638,57.2584904 83.3030772,57.1140789 88.7847785,56.3682827 C91.8292888,55.9548306 94.9717221,55.2980552 97.1824046,53.7115072 C99.987548,51.6976595 100.682899,48.288164 98.8025826,45.7629414 C95.6492691,41.5285201 86.9331464,40.4760967 84.7264204,35.9310918 C83.5137597,33.4296081 84.7590613,30.6432579 86.5226617,28.3227832 C90.3050554,23.3455329 96.6443235,18.9785695 96.9776568,13.288164 C97.2071326,9.38114122 94.1596548,5.46818375 89.4474886,3.61951906 C84.5088141,1.68084448 77.6591603,1.92515705 74.0172216,5.13287218 C70.2635124,8.43158632 63.6700406,9.70260512 58.0172216,9.53346565 Z" id="Shape" fill="#FF1F00" fill-rule="nonzero" opacity="0.1"></path>
                                    <path d="M79.556381,27.9874084 C79.2798642,28.0581089 79.0540139,28.2571073 78.9490615,28.5225222 L78.8501495,28.5066963 L78.4812079,28.4473491 C78.4812079,28.4473491 76.5267074,28.2861226 76.1617222,28.3108506 C75.7967371,28.3355786 75.5682504,27.975539 75.5682504,27.975539 L74.1152336,26.7460632 L74.0024739,26.6471513 C74.159744,26.5878041 74.2576668,26.5571414 74.2576668,26.5571414 C74.2576668,26.5571414 70.358557,21.7104549 69.5178053,21.6164886 C68.6770536,21.5225222 67.2873404,20.3909693 67.2734927,20.380089 L67.2586559,20.3029376 C67.2279932,20.1397329 67.2052435,19.9745499 67.1884284,19.8083778 L67.3951545,19.9349851 C67.3951545,19.8776162 67.3951545,19.8202472 67.4010892,19.7628783 C67.4319505,19.1647291 67.6338064,18.5879981 67.9826916,18.1011572 C68.3892197,17.537359 68.9906045,17.0942334 69.2309606,16.4443817 C69.3267589,16.1649214 69.3700193,15.8701472 69.358557,15.5749455 C69.3647004,15.043164 69.2243997,14.519945 68.953018,14.0625815 C68.6732122,13.6001232 68.2087234,13.2796619 67.6770536,13.182265 C67.5385768,13.1605044 67.3971327,13.157537 67.2606342,13.1258852 C66.4485669,12.9349851 66.1498528,11.8459643 65.3605353,11.578902 C64.9925828,11.4542729 64.5830872,11.5363699 64.2279932,11.6906725 C63.8728993,11.8449752 63.5514354,12.066538 63.2042544,12.2376557 C62.8570734,12.4087734 62.4634037,12.5343916 62.1478745,12.776726 C62.1152336,12.8014539 62.0806144,12.8311275 62.0489626,12.8617902 L61.986648,12.9221265 C61.8564162,13.0543052 61.7431179,13.2021579 61.6493582,13.3622848 L61.6345214,13.3870128 C61.6246302,13.4038278 61.6157282,13.421632 61.6068261,13.4394361 C61.597924,13.4572403 61.5919893,13.4671315 61.5860546,13.4809792 C61.5801198,13.4948268 61.5702286,13.512631 61.5633048,13.5284569 L61.5425333,13.5759347 L61.5247291,13.6214342 C61.5187944,13.6382492 61.5118706,13.6550642 61.506925,13.6728684 C61.5019794,13.6906725 61.4970338,13.7015529 61.4930773,13.7163897 L61.4782405,13.768813 L61.4693384,13.8113451 C61.4693384,13.8291493 61.4624146,13.8479426 61.4594472,13.8657467 C61.4564799,13.8835509 61.4594472,13.892453 61.4594472,13.9053115 C61.4594472,13.9181701 61.4594472,13.9428981 61.4594472,13.9616913 C61.4594472,13.9804846 61.4594472,13.9864193 61.4594472,13.9982888 C61.4594472,14.0101582 61.4594472,14.0378536 61.4594472,14.0586251 C61.4594472,14.0793966 61.4594472,14.0784075 61.4594472,14.0882987 C61.463279,14.1173783 61.4692295,14.1461393 61.4772514,14.1743521 C61.5306639,14.3563501 61.7146401,14.5423046 61.8550951,14.7045202 C61.8392692,14.719357 61.8234433,14.7332047 61.8076174,14.7490306 C61.133003,15.3991591 60.7519866,16.2958155 60.7522267,17.2327101 C60.7523844,17.4387426 60.7712551,17.6443349 60.8086065,17.8469535 C60.6288272,17.7111627 60.4355977,17.5941644 60.2319497,17.4977942 C59.5620722,17.1766479 58.8294154,17.0077552 58.0865491,17.0032344 C56.8748775,16.9893867 55.1726025,16.5343916 55.1726025,16.5343916 C55.2160663,16.6174359 55.2492803,16.7054529 55.2715145,16.7965083 C55.1973305,16.7539762 55.1172118,16.7084767 55.0291802,16.660999 C54.3195176,16.279986 53.5502246,16.02244 52.7542049,15.8993768 C52.7542049,15.8993768 52.2497539,15.9696043 52.1824937,14.9102571 C52.1593879,14.5792595 52.0996764,14.2518413 52.0044522,13.933996 C51.714898,12.9651449 51.5142656,11.9719155 51.4050457,10.9666369 L51.2359062,9.41174079 C51.2359062,9.41174079 51.9975284,5.35635009 51.5395659,3.62736888 C51.6869448,3.0853313 51.6038587,2.58879322 51.118201,2.23172101 C49.2022761,0.821236342 47.2695363,6.31085058 47.2695363,6.31085058 L46.5514354,7.00817996 C46.3672433,6.88812099 46.1594931,6.80886563 45.9421376,6.77573684 C45.9421376,6.77573684 45.5553919,7.17138471 45.2863513,8.2515034 C45.1439181,8.8242037 44.1706243,9.78068243 43.2903078,10.5512067 C42.6651841,11.0981899 42.0618211,11.6669337 41.4594472,12.2376557 C41.0143434,12.660999 40.0222563,13.2663402 37.8580625,13.6085756 C37.5187944,13.6619881 37.2101891,13.7124332 36.92829,13.7589218 C37.0003283,13.5033477 37.0369378,13.2390935 37.0370931,12.9735608 C37.0301669,11.5969904 36.0707321,10.4087862 34.7265096,10.1120375 C34.7363976,10.0428208 34.7363976,9.97255 34.7265096,9.90333328 C34.6900231,9.75439789 34.6145789,9.61784729 34.5079141,9.5076854 C34.0519299,8.94388718 33.5573701,8.36426305 32.878834,8.09720073 C32.5990335,7.98837017 32.2993218,7.94016008 31.9995066,7.95575662 L31.8491604,7.95575662 C31.8184977,7.95575662 31.7888241,7.95575662 31.7581614,7.95575662 C31.1109462,7.99158858 30.5105132,8.30441922 30.110288,8.8143125 C29.8669646,9.13973288 29.7205748,9.52548956 29.5108815,9.87267057 C29.1211683,10.5155984 28.5217618,11.0111473 27.8719102,11.4028387 C27.4812079,11.6392383 27.0707232,11.842997 26.7017816,12.1110484 C25.3635026,13.0833531 24.746292,14.8805835 25.0825926,16.4869139 C25.2309606,17.1921562 25.5445115,17.8865182 25.4604364,18.6016518 C25.3941653,19.1565479 25.0954512,19.6550642 24.7908023,20.1258852 C24.4861535,20.5967062 24.1637005,21.0754401 24.0430279,21.620445 C23.9223553,22.16545 24.0489626,22.8073887 24.5059359,23.1377546 C24.6740862,23.2584272 24.8778449,23.3355786 25.0212672,23.4819683 C25.1166718,23.5947646 25.1965134,23.7198499 25.2586559,23.8538773 C25.7489915,24.7397073 26.580806,25.3859989 27.5603375,25.6422057 C27.7140651,25.6814776 27.8725775,25.6987941 28.0311584,25.6936399 L28.0479735,25.6936399 L28.0786362,25.6936399 C28.4416431,25.7163897 28.8135521,25.6194559 28.9352138,25.297992 C28.9536734,25.2249267 28.9812558,25.1544752 29.0173107,25.0882987 C29.0514705,25.0389553 29.1024714,25.0037823 29.1607331,24.9893867 C29.277749,25.016118 29.3905632,25.0587145 29.4960447,25.115994 C30.0027522,25.3787991 30.5570572,25.53722 31.1261139,25.5818694 C31.2212037,25.5894578 31.3166741,25.5911095 31.4119695,25.586815 C31.6099988,25.605338 31.8096045,25.5768713 31.994561,25.5037289 C32.1724373,25.4134422 32.3260853,25.2818408 32.4426322,25.1199505 C32.4683493,25.0873095 32.4920882,25.0526903 32.5168162,25.0210385 C32.3861328,25.8109997 32.1401872,26.5774968 31.7868459,27.2960138 C31.7868459,27.2960138 31.193374,28.2851335 31.2359062,29.2821661 C31.2130638,29.6454127 31.2900254,30.0079872 31.4584581,30.330633 C31.4584581,30.330633 31.4752732,30.2871117 31.5098923,30.2188625 C31.6800209,30.5037289 32.2378844,31.4147082 32.6038587,31.7341938 C32.6216629,32.6748466 32.6177064,33.8528882 32.5000011,34.0952225 C32.3021772,34.5096636 31.6770536,37.4582294 34.3654809,39.4691097 L34.9856589,40.8271711 L32.432741,41.00818 C32.1745808,40.9725717 28.8363018,40.5235113 28.8194868,41.1773194 C28.8026718,41.8568447 29.3239378,48.4740553 31.0548973,48.0259841 C32.6681515,47.6085756 32.1360051,45.6788031 32.0558864,45.4196538 L32.1132554,45.4038278 L32.0499517,45.3860237 L33.3407529,44.1624826 C33.3650859,44.0135273 33.3295301,43.8609932 33.2418409,43.7381503 L33.2546995,43.7312265 L36.3724047,43.8706923 L37.1053424,45.463175 C37.1053424,45.463175 38.3486658,47.3543719 37.3407529,48.9458654 C36.3328399,50.537359 35.2903078,53.0259841 35.1221574,54.5353808 C34.9846698,55.7698021 34.0707232,56.9824629 33.7433246,57.3820672 C33.1587549,57.5798911 30.9164205,58.4602077 31.8115738,59.7925519 C32.8363018,61.3177744 36.1637005,64.2208407 37.5089032,64.1209396 C38.854106,64.0210385 38.3150358,63.0427992 38.3150358,63.0427992 L37.1904067,61.9527893 C37.1904067,61.9527893 36.9925828,59.6303362 37.0727014,58.950811 C37.1162227,58.5976953 36.8560842,58.3434915 36.5781416,58.2356775 C36.6839774,57.4790009 36.9520288,56.0447774 37.5276965,55.2524925 C38.333829,54.140722 40.9223553,49.248536 40.9223553,49.248536 C40.9223553,49.248536 41.7453028,48.5185657 41.5603375,46.3464589 C41.4861535,45.4700989 41.4446104,44.7005637 41.4208716,44.0922551 L44.3506441,44.2238081 C44.3506441,44.2238081 47.4930773,43.9082789 45.358557,40.5413155 C43.2240368,37.1743521 38.6869448,33.8746488 38.6869448,33.8746488 L38.6463909,31.7905736 C38.8521278,31.8420079 38.9728004,31.867725 38.9728004,31.867725 C38.9728004,31.867725 38.9549962,31.7925519 38.9253226,31.6580316 L38.9728004,31.6689119 C38.9728004,31.6689119 38.317014,28.8311275 38.1152336,26.5749455 L38.300199,26.6600098 C40.2497539,28.9161918 41.5642939,27.0091691 41.5642939,27.0091691 C41.5642939,27.0091691 45.6819992,21.2208407 45.2784383,21.4859248 C45.1940383,21.5277568 45.0963432,21.5338182 45.0074195,21.5027398 L45.3041555,20.5571414 C45.3041555,20.5571414 46.5197835,18.6995746 44.755194,17.6550642 C43.3150358,16.8024431 43.3526223,19.4750445 43.4149369,20.4849356 L43.3437202,20.4245993 C43.3437202,20.4245993 41.9658765,22.5017507 41.226015,23.6590207 C40.4861535,24.8162907 39.8649863,24.0546686 39.8649863,24.0546686 L38.9302682,23.0012561 C39.0837862,22.5792304 39.1591994,22.1327841 39.1528201,21.6837487 C39.1940863,21.0501592 38.964333,20.4288546 38.5207727,19.9745499 C37.8076174,19.2475469 37.5989131,18.5432937 37.5771525,18.0012561 C37.5841657,17.7204246 37.6477479,17.4438922 37.7640961,17.1881997 L42.6216629,14.6164886 C42.6216629,14.6164886 43.6463909,14.6323145 45.0242346,12.5096636 C45.9171733,11.1520873 46.8999139,9.85575524 47.9658765,8.62934712 C47.9658765,8.62934712 47.937192,8.5878041 47.8877361,8.51955484 C47.937192,8.46119678 47.9658765,8.42954495 47.9658765,8.42954495 C47.9658765,8.42954495 47.9094967,8.34744801 47.8135521,8.22084069 L48.5623157,7.35733921 C48.5386665,7.74761064 48.535695,8.13886042 48.5534136,8.52944604 L48.9411485,9.84002962 L49.1587549,17.1367655 C49.1587549,17.1367655 48.9233444,17.8291493 50.4366975,18.5304352 C51.7166184,19.123907 53.7443137,20.1130266 54.3358073,20.404817 C54.3140466,20.4582294 54.3011881,20.4869139 54.3011881,20.4869139 L54.4772514,20.4750445 L54.5029685,20.4869139 C57.4594472,20.2218298 57.358557,23.1733629 57.358557,23.1733629 C57.358557,23.1733629 57.556381,29.1773194 56.6533147,31.2673293 C55.7502484,33.3573392 55.8798231,35.9438872 55.8798231,35.9438872 C55.8798231,35.9438872 55.969833,35.5027398 56.4732949,36.0793966 C56.4634037,36.1298417 56.4525234,36.1842433 56.440654,36.2406231 C56.151831,37.6877052 55.5504463,40.7658456 55.4386757,42.0141147 C55.3155788,43.1516453 55.0961967,44.276682 54.7828894,45.3771216 L54.4861535,50.8993768 L56.3763612,50.9913649 L56.3555897,51.1891889 C56.334628,51.3927407 56.2147612,51.5729109 56.0351149,51.6708901 C55.3882306,52.0220276 53.8590516,53.2534816 53.9817024,57.0536795 L53.9164205,57.6649554 C53.8117325,58.7001802 53.4977633,59.7033339 52.9935719,60.6135212 C52.9500506,60.6906725 52.9114749,60.7648565 52.878834,60.8360731 C52.8837863,60.7960724 52.901877,60.7588472 52.9302682,60.7302373 C52.9302682,60.7302373 51.9480724,60.933996 52.1498528,63.5878041 C52.3516332,66.2416122 52.6543038,66.7055093 53.0578647,66.7381503 C53.4614255,66.7707912 55.4317519,67.2524925 55.3259161,66.2742532 C55.2200803,65.2960138 55.1280921,63.1229178 55.2586559,62.7915628 C55.3892197,62.4602077 55.9253226,61.5660435 55.4169151,61.3504154 C55.5643444,60.7417315 55.6357756,60.1171235 55.6295758,59.4908704 C55.6295758,59.4908704 56.6186955,57.9320177 57.3259161,57.3514045 C58.0331367,56.7707912 58.4139477,55.7846389 58.6701297,54.5155984 C58.6879339,54.4325123 60.7542049,53.0556577 60.4505452,51.9122354 C60.3971327,51.7144114 60.358557,51.5393372 60.3288834,51.3810781 C60.3160249,51.3108506 60.3051446,51.2445796 60.2952534,51.1832541 L60.3318508,51.1832541 L60.7522267,48.6619881 L60.7522267,51.1169831 L61.0014848,51.1496241 L60.9925828,51.347448 L60.8867469,53.7015529 C60.8675598,54.1600609 60.7670874,54.6115167 60.590011,55.0348862 C60.1449072,56.0882987 59.3239378,58.4335014 59.5474789,60.9696043 L59.52374,63.2307319 C59.4525234,63.2445796 58.4258172,63.4869139 58.6206738,66.049723 C58.8184977,68.702542 59.1241357,69.1674282 59.5276965,69.2000692 C59.9312573,69.2327101 61.9015837,69.7144114 61.7967371,68.736172 C61.6918904,67.7579327 61.5989131,65.5848367 61.7294769,65.2534816 C61.8600407,64.9221265 62.0954512,64.0457665 61.5870437,63.8301384 C61.5896905,63.5329402 61.6621999,63.2405307 61.7987153,62.9765281 C62.0202781,62.5996735 62.7601396,60.8083778 63.317014,59.4305341 C63.8863198,58.0359938 64.2028299,56.5512432 64.2517321,55.0457665 C64.2517321,55.0289515 64.2517321,55.0121364 64.2517321,54.9953214 C64.2666994,54.4874327 64.3756958,53.9867202 64.573196,53.5185657 C64.8008675,52.9947477 64.9809537,52.4515098 65.1112771,51.8954203 C65.1251248,51.8291493 65.1360051,51.7648565 65.1458963,51.6975964 L65.6285867,51.7618892 L67.2764601,44.6303362 C67.2764601,44.6303362 67.7274987,40.7648565 67.506925,39.0190603 C67.4980229,38.9468545 67.4881317,38.8805835 67.4762623,38.8162907 L67.5751742,38.8251928 C67.5751742,38.8251928 67.9114749,37.9636696 67.8105847,34.281177 C67.7096945,30.5986844 68.4831861,29.4344905 68.4831861,29.4344905 C68.9005946,28.1110484 69.3615244,27.6679228 69.6305649,27.5195548 C69.6997973,27.4754191 69.7790889,27.4495557 69.8610298,27.4443817 L71.1083098,28.8716814 L71.3377855,29.1347873 C71.3382773,29.1295234 71.3382773,29.1242252 71.3377855,29.1189614 L71.4366975,29.2346884 C71.4291511,29.1759927 71.4265044,29.1167707 71.4287845,29.0576359 C72.0944621,29.4443817 73.6325432,30.3484371 74.5504463,30.9972996 C75.7472811,31.842997 76.0756688,31.744085 77.1221574,31.6560534 C77.7571723,31.60363 78.6157282,31.2475469 79.1913958,30.9765281 L79.2438192,30.9518001 C79.3987192,31.0344742 79.5618164,31.1007739 79.730466,31.1496241 C79.730466,31.1496241 81.4198825,32.5808803 81.5830872,29.9686152 C81.746292,27.3563501 79.556381,27.9874084 79.556381,27.9874084 Z M35.738379,58.4087734 C35.5663603,58.3575819 35.4005062,58.2875915 35.2438192,58.2000692 L35.738379,58.4087734 Z M33.0936906,30.1318199 L33.0996906,30.5027398 L33.0736906,30.5146092 C33.0816906,30.3840454 33.0876906,30.2554599 33.0936906,30.1318199 Z M59.5171292,63.239634 L59.5171292,63.3840454 C59.4787698,63.3433848 59.4787698,63.2802946 59.5171292,63.239634 Z" id="Shape" fill="url(#linearGradient-1)" fill-rule="nonzero"></path>
                                    <rect id="Rectangle-path" fill="#FF7590" fill-rule="nonzero" x="62" y="20" width="2.86844708" height="3.01681503"></rect>
                                    <path d="M58.7882295,54.3857567 C58.5360039,55.6468843 58.1621167,56.6271019 57.4697329,57.2047478 C56.7773492,57.7823937 55.8050445,59.3313551 55.8050445,59.3313551 C55.7882295,61.3916914 55.2442136,62.0178042 55.2442136,62.0178042 L54.6833828,62.1661721 L53.2986152,62.1661721 C53.2986152,62.1661721 53.0513353,61.4737883 53.0018793,61.0623145 C52.9850643,60.9248269 53.0829871,60.694362 53.2194856,60.4470821 C53.7144812,59.5406667 54.0222568,58.5440119 54.1245302,57.5163205 L54.1888229,56.9080119 C54.0721068,53.132542 55.5735905,51.9070227 56.2036597,51.5578635 C56.3803119,51.4593088 56.4974587,51.2804474 56.5172107,51.0791296 L56.6289812,50 L60.3540059,50.1829871 C60.3540059,50.1829871 60.2748764,50.5113749 60.4163205,51.2710188 C60.4450049,51.4282888 60.4835806,51.603363 60.5350148,51.7982196 C60.8317507,52.9347181 58.8040554,54.3026706 58.7882295,54.3857567 Z" id="Shape" fill="#8E5362" fill-rule="nonzero"></path>
                                    <path d="M64.4958703,52.3986027 C64.3680929,52.9508595 64.1916705,53.4907186 63.9686695,54.0118569 C63.7746235,54.4777737 63.6673554,54.9752294 63.6521512,55.4797105 C63.6521512,55.4965256 63.6521512,55.5133406 63.6521512,55.5301556 C63.6040031,57.0253193 63.2936514,58.5004107 62.7352373,59.8882169 C62.1882541,61.2571586 61.4632294,63.0385631 61.245623,63.4134395 C60.8836052,64.0395523 61.0972551,65.094943 61.0972551,65.094943 L59.0003214,64.946575 L59.0369188,61.4183851 C58.8183233,58.8990973 59.6234668,56.5716987 60.0596685,55.5202644 C60.2359197,55.0997438 60.33638,54.6513561 60.3564044,54.1958332 L60.4553164,51.855576 L60.4859791,51.1631922 C60.4859791,51.1631922 64.1931997,50.6359914 64.5057615,51.4767432 C64.5918149,51.6992951 64.5710434,52.0306502 64.4958703,52.3986027 Z" id="Shape" fill="#8E5362" fill-rule="nonzero"></path>
                                    <path d="M59.9030663,51.2710188 L56,51.0791296 L56.1117705,50 L59.8407517,50.1829871 C59.8407517,50.1829871 59.7586548,50.5103858 59.9030663,51.2710188 Z" id="Shape" fill="#000000" fill-rule="nonzero" opacity="0.1"></path>
                                    <path d="M65.041543,52.3986027 L61,51.855576 L61.0306627,51.1631922 C61.0306627,51.1631922 64.7378833,50.6359914 65.0504451,51.4767432 C65.1374876,51.6992951 65.1167161,52.0306502 65.041543,52.3986027 Z" id="Shape" fill="#000000" fill-rule="nonzero" opacity="0.1"></path>
                                    <path d="M66.5459941,45.1127596 L64.9307616,52.2017804 L60.1503462,51.5588526 L60.1503462,49.1186944 L59.7368942,51.6261128 L54,51.3452028 L54.2967359,45.8555885 C54.604163,44.7601142 54.8192251,43.6407984 54.9396637,42.5093966 C55.0514342,41.2690406 55.6389713,38.2096934 55.9228487,36.7725025 C56.0217606,36.2987141 56.0771513,36 56.0771513,36 C56.0771513,36 65.9030663,38.0435213 66.5459941,38.785361 C66.6557864,38.9119683 66.7279921,39.1810089 66.7725025,39.5380811 C66.9881306,41.2710188 66.5459941,45.1127596 66.5459941,45.1127596 Z" id="Shape" fill="#BDD2E8" fill-rule="nonzero"></path>
                                    <path d="M55,45.6588189 C55,45.6588189 58.867458,43.6311236 59.810089,44.0594124 L55,45.6588189 Z" id="Shape" fill="#000000" fill-rule="nonzero" opacity="0.1"></path>
                                    <path d="M57,39 C57,39 60.214639,41.4401583 60.3135509,42.098912 L57,39 Z" id="Shape" fill="#000000" fill-rule="nonzero" opacity="0.1"></path>
                                    <path d="M57,47.006182 C57,47.006182 59.3244313,46.90727 60.066271,47.5007418 L57,47.006182 Z" id="Shape" fill="#000000" fill-rule="nonzero" opacity="0.1"></path>
                                    <path d="M60.3461919,44 C60.3461919,44 61.4510386,47.6162216 60.9723046,48.6053412 C60.4935707,49.5944609 60,48.3738872 60,48.3738872 L60.3461919,44 Z" id="Shape" fill="#000000" fill-rule="nonzero" opacity="0.1"></path>
                                    <path d="M58.9142488,63 C58.9142488,63 57.8262172,63.165183 58.0240411,65.8021761 C58.221865,68.4391691 58.5186009,68.9020772 58.9142488,68.9347181 C59.3098967,68.9673591 61.2386801,69.446093 61.1397681,68.4727992 C61.0408561,67.4995054 60.9419442,65.3412463 61.0734971,65.0108803 C61.20505,64.6805143 61.4325475,63.8110781 60.9340312,63.5964392 L60.8262172,64.1048467 C60.8262172,64.1048467 59.7708265,63.1315529 59.1447137,63.8407517 C59.1178231,63.6678629 59.0744334,63.4979475 59.015139,63.3333333 C58.9528245,63.1790307 58.816326,63.098912 58.9142488,63 Z" id="Shape" fill="#494457" fill-rule="nonzero"></path>
                                    <path d="M79.5479723,31.3145401 C79.5479723,31.3145401 79.2987141,31.4540059 78.9327399,31.628091 C78.3679525,31.8971316 77.5262117,32.2512364 76.9030663,32.3036597 C75.87636,32.3907023 75.5548961,32.4896142 74.3808111,31.6488625 C73.479723,31.0039565 71.9713155,30.1048467 71.3145401,29.7210682 L71.0286845,29.5519288 L71,29.5351137 L71,29.5232443 L71.5450049,28.0257171 L73.4737883,27 L73.9525223,27.4104847 L75.3778437,28.6320475 C75.3778437,28.6320475 75.6003956,28.9901088 75.9594461,28.9653808 C76.3184965,28.9406528 78.2344214,29.1008902 78.2344214,29.1008902 L78.5964392,29.1602374 L79.3590504,29.2868447 L79.5479723,31.3145401 Z" id="Shape" fill="#8E5362" fill-rule="nonzero"></path>
                                    <path d="M79.3385976,31.1513353 C79.3385976,31.1513353 79.0893394,31.2908012 78.7233651,31.4648863 C78.3366193,31.2670623 77.8559071,30.8961424 78.0408725,30.2858556 C78.2080338,29.7368942 78.2535333,29.3086053 78.3910209,29 L79.1536322,29.1266073 L79.3385976,31.1513353 Z" id="Shape" fill="#000000" fill-rule="nonzero" opacity="0.1"></path>
                                    <path d="M78.9807088,28.0643288 C78.9807088,28.0643288 81.1320441,27.446129 80.9718067,30.0425682 C80.8115693,32.6390073 79.1538047,31.2176424 79.1538047,31.2176424 C79.1538047,31.2176424 77.7443092,30.8467225 78.0410451,29.8694722 C78.337781,28.892222 78.2517276,28.2997393 78.9807088,28.0643288 Z" id="Shape" fill="#8E5362" fill-rule="nonzero"></path>
                                    <path d="M56.1224689,19.5634688 L53.8811237,20.5051107 L53.8465045,20.5199475 L53.8217765,20.5080781 L53.6823106,20.4378506 C53.1026865,20.1490276 51.1105994,19.1608971 49.8573848,18.5743491 C48.3737053,17.8819653 48.6041702,17.1895815 48.6041702,17.1895815 L48.3905203,9.93636691 L48.0106984,8.63369629 C48.0106984,8.63369629 47.7426469,4.21826602 49.8900258,3.11144109 C52.0374046,2.00461617 50.6486806,9.50708897 50.6486806,9.50708897 L50.8148527,11.0659416 C50.9221751,12.0631642 51.1191471,13.0486863 51.4033789,14.0105509 C51.4961971,14.3267764 51.5545644,14.6521078 51.5774639,14.9808773 C51.643735,16.0352789 52.1382948,15.9650514 52.1382948,15.9650514 C52.9194463,16.0877132 53.6736315,16.3440157 54.3677706,16.7227171 C54.6255557,16.8588139 54.8722729,17.0149137 55.1056538,17.1895815 L56.1224689,19.5634688 Z" id="Shape" fill="#8E5362" fill-rule="nonzero"></path>
                                    <path d="M64.9129575,23.0118694 L63,22.8140455 C63,22.8140455 63.5637982,21.975272 63.8120673,21.1592483 C63.8471825,21.0473645 63.8752624,20.933393 63.8961424,20.818002 C63.9535114,20.4945598 63.9386746,20.1948566 63.7912957,19.9782394 C63.231454,19.1543027 67.1216617,18 67.1216617,18 C67.0743848,18.4560075 67.0601703,18.9148386 67.0791296,19.3728981 C67.0902401,19.6916411 67.123289,20.0092405 67.1780415,20.3234421 C67.2957468,20.9634026 67.5301682,21.5657765 67.9772502,21.8743818 C69.1988131,22.7151335 64.9129575,23.0118694 64.9129575,23.0118694 Z" id="Shape" fill="#8E5362" fill-rule="nonzero"></path>
                                    <path d="M64.9129575,23.6884273 L63,23.4906034 C63,23.4906034 63.5637982,22.6518299 63.8120673,21.8358061 C64.0326409,22.1493571 64.1088032,22.1424332 64.4183976,22.2047478 C64.4183976,22.2047478 66.3491592,22.4906034 67.1800198,21 C67.297725,21.6399604 67.5321464,22.2423343 67.9792285,22.5509397 C69.1988131,23.3916914 64.9129575,23.6884273 64.9129575,23.6884273 Z" id="Shape" fill="#000000" fill-rule="nonzero" opacity="0.1"></path>
                                    <path d="M71.3135509,29.7210682 C71.3112937,29.7798739 71.3139405,29.8387655 71.3214639,29.8971316 L71.024728,29.5519288 L71,29.5232443 L71.5450049,28.0257171 L73.4737883,27 L73.9525223,27.4104847 C73.2670623,27.6726014 71.3442136,28.504451 71.3135509,29.7210682 Z" id="Shape" fill="#000000" fill-rule="nonzero" opacity="0.1"></path>
                                    <path d="M56.4737883,19.8437191 L54.2324431,20.785361 L54.1730959,20.785361 L54,20.7972305 C54,20.7972305 54.0128586,20.768546 54.0336301,20.7151335 C54.2205737,20.2611276 55.0880317,18.0445104 54.7131553,17 C54.9709404,17.1360968 55.2176576,17.2921967 55.4510386,17.4668645 L56.4737883,19.8437191 Z" id="Shape" fill="#000000" fill-rule="nonzero" opacity="0.1"></path>
                                    <path d="M66.8496538,39.5361029 C65.9772502,39.4579624 57.2492582,38.6508408 56.4352127,37.3659743 C56.3065355,37.1566353 56.160981,36.958152 56,36.7725025 C56.098912,36.2987141 56.1543027,36 56.1543027,36 C56.1543027,36 65.9802176,38.0435213 66.6231454,38.785361 C66.7329377,38.9099901 66.8051434,39.1780415 66.8496538,39.5361029 Z" id="Shape" fill="#000000" fill-rule="nonzero" opacity="0.1"></path>
                                    <path d="M63.7596439,22.0445104 C63.7596439,22.0445104 65.7111771,22.3333333 66.5361029,20.8170129 C66.5361029,20.8170129 67.9139466,21.9485658 68.7378833,22.0454995 C69.56182,22.1424332 73.3867458,26.9574679 73.3867458,26.9574679 C73.3867458,26.9574679 70.3204748,27.9465875 70.5182987,29.529179 L69.0672601,27.8476756 C69.0672601,27.8476756 68.3422354,27.8140455 67.7161227,29.8259149 C67.7161227,29.8259149 66.9574679,30.9792285 67.0563798,34.6389713 C67.1552918,38.2987141 66.8259149,39.1562809 66.8259149,39.1562809 C66.8259149,39.1562809 57.1978239,38.3323442 56.3412463,36.9802176 C55.4846686,35.628091 55.3521266,36.2878338 55.3521266,36.2878338 C55.3521266,36.2878338 55.2195846,33.7161227 56.1097923,31.6389713 C57,29.56182 56.8021761,23.5944609 56.8021761,23.5944609 C56.8021761,23.5944609 56.901088,20.6597428 54,20.9238378 C54,20.9238378 55.2195846,18.0880317 54.6597428,17 C54.6597428,17 56.3283877,17.4530168 57.5173096,17.4668645 C58.2470455,17.4725361 58.9662527,17.6415227 59.6221563,17.9614243 C59.9792285,18.1364985 60.3086053,18.3570722 60.495549,18.620178 C61.0553907,19.4114738 61.9792285,19.049456 61.9792285,19.049456 C62.2120809,19.7735521 62.499758,20.478857 62.8397626,21.1592483 C62.8783383,21.231454 62.9169139,21.3026706 62.9564787,21.3709199 C63.0138477,21.4698318 63.0731949,21.5687438 63.132542,21.6498516 C63.3699308,21.9891197 63.4371909,21.9802176 63.7596439,22.0445104 Z" id="Shape" fill="#FF7590" fill-rule="nonzero"></path>
                                    <path d="M66.3399745,19.3728981 C66.2347859,19.5222368 66.1176878,19.6628207 65.9898261,19.793274 C65.3399628,20.460159 64.4481863,20.836132 63.5170269,20.8358061 C63.3977794,20.8358691 63.2786044,20.8299269 63.1599547,20.818002 C63.2173236,20.4945598 63.2024868,20.1948566 63.055108,19.9782394 C62.4952663,19.1543027 66.385474,18 66.385474,18 C66.3372069,18.4559358 66.3220007,18.914767 66.3399745,19.3728981 Z" id="Shape" fill="#000000" fill-rule="nonzero" opacity="0.1"></path>
                                    <path d="M66.9238378,17.461943 C66.9238378,19.373908 65.3738839,20.9238619 63.4619189,20.9238619 C61.5499539,20.9238619 60,19.373908 60,17.461943 C60,15.549978 61.5499539,14.0000241 63.4619189,14.0000241 C64.3811251,13.9965907 65.263674,14.3602249 65.9136555,15.0102064 C66.5636369,15.6601879 66.9272711,16.5427368 66.9238378,17.461943 Z" id="Shape" fill="#8E5362" fill-rule="nonzero"></path>
                                    <path d="M69,25.0039565 L69.0712166,27.3204748 C69.0712166,27.3204748 70.1048467,26.487636 70.1374876,25.6963403 C70.1701286,24.9050445 69,25.0039565 69,25.0039565 Z" id="Shape" fill="#000000" fill-rule="nonzero" opacity="0.1"></path>
                                    <path d="M61,28 C61,28 63.7200791,31.7339268 65.3026706,32.1127596 C66.8852621,32.4915925 61.5934718,29.2106825 61,28 Z" id="Shape" fill="#000000" fill-rule="nonzero" opacity="0.1"></path>
                                    <path d="M64,28 C64,28 65.5163205,29.7131553 66.6043521,29.9268051 L64,28 Z" id="Shape" fill="#000000" fill-rule="nonzero" opacity="0.1"></path>
                                    <path d="M58,32 C58,32 60.7695351,34.7200791 62.3521266,34.8852621 L58,32 Z" id="Shape" fill="#000000" fill-rule="nonzero" opacity="0.1"></path>
                                    <path d="M66.8951533,17.4624389 C66.8956264,18.3674365 66.5403826,19.2363628 65.9060336,19.8818257 L65.5262117,19.645426 C65.3792799,19.5689381 65.25252,19.4587857 65.1562809,19.3239621 C65.0306627,19.1142688 65.0672601,18.8511629 65.0771513,18.6068504 C65.0979228,18.0895408 64.9554896,17.529699 64.5509397,17.2062569 C63.8951533,16.6810344 62.8437191,16.9718355 62.1770524,16.4565042 C62.0165132,16.3201793 61.8751112,16.1628072 61.7566766,15.9886506 L61.1315529,15.1508662 C61.0939664,15.1014102 61.0484669,15.0519542 61,14.9935962 C61.9951783,14.014994 63.4806761,13.729712 64.76756,14.2700563 C66.0544439,14.8104006 66.8909851,16.0706737 66.8892186,17.4663954 L66.8951533,17.4624389 Z" id="Shape" fill="#000000" fill-rule="nonzero" opacity="0.1"></path>
                                    <path d="M61.6900865,13.2498445 C61.9996809,13.0134449 62.3775247,12.8888158 62.7256948,12.7147308 C63.0738649,12.5406457 63.3814811,12.3190829 63.7296513,12.170715 C64.0778214,12.022347 64.4803931,11.9353045 64.8414218,12.0589444 C65.6159025,12.3250176 65.9086819,13.4071146 66.7049233,13.5970255 C66.8394435,13.6286774 66.9779203,13.6316447 67.1134297,13.6524162 C67.6366049,13.7515976 68.0921593,14.0703057 68.3646661,14.5277872 C68.6304434,14.9841521 68.7671994,15.5041671 68.760314,16.0322382 C68.7713214,16.3253172 68.7287513,16.6179447 68.6346958,16.8957397 C68.3992853,17.5416348 67.8087808,17.9837713 67.4101656,18.542624 C67.0328321,19.0774225 66.8325504,19.7170096 66.8374653,20.3715063 L65.8720845,19.7711106 C65.7249387,19.6949374 65.598111,19.5847261 65.5021537,19.4496467 C65.3765355,19.2399533 65.413133,18.9768475 65.4230242,18.7325349 C65.4437957,18.2152253 65.3013624,17.6553836 64.8978016,17.3319415 C64.2410261,16.8067189 63.1895919,17.0975201 62.5239144,16.5821887 C62.3633752,16.4458639 62.2219731,16.2884917 62.1035385,16.1143351 L61.4784149,15.2765508 C61.3429055,15.0945527 61.082767,14.8680443 61.0234198,14.6464815 C60.8918669,14.1697258 61.3419163,13.517896 61.6900865,13.2498445 Z" id="Shape" fill="#362133" fill-rule="nonzero"></path>
                                    <path d="M65.9817212,19.322453 C65.8345754,19.2462798 65.7077477,19.1360685 65.6117904,19.0009891 C65.4861722,18.7912957 65.5227696,18.5281899 65.5326608,18.2838773 C65.5534324,17.7665678 65.4109991,17.206726 65.0064492,16.8832839 C64.3506628,16.3580613 63.2992286,16.6488625 62.6325619,16.1335312 C62.4720227,15.9972063 62.3306207,15.8398342 62.2121861,15.6656775 L61.5870624,14.8278932 C61.4505639,14.6458952 61.1914146,14.4193867 61.1320674,14.1978239 C61.0242533,13.8160237 61.2972504,13.3184965 61.5890407,13 C61.261642,13.3026706 60.9025916,13.8773492 61.0242533,14.305638 C61.087557,14.5272008 61.343739,14.7537092 61.4792484,14.9357072 L62.104372,15.7734916 C62.2228067,15.9476482 62.3642087,16.1050204 62.5247479,16.2413452 C63.1884472,16.7566766 64.2398814,16.4658754 64.8986351,16.9910979 C65.302196,17.3145401 65.4446292,17.8743818 65.4238577,18.3916914 C65.4139665,18.636004 65.3773691,18.8991098 65.5029873,19.1088032 C65.5989445,19.2438825 65.7257723,19.3540938 65.872918,19.4302671 L66.8382988,20.0306627 C66.8382988,19.9732938 66.8382988,19.9159248 66.8442335,19.859545 L65.9817212,19.322453 Z" id="Shape" fill="#000000" fill-rule="nonzero" opacity="0.1"></path>
                                    <path d="M52.7923502,61 C52.7923502,61 51.8289476,61.1978239 52.0267715,63.8397626 C52.2245955,66.4817013 52.5213314,66.9396637 52.9169792,66.9723046 C53.3126271,67.0049456 55.2414105,67.4836795 55.1424985,66.5103858 C55.0435866,65.537092 54.9446746,63.3788328 55.0762275,63.0484669 C55.2077804,62.7181009 55.7300356,61.8308605 55.2315193,61.6162216 L54.8289476,62.1424332 C54.8289476,62.1424332 53.7735569,61.1691395 53.1474441,61.8783383 C53.1474441,61.8783383 52.5618853,61.2304649 52.7923502,61 Z" id="Shape" fill="#494457" fill-rule="nonzero"></path>
                                    <path d="M53,62 C53.2087043,62.1041072 53.4035608,62.231118 53.611276,62.3352252 C53.815832,62.4479684 54.0441156,62.5045456 54.2749753,62.4997146 C54.3729854,62.4977822 54.4678826,62.4631517 54.5459941,62.4008128" id="Shape" fill="#000000" fill-rule="nonzero" opacity="0.1"></path>
                                    <path d="M60,65 C60.12364,65.114279 60.2195846,65.2603574 60.3590504,65.3547618 C60.5568744,65.4879217 60.810089,65.4958715 61.0514342,65.4988527 C61.0916054,65.5025029 61.1320878,65.497419 61.1701286,65.4839467 C61.213237,65.4603929 61.2496612,65.4261929 61.2759644,65.3845737 L61.4055391,65.2166332" id="Shape" fill="#000000" fill-rule="nonzero" opacity="0.1"></path>
                                    <path d="M43.0513399,21.3454848 C43.0513399,21.3454848 42.606236,17.1259002 44.3371954,18.1644759 C46.0681549,19.2030515 44.8762657,21.0487489 44.8762657,21.0487489 L44.4697375,22.3514195 L43.0513399,21.3454848 Z" id="Shape" fill="#FFC1C7" fill-rule="nonzero"></path>
                                    <path d="M46,7.25689271 L46.9891197,6.28557719 C46.9891197,6.28557719 48.8852621,0.828603892 50.7645895,2.23018648 C52.6439169,3.63176907 48.3827893,7.1757849 48.3827893,7.1757849 L47.2532146,8.49428144 L46,7.25689271 Z" id="Shape" fill="#FFC1C7" fill-rule="nonzero"></path>
                                    <path d="M32.049456,29.5281899 L32,30.6488625 C32,30.6488625 32.9070227,32.231454 33.2858556,32.347181 C33.6646884,32.462908 33.6320475,29 33.6320475,29 L32.049456,29.5281899 Z" id="Shape" fill="#FF5374" fill-rule="nonzero"></path>
                                    <path d="M32.049456,29.5281899 L32,30.6488625 C32,30.6488625 32.9070227,32.231454 33.2858556,32.347181 C33.6646884,32.462908 33.6320475,29 33.6320475,29 L32.049456,29.5281899 Z" id="Shape" fill="#000000" fill-rule="nonzero" opacity="0.1"></path>
                                    <polygon id="Shape" fill="#FFC1C7" fill-rule="nonzero" points="33 28 33.0672601 32.1305638 37.6656775 32.1305638 37.3194857 29.7240356"></polygon>
                                    <path d="M34.5103858,38 L34.7250247,39.3184965 L37.4124629,45.2868447 C37.4124629,45.2868447 38.6320475,47.1661721 37.6429278,48.7487636 C36.6538081,50.3313551 35.6320475,52.8041543 35.4668645,54.3036597 C35.3016815,55.8031652 34,57.2710188 34,57.2710188 L36.8358061,58.4747774 C36.8358061,58.4747774 37.0336301,56.1177052 37.8249258,55.0128586 C38.6162216,53.9080119 41.1543027,49.0454995 41.1543027,49.0454995 C41.1543027,49.0454995 41.9624135,48.3194857 41.7814045,46.1602374 C41.6003956,44.0009891 41.6162216,42.4836795 41.6162216,42.4836795 L41.3363007,39.0385757 L34.5103858,38 Z" id="Shape" fill="#575988" fill-rule="nonzero"></path>
                                    <path d="M34.5103858,38 L34.7250247,39.3184965 L37.4124629,45.2868447 C37.4124629,45.2868447 38.6320475,47.1661721 37.6429278,48.7487636 C36.6538081,50.3313551 35.6320475,52.8041543 35.4668645,54.3036597 C35.3016815,55.8031652 34,57.2710188 34,57.2710188 L36.8358061,58.4747774 C36.8358061,58.4747774 37.0336301,56.1177052 37.8249258,55.0128586 C38.6162216,53.9080119 41.1543027,49.0454995 41.1543027,49.0454995 C41.1543027,49.0454995 41.9624135,48.3194857 41.7814045,46.1602374 C41.6003956,44.0009891 41.6162216,42.4836795 41.6162216,42.4836795 L41.3363007,39.0385757 L34.5103858,38 Z" id="Shape" fill="#000000" fill-rule="nonzero" opacity="0.1"></path>
                                    <path d="M34.2321152,57 C34.2321152,57 31.1984851,57.9228487 32.2044199,59.4401583 C33.2103546,60.9574679 36.4744495,63.8417409 37.7929461,63.7428289 C39.1114426,63.6439169 38.5842418,62.6706231 38.5842418,62.6706231 L37.4793951,61.5825915 C37.4793951,61.5825915 37.2815712,59.2749753 37.3646573,58.5994065 C37.4477433,57.9238378 36.4249936,57.6102868 36.2924515,58.0059347 C36.1599095,58.4015826 34.2321152,57 34.2321152,57 Z" id="Shape" fill="#C4747B" fill-rule="nonzero"></path>
                                    <path d="M35.5934718,30 L33.1889219,30.2660732 C32.7434793,30.3152647 32.4099202,30.6973962 32.421365,31.1454006 C32.4470821,32.1068249 32.4638971,33.636004 32.3293769,33.9149357 C32.1315529,34.3273986 31.5222552,37.2621167 34.1592483,39.256182 L37.7368942,40.3936696 L32,40.8061325 L32.181998,43.9881306 L33.0722057,43.4935707 L43.9525223,43.9881306 C43.9525223,43.9881306 47.0356083,43.6745796 44.9416419,40.3283877 C42.8476756,36.9821958 38.3976261,33.7012859 38.3976261,33.7012859 L38.3481701,31.0959446 L38.0178042,30.3382789 L35.5934718,30 Z" id="Shape" fill="#575988" fill-rule="nonzero"></path>
                                    <path d="M39,40.5 C39.7883356,39.8333333 40.6844636,39.8333333 41.4727992,40.5 L39,40.5 Z" id="Shape" fill="#000000" fill-rule="nonzero" opacity="0.1"></path>
                                    <path d="M32.5612297,41.1848118 C32.5612297,41.1848118 29.0172139,40.674426 29.0003989,41.3499948 C28.9835838,42.0255635 29.4949587,48.6032094 31.1932772,48.1581056 C32.8915957,47.7130017 32.1655819,45.5369384 32.1655819,45.5369384 L33.4356115,44.3173538 C33.4356115,44.3173538 33.5671644,43.6417851 32.7264127,43.707067 L32.5612297,41.1848118 Z" id="Shape" fill="#C4747B" fill-rule="nonzero"></path>
                                    <path d="M38.6923838,23.0108803 L40.0929773,24.6102868 C40.0929773,24.6102868 40.7032641,25.3689416 41.4282888,24.214639 C42.1533136,23.0603363 43.5054402,21 43.5054402,21 C43.5054402,21 45.0059347,22.3184965 45.4015826,22.0553907 C45.7972305,21.7922849 41.7586548,27.5459941 41.7586548,27.5459941 C41.7586548,27.5459941 40.4727992,29.4411474 38.5598417,27.1998022 L38,26.9357072 L38.6923838,23.0108803 Z" id="Shape" fill="#FF5374" fill-rule="nonzero"></path>
                                    <path d="M38.6923838,23.0108803 L40.0929773,24.6102868 C40.0929773,24.6102868 40.7032641,25.3689416 41.4282888,24.214639 C42.1533136,23.0603363 43.5054402,21 43.5054402,21 C43.5054402,21 45.0059347,22.3184965 45.4015826,22.0553907 C45.7972305,21.7922849 41.7586548,27.5459941 41.7586548,27.5459941 C41.7586548,27.5459941 40.4727992,29.4411474 38.5598417,27.1998022 L38,26.9357072 L38.6923838,23.0108803 Z" id="Shape" fill="#000000" fill-rule="nonzero" opacity="0.1"></path>
                                    <circle id="Oval" fill="#FFC1C7" fill-rule="nonzero" cx="33.9179031" cy="12.9179031" r="2.91790307"></circle>
                                    <path d="M33.7778808,14.5341246 C33.7778808,14.5341246 31.2704624,15.7210682 31.5671983,17.7982196 C31.8639342,19.8753709 31.9133902,22.4965381 31.9133902,22.4965381 C31.9133902,22.4965381 33.051867,24.1780415 31.5424703,27.3926805 C31.5424703,27.3926805 30.5780786,29.024728 31.2210064,30.2116716 C31.2210064,30.2116716 31.9341617,28.3323442 33.7778808,29.7171118 C35.6215999,31.1018793 38.5899481,31.7448071 38.5899481,31.7448071 C38.5899481,31.7448071 37.0568126,25.0187933 37.9964763,24.0791296 C37.9964763,24.0791296 39.6285237,21.6557864 38.1448442,20.1226508 C36.6611647,18.5895153 37.4030045,17.1552918 37.4030045,17.1552918 L42.167594,14.6003956 C42.167594,14.6003956 43.1725396,14.6162216 44.5246662,12.5064293 C45.4000255,11.1581628 46.3638975,9.86947553 47.4099283,8.64886251 C47.4099283,8.64886251 46.3871785,7.115727 45.4316889,7 C45.4316889,7 45.051867,7.39564787 44.7887611,8.46785361 C44.6483061,9.03659743 43.6938056,9.98714144 42.8303042,10.7537092 C42.21705,11.297725 41.6255564,11.8625124 41.0350519,12.4352127 C40.597861,12.8555885 39.6245673,13.4569733 37.5019164,13.7972305 C34.0083457,14.3541048 33.7778808,14.5341246 33.7778808,14.5341246 Z" id="Shape" fill="#000000" fill-rule="nonzero" opacity="0.1"></path>
                                    <path d="M33.7778808,14.5341246 C33.7778808,14.5341246 31.2704624,15.7210682 31.5671983,17.7982196 C31.8639342,19.8753709 31.9133902,22.4965381 31.9133902,22.4965381 C31.9133902,22.4965381 33.051867,24.1780415 31.5424703,27.3926805 C31.5424703,27.3926805 30.5780786,29.024728 31.2210064,30.2116716 C31.2210064,30.2116716 31.9341617,28.3323442 33.7778808,29.7171118 C35.6215999,31.1018793 38.5899481,31.7448071 38.5899481,31.7448071 C38.5899481,31.7448071 37.0568126,25.0187933 37.9964763,24.0791296 C37.9964763,24.0791296 39.6285237,21.6557864 38.1448442,20.1226508 C36.6611647,18.5895153 37.4030045,17.1552918 37.4030045,17.1552918 L42.167594,14.6003956 C42.167594,14.6003956 43.1725396,14.6162216 44.5246662,12.5064293 C45.4000255,11.1581628 46.3638975,9.86947553 47.4099283,8.64886251 C47.4099283,8.64886251 46.3871785,7.115727 45.4316889,7 C45.4316889,7 45.051867,7.39564787 44.7887611,8.46785361 C44.6483061,9.03659743 43.6938056,9.98714144 42.8303042,10.7537092 C42.21705,11.297725 41.6255564,11.8625124 41.0350519,12.4352127 C40.597861,12.8555885 39.6245673,13.4569733 37.5019164,13.7972305 C34.0083457,14.3541048 33.7778808,14.5341246 33.7778808,14.5341246 Z" id="Shape" fill="#FF5374" fill-rule="nonzero"></path>
                                    <path d="M36,27 C36,27 37.9446093,29.8684471 37.9940677,30.3630069 C37.9950544,30.3630069 37.6983185,27.2799209 36,27 Z" id="Shape" fill="#000000" fill-rule="nonzero" opacity="0.1"></path>
                                    <path d="M34,17 C34,17 35.3560831,18.6320475 37.3155292,17.264095 C36.2210571,17.6357271 35.0218407,17.5402048 34,17 Z" id="Shape" fill="#000000" fill-rule="nonzero" opacity="0.1"></path>
                                    <path d="M35.3271936,9.93810688 C35.2916414,9.78987115 35.2179952,9.65348917 35.1135438,9.542459 C34.6664617,8.98162814 34.1808039,8.40596049 33.5151264,8.13988729 C32.6081413,7.80103521 31.5861968,8.09210299 30.9938603,8.85798818 C30.7544933,9.1804412 30.6120601,9.56421964 30.4053341,9.90942241 C30.0235339,10.5483937 29.4330294,11.0409753 28.7980146,11.4306885 C28.4152253,11.6651098 28.0116645,11.8678794 27.6506358,12.1339526 C26.338074,13.1003225 25.7317436,14.8866727 26.0621096,16.4860792 C26.2075102,17.1863759 26.5151264,17.8767815 26.4320403,18.5879585 C26.3677475,19.1398873 26.073979,19.6344471 25.776254,20.1032899 C25.4785289,20.5721326 25.1610215,21.04691 25.0423272,21.5869694 C24.9236328,22.1270287 25.0482619,22.7669892 25.4963331,23.0943878 C25.6615161,23.2150604 25.8603291,23.2922117 26.0017733,23.4366232 C26.0953776,23.5490355 26.1735496,23.6734455 26.2342164,23.806554 C26.7103981,24.6850339 27.5270385,25.3289028 28.4923766,25.5869694 C28.9176981,25.6987399 29.4884201,25.658186 29.6437119,25.2467122 C29.6615422,25.1740539 29.6884606,25.103933 29.7238306,25.038008 C29.8642856,24.840184 30.1738801,24.9509654 30.3914864,25.0647142 C30.8868669,25.3236756 31.429625,25.4794704 31.9869365,25.5226766 C32.2079772,25.5518268 32.4327993,25.524957 32.6407446,25.4445362 C32.8163145,25.3553797 32.9674217,25.2246465 33.0809028,25.0637251 C33.6011798,24.3861781 33.7505369,23.500916 33.8395576,22.6512622 C33.8979157,22.0983443 33.9384696,21.5355352 33.8326338,20.9895411 C33.6644834,20.1131811 33.1313479,19.29419 33.2104775,18.4059605 C33.2945527,17.4564056 34.0650769,16.6799466 34.1827822,15.7353373 C34.2426138,15.2407681 34.1190967,14.7414213 33.8356012,14.3317765 C33.7309924,14.2052781 33.6422982,14.0664235 33.5715062,13.9183245 C33.5024277,13.7650634 33.5337811,13.585173 33.6506358,13.4643185 C33.7132697,13.4201919 33.7827934,13.386767 33.8563727,13.3654066 C34.4923766,13.121094 34.8316447,12.4841009 34.8771442,11.8322711 C34.8949483,11.5849911 34.8771442,11.3574936 34.9453934,11.1161484 C35.0541966,10.7432503 35.3835735,10.335733 35.3271936,9.93810688 Z" id="Shape" fill="#000000" fill-rule="nonzero" opacity="0.1"></path>
                                    <path d="M34.3271936,9.93810688 C34.2916414,9.78987115 34.2179952,9.65348917 34.1135438,9.542459 C33.6664617,8.98162814 33.1808039,8.40596049 32.5151264,8.13988729 C31.6081413,7.80103521 30.5861968,8.09210299 29.9938603,8.85798818 C29.7544933,9.1804412 29.6120601,9.56421964 29.4053341,9.90942241 C29.0235339,10.5483937 28.4330294,11.0409753 27.7980146,11.4306885 C27.4152253,11.6651098 27.0116645,11.8678794 26.6506358,12.1339526 C25.338074,13.1003225 24.7317436,14.8866727 25.0621096,16.4860792 C25.2075102,17.1863759 25.5151264,17.8767815 25.4320403,18.5879585 C25.3677475,19.1398873 25.073979,19.6344471 24.776254,20.1032899 C24.4785289,20.5721326 24.1610215,21.04691 24.0423272,21.5869694 C23.9236328,22.1270287 24.0482619,22.7669892 24.4963331,23.0943878 C24.6615161,23.2150604 24.8603291,23.2922117 25.0017733,23.4366232 C25.0953776,23.5490355 25.1735496,23.6734455 25.2342164,23.806554 C25.7103981,24.6850339 26.5270385,25.3289028 27.4923766,25.5869694 C27.9176981,25.6987399 28.4884201,25.658186 28.6437119,25.2467122 C28.6615422,25.1740539 28.6884606,25.103933 28.7238306,25.038008 C28.8642856,24.840184 29.1738801,24.9509654 29.3914864,25.0647142 C29.8868669,25.3236756 30.429625,25.4794704 30.9869365,25.5226766 C31.2079772,25.5518268 31.4327993,25.524957 31.6407446,25.4445362 C31.8163145,25.3553797 31.9674217,25.2246465 32.0809028,25.0637251 C32.6011798,24.3861781 32.7505369,23.500916 32.8395576,22.6512622 C32.8979157,22.0983443 32.9384696,21.5355352 32.8326338,20.9895411 C32.6644834,20.1131811 32.1313479,19.29419 32.2104775,18.4059605 C32.2945527,17.4564056 33.0650769,16.6799466 33.1827822,15.7353373 C33.2426138,15.2407681 33.1190967,14.7414213 32.8356012,14.3317765 C32.7309924,14.2052781 32.6422982,14.0664235 32.5715062,13.9183245 C32.5024277,13.7650634 32.5337811,13.585173 32.6506358,13.4643185 C32.7132697,13.4201919 32.7827934,13.386767 32.8563727,13.3654066 C33.4923766,13.121094 33.8316447,12.4841009 33.8771442,11.8322711 C33.8949483,11.5849911 33.8771442,11.3574936 33.9453934,11.1161484 C34.0541966,10.7432503 34.3835735,10.335733 34.3271936,9.93810688 Z" id="Shape" fill="#BB7684" fill-rule="nonzero"></path>
                                    <g id="Group" opacity="0.1" transform="translate(27.992087, 8.506429)" fill="#000000" fill-rule="nonzero">
                                        <path d="M0.681503462,17.1097463 C0.646185167,17.1758052 0.618953063,17.245878 0.600395648,17.3184506 C0.508407517,17.5637522 0.268051434,17.6765119 0,17.7042072 C0.372898121,17.7417938 0.771513353,17.6517839 0.897131553,17.3184506 C0.915688968,17.245878 0.942921072,17.1758052 0.978239367,17.1097463 C1.00313414,17.0734125 1.03728153,17.0443872 1.07715134,17.0256711 C0.926805143,16.9821499 0.772502473,16.9841281 0.681503462,17.1097463 Z" id="Shape"></path>
                                        <path d="M6.30563798,1.94047398 C6.27106073,1.79186731 6.19728441,1.6552445 6.09198813,1.5448261 C5.64490603,0.983995244 5.15924827,0.408327589 4.49357072,0.142254394 C4.2042601,0.0292950939 3.89330083,-0.0173487965 3.58358061,0.00575587736 C3.79386707,0.018989709 4.0007878,0.0650462581 4.19683482,0.142254394 C4.86251236,0.408327589 5.34817013,0.983995244 5.79525223,1.5448261 C5.90054851,1.6552445 5.97432482,1.79186731 6.00890208,1.94047398 C6.0652819,2.33612185 5.73689416,2.74660652 5.628091,3.1125808 C5.55588526,3.35392601 5.57665678,3.58043441 5.55984174,3.82870345 C5.51335312,4.47954421 5.17507418,5.11455904 4.53808111,5.36183896 C4.46450185,5.38319942 4.39497817,5.41662426 4.33234421,5.46075093 C4.21539902,5.58201211 4.18441668,5.76241557 4.25420376,5.91574599 C4.3246428,6.06381815 4.41300664,6.20267561 4.51730959,6.32919801 C4.80108552,6.73836579 4.92496238,7.23739248 4.86547972,7.73176973 C4.74678536,8.67835726 3.97527201,9.45382709 3.89218595,10.4023929 C3.81305638,11.2926006 4.34718101,12.1096134 4.51434224,12.9849844 C4.61918892,13.5309784 4.57962413,14.0937875 4.52126607,14.6467054 C4.4322453,15.4963592 4.28387735,16.3826105 3.76261128,17.0591683 C3.64952789,17.220075 3.49874218,17.3508239 3.32344214,17.4399794 C3.22097196,17.4848942 3.11158728,17.5119895 3,17.5200981 C3.2101708,17.5451211 3.42326639,17.517592 3.62017804,17.4399794 C3.79578258,17.3531807 3.94755189,17.2248389 4.06231454,17.0660922 C4.58358061,16.3895343 4.73194857,15.5032831 4.82096934,14.6536293 C4.8793274,14.1007114 4.91988131,13.5379023 4.8140455,12.9919082 C4.64688427,12.1165373 4.11275964,11.2965571 4.19188922,10.4093167 C4.27695351,9.45877269 5.04648863,8.68330286 5.16518299,7.73869356 C5.22466565,7.24431632 5.10078878,6.74528963 4.81701286,6.33612185 C4.7127099,6.20959945 4.62434607,6.07074199 4.55390702,5.92266982 C4.48411995,5.76933941 4.51510228,5.58893594 4.63204748,5.46767477 C4.69468144,5.4235481 4.76420512,5.39012325 4.83778437,5.3687628 C5.47477745,5.12346112 5.81305638,4.48646804 5.859545,3.83562729 C5.87636004,3.58735825 5.859545,3.36084984 5.92779426,3.11950464 C6.03363007,2.74660652 6.3620178,2.33908921 6.30563798,1.94047398 Z" id="Shape"></path>
                                    </g>
                                    <path d="M31,45 C31.3459044,45.4353136 31.8772376,45.6044696 32.3679525,45.4355033" id="Shape" fill="#000000" fill-rule="nonzero" opacity="0.1"></path>
                                    <path d="M37.6824926,62 C37.4911732,62.4143054 37.2417238,62.582945 37,62.4613973" id="Shape" fill="#000000" fill-rule="nonzero" opacity="0.1"></path>
                                    <ellipse id="Oval" fill="#FF1F00" fill-rule="nonzero" opacity="0.1" cx="10.6636993" cy="64.4500495" rx="2.66369931" ry="1"></ellipse>
                                    <ellipse id="Oval" fill="#FF1F00" fill-rule="nonzero" cx="83.6636993" cy="73.4500495" rx="2.66369931" ry="1"></ellipse>
                                    <ellipse id="Oval" fill="#FF1F00" fill-rule="nonzero" opacity="0.1" cx="83.6636993" cy="64.4500495" rx="2.66369931" ry="1"></ellipse>
                                    <ellipse id="Oval" fill="#FF1F00" fill-rule="nonzero" opacity="0.1" cx="17.6636993" cy="68.4500495" rx="2.66369931" ry="1"></ellipse>
                                    <ellipse id="Oval" fill="#FF1F00" fill-rule="nonzero" cx="91.9772502" cy="68.6726014" rx="3.97725025" ry="1"></ellipse>
                                    <ellipse id="Oval" fill="#FF1F00" fill-rule="nonzero" opacity="0.1" cx="34.9772502" cy="74.5173096" rx="8.97725025" ry="1.51730959"></ellipse>
                                    <path d="M93.6779668,67.8328459 C93.8595011,67.6846806 93.9919181,67.4850206 94.0577887,67.2601456 C94.1062556,67.0326481 94.0093219,66.7606402 93.7927047,66.6775541 C93.5493812,66.5845769 93.2892427,66.7527272 93.0924079,66.9238449 C92.8955731,67.0949626 92.6690647,67.287841 92.4109045,67.2522327 C92.6809793,67.0076831 92.802679,66.6392033 92.7313792,66.2819062 C92.7201719,66.2091189 92.6894028,66.140743 92.6423585,66.0840823 C92.5068491,65.9396708 92.2625365,66.0019854 92.1003209,66.1157341 C91.5859786,66.4777519 91.4425563,67.1760704 91.4395889,67.8051506 C91.3881547,67.5786421 91.431676,67.3422425 91.4306869,67.1127668 C91.4296977,66.883291 91.365405,66.6182069 91.1695593,66.4965452 C91.0484662,66.4298718 90.9121339,66.3957888 90.7739114,66.3976332 C90.5424574,66.3897203 90.2852863,66.41247 90.1270271,66.5816095 C89.9292032,66.792292 89.9816265,67.1444186 90.1527442,67.3729053 C90.3238619,67.6013919 90.5830113,67.7487707 90.8213891,67.9090081 C91.0132321,68.0230609 91.1768724,68.178925 91.3001231,68.3649923 C91.3143571,68.3909273 91.3262728,68.4180686 91.3357314,68.4461001 L92.7847917,68.4461001 C93.1087712,68.2828309 93.4092125,68.0765479 93.6779668,67.8328459 Z" id="Shape" fill="#FF1F00" fill-rule="nonzero"></path>
                                    <path d="M84.6789559,72.8328459 C84.8602178,72.6846256 84.992301,72.4849488 85.0577887,72.2601456 C85.1062556,72.0326481 85.010311,71.7655858 84.7927047,71.6775541 C84.5493812,71.5845769 84.2892427,71.7527272 84.0924079,71.9238449 C83.8955731,72.0949626 83.6690647,72.287841 83.4109045,72.2522327 C83.6809793,72.0076831 83.802679,71.6392033 83.7313792,71.2819062 C83.7207158,71.208959 83.6898832,71.140442 83.6423585,71.0840823 C83.5078382,70.9396708 83.2625365,71.0019854 83.10131,71.1157341 C82.5869678,71.4777519 82.4435454,72.1760704 82.4405781,72.8051506 C82.3881547,72.5786421 82.431676,72.3422425 82.4306869,72.1127668 C82.4296977,71.883291 82.365405,71.6182069 82.1695593,71.4965452 C82.0481143,71.4312915 81.9117279,71.3988997 81.7739114,71.4025788 C81.5424574,71.3946659 81.2852863,71.4174156 81.1270271,71.5865551 C80.9292032,71.7972376 80.9816265,72.1493642 81.1527442,72.3778509 C81.3238619,72.6063375 81.5830113,72.7537163 81.8223783,72.9139537 C82.0138621,73.0281251 82.1771553,73.1839806 82.3001231,73.3699379 C82.3143571,73.3958729 82.3262728,73.4230142 82.3357314,73.4510457 L83.7847917,73.4510457 C84.1092393,73.2860412 84.4099954,73.078107 84.6789559,72.8328459 Z" id="Shape" fill="#FF1F00" fill-rule="nonzero"></path>
                                    <path d="M21.5469853,64.0652819 C21.5469853,64.0652819 20.1572722,59.3461919 21.8081129,55.8733927 C22.511083,54.4205437 22.7235061,52.7787773 22.4134542,51.1948566 C22.2604753,50.4445386 22.0389731,49.7098399 21.7517331,49" id="Shape" stroke="#535461" stroke-width="2"></path>
                                    <path d="M22.094463,46.0796622 C22.094463,46.6582972 21.0469852,48.334855 21.0469852,48.334855 C21.0469852,48.334855 20.0004966,46.6582972 20.0004966,46.0796622 C19.9887623,45.6979373 20.18571,45.3400782 20.5144762,45.1457478 C20.8432425,44.9514174 21.2517171,44.9514174 21.5804833,45.1457478 C21.9092495,45.3400782 22.1061972,45.6979373 22.094463,46.0796622 Z" id="Shape" fill="#FF1F00" fill-rule="nonzero"></path>
                                    <path d="M24.1048467,49.5926362 C23.7903066,50.0773049 22,50.9160783 22,50.9160783 C22,50.9160783 22.0326409,48.937839 22.347181,48.4541595 C22.6685611,47.9866912 23.3036729,47.8600146 23.7798042,48.1684148 C24.2559355,48.476815 24.4000337,49.1082021 24.1048467,49.5926362 Z" id="Shape" fill="#FF1F00" fill-rule="nonzero"></path>
                                    <path d="M23.4856578,54.9688423 C22.9693373,55.2299699 21,55.0499501 21,55.0499501 C21,55.0499501 22.0257171,53.3595446 22.5420376,53.0994061 C23.0551457,52.858662 23.6666711,53.0697149 23.9220677,53.5756894 C24.1774643,54.0816638 23.9840803,54.6990043 23.4856578,54.9688423 Z" id="Shape" fill="#FF1F00" fill-rule="nonzero"></path>
                                    <path d="M23.4362018,58.8655699 C22.9713155,59.2087945 21,59.3601298 21,59.3601298 C21,59.3601298 21.7260138,57.5203672 22.1869436,57.1761535 C22.6515516,56.8662379 23.2775963,56.9753404 23.6099792,57.4241497 C23.9423621,57.8729591 23.8641706,58.5036107 23.4322453,58.857657 L23.4362018,58.8655699 Z" id="Shape" fill="#FF1F00" fill-rule="nonzero"></path>
                                    <path d="M19.3007485,50.7800418 C19.7161787,51.1826135 21.6479295,51.600022 21.6479295,51.600022 C21.6479295,51.600022 21.1751303,49.6801407 20.7577218,49.277569 C20.3401869,48.8923925 19.691731,48.9102245 19.2959952,49.3177653 C18.9002594,49.7253061 18.9014905,50.3740059 19.2987702,50.7800418 L19.3007485,50.7800418 Z" id="Shape" fill="#FF1F00" fill-rule="nonzero"></path>
                                    <path d="M18.5574537,55.973379 C19.0737742,56.2335174 21.0421223,56.0534977 21.0421223,56.0534977 C21.0421223,56.0534977 20.0164052,54.3630921 19.5000847,54.1029536 C18.9857617,53.856664 18.3689176,54.0670482 18.1122789,54.5762862 C17.8556402,55.0855242 18.053509,55.7064961 18.5574537,55.973379 Z" id="Shape" fill="#FF1F00" fill-rule="nonzero"></path>
                                    <path d="M18.379527,60.8645808 C18.8444132,61.2087945 20.8157288,61.3591407 20.8157288,61.3591407 C20.8157288,61.3591407 20.0897149,59.5193781 19.6287851,59.1761535 C19.1641772,58.8662379 18.5381325,58.9753404 18.2057495,59.4241497 C17.8733666,59.8729591 17.9515582,60.5036107 18.3834835,60.857657 L18.379527,60.8645808 Z" id="Shape" fill="#FF1F00" fill-rule="nonzero"></path>
                                    <path d="M18,63.6502762 C18,63.6502762 19.6923838,63.3139755 20.1444115,62.8659042 C20.5964392,62.417833 22.6261128,61.6344502 22.851632,62.194292 C23.0771513,62.7541337 25.8981207,64.6581891 23.9802176,64.9944898 C22.0623145,65.3307905 19.4668645,65.442561 18.9030663,65.21902 C18.3392681,64.9954789 18,63.6502762 18,63.6502762 Z" id="Shape" fill="#A8A8A8" fill-rule="nonzero"></path>
                                    <path d="M23.983185,64.148368 C22.0652819,64.4846686 19.4698318,64.5964392 18.9060336,64.371909 C18.4757666,64.2017804 18.1770524,63.3827893 18.0593472,63 L18,63.0148368 C18,63.0148368 18.3382789,64.3590504 18.9030663,64.5835806 C19.4678536,64.8081108 22.0623145,64.6953511 23.9802176,64.3590504 C24.5341246,64.2601385 24.6923838,64.0346192 24.6330366,63.7457962 C24.5885262,63.9307616 24.3956479,64.0761622 23.983185,64.148368 Z" id="Shape" fill="#000000" fill-rule="nonzero" opacity="0.2"></path>
                                    <path d="M83.4958949,58 C83.4958949,58 84.0399107,58.7111771 83.2456476,59.7804154 C82.4513845,60.8496538 81.7965873,61.7586548 82.058704,62.4282888 C82.058704,62.4282888 83.2575171,60.4352127 84.2347673,60.4075173 C85.2120176,60.379822 84.5671115,59.1958457 83.4958949,58 Z" id="Shape" fill="#FF1F00" fill-rule="nonzero"></path>
                                    <path d="M84.4638971,58 C84.5114805,58.068887 84.5491081,58.1441421 84.5756677,58.223541 C85.5272008,59.3412463 86.0336301,60.3847676 85.1186944,60.4104847 C84.2670623,60.4352127 83.2453017,61.958457 83,62.3432245 C83.0080681,62.3730342 83.0176418,62.4024158 83.0286845,62.4312562 C83.0286845,62.4312562 84.2274975,60.43818 85.2047478,60.4104847 C86.181998,60.3827893 85.5351137,59.1958457 84.4638971,58 Z" id="Shape" fill="#000000" fill-rule="nonzero" opacity="0.1"></path>
                                    <path d="M85.5,59.1620048 C85.5,59.412252 85.3858268,59.6150216 85.2480315,59.6150216 C85.1102362,59.6150216 85,59.4171976 85,59.1620048 C85,58.9068119 85.1377953,59.0294627 85.2755906,59.0294627 C85.4133858,59.0294627 85.5,58.9117575 85.5,59.1620048 Z" id="Shape" fill="#FFD037" fill-rule="nonzero"></path>
                                    <path d="M85.4283598,59.2520117 C85.2087752,59.4283884 85.016886,59.5347975 85.0010601,59.4896101 C84.9852342,59.4444226 85.1484389,59.2665883 85.3680235,59.0902115 C85.587608,58.9138348 85.5015546,59.0421088 85.5183697,59.0902115 C85.5351847,59.1383143 85.6479443,59.0756349 85.4283598,59.2520117 Z" id="Shape" fill="#FFD037" fill-rule="nonzero"></path>
                                    <path d="M81.2211031,58 C81.2211031,58 80.6770873,58.7111771 81.4713504,59.7804154 C82.2656135,60.8496538 82.9204108,61.7586548 82.658294,62.4282888 C82.658294,62.4282888 81.4604701,60.4352127 80.4822307,60.4075173 C79.5039914,60.379822 80.1479083,59.1958457 81.2211031,58 Z" id="Shape" fill="#FF1F00" fill-rule="nonzero"></path>
                                    <path d="M81.2232542,58 C81.1756708,58.068887 81.1380432,58.1441421 81.1114837,58.223541 C80.1599505,59.3412463 79.6535213,60.3847676 80.568457,60.4104847 C81.420089,60.4352127 82.4418496,61.958457 82.6871513,62.3432245 C82.6791974,62.3731862 82.6692849,62.4025934 82.6574777,62.4312562 C82.6574777,62.4312562 81.4596538,60.43818 80.4814144,60.4104847 C79.5031751,60.3827893 80.1500593,59.1958457 81.2232542,58 Z" id="Shape" fill="#000000" fill-rule="nonzero" opacity="0.1"></path>
                                    <path d="M80,59.1620048 C80,59.412252 80.1141732,59.6150216 80.2519685,59.6150216 C80.3897638,59.6150216 80.5,59.4171976 80.5,59.1620048 C80.5,58.9068119 80.3622047,59.0294627 80.2244094,59.0294627 C80.0866142,59.0294627 80,58.9117575 80,59.1620048 Z" id="Shape" fill="#FFD037" fill-rule="nonzero"></path>
                                    <path d="M80.1338544,59.2520117 C80.353439,59.4283884 80.5443391,59.5347975 80.5611541,59.4896101 C80.5779692,59.4444226 80.4137753,59.2665883 80.1941907,59.0902115 C79.9746062,58.9138348 80.0606596,59.0421088 80.0438445,59.0902115 C80.0270295,59.1383143 79.9142699,59.0756349 80.1338544,59.2520117 Z" id="Shape" fill="#FFD037" fill-rule="nonzero"></path>
                                    <path d="M80,62.8222139 C80,62.8222139 81.5192878,62.7747362 81.9782394,62.4493158 C82.4371909,62.1238954 84.3155292,61.7341823 84.4292779,62.2514919 C84.5430267,62.7688015 86.7121662,64.8518875 84.9970326,64.8657352 C83.2818991,64.8795829 81.0118694,64.5986729 80.5548961,64.3207303 C80.0979228,64.0427876 80,62.8222139 80,62.8222139 Z" id="Shape" fill="#A8A8A8" fill-rule="nonzero"></path>
                                    <path d="M85.0267062,64.8684471 C83.3115727,64.8822948 81.041543,64.6013848 80.5845697,64.3234421 C80.2363996,64.1117705 80.0969337,63.3511375 80.0514342,63 L80,63 C80,63 80.098912,64.2255193 80.553907,64.5034619 C81.0089021,64.7814045 83.28091,65.0623145 84.9960435,65.0484669 C85.4906034,65.0484669 85.6617211,64.8684471 85.652819,64.6083086 C85.5835806,64.7675569 85.3946588,64.8654797 85.0267062,64.8684471 Z" id="Shape" fill="#000000" fill-rule="nonzero" opacity="0.2"></path>
                                </g>
                            </g>
                        </g>
                    </g>
                </g>
            </g>
        </g>
    </g>
</svg>