<?xml version="1.0" encoding="UTF-8"?>
<svg width="100px" height="77px" viewBox="0 0 100 77" version="1.1" xmlns="http://www.w3.org/2000/svg" xmlns:xlink="http://www.w3.org/1999/xlink">
    <!-- Generator: Sketch 50.2 (55047) - http://www.bohemiancoding.com/sketch -->
    <title>Group 18</title>
    <desc>Created with Sketch.</desc>
    <defs>
        <linearGradient x1="50%" y1="100%" x2="50%" y2="0.00661988614%" id="linearGradient-1">
            <stop stop-color="#808080" stop-opacity="0.25" offset="0%"></stop>
            <stop stop-color="#808080" stop-opacity="0.12" offset="54%"></stop>
            <stop stop-color="#808080" stop-opacity="0.1" offset="100%"></stop>
        </linearGradient>
        <linearGradient x1="71091%" y1="18710%" x2="71091%" y2="3605%" id="linearGradient-2">
            <stop stop-color="#808080" stop-opacity="0.25" offset="0%"></stop>
            <stop stop-color="#808080" stop-opacity="0.12" offset="54%"></stop>
            <stop stop-color="#808080" stop-opacity="0.1" offset="100%"></stop>
        </linearGradient>
        <linearGradient x1="55100%" y1="31101%" x2="55100%" y2="15996%" id="linearGradient-3">
            <stop stop-color="#808080" stop-opacity="0.25" offset="0%"></stop>
            <stop stop-color="#808080" stop-opacity="0.12" offset="54%"></stop>
            <stop stop-color="#808080" stop-opacity="0.1" offset="100%"></stop>
        </linearGradient>
        <linearGradient x1="6672%" y1="43907%" x2="6672%" y2="30563%" id="linearGradient-4">
            <stop stop-color="#808080" stop-opacity="0.25" offset="0%"></stop>
            <stop stop-color="#808080" stop-opacity="0.12" offset="54%"></stop>
            <stop stop-color="#808080" stop-opacity="0.1" offset="100%"></stop>
        </linearGradient>
        <linearGradient x1="7731%" y1="43272%" x2="7731%" y2="29928%" id="linearGradient-5">
            <stop stop-color="#808080" stop-opacity="0.25" offset="0%"></stop>
            <stop stop-color="#808080" stop-opacity="0.12" offset="54%"></stop>
            <stop stop-color="#808080" stop-opacity="0.1" offset="100%"></stop>
        </linearGradient>
        <linearGradient x1="50901%" y1="29243%" x2="50901%" y2="20206%" id="linearGradient-6">
            <stop stop-color="#808080" stop-opacity="0.25" offset="0%"></stop>
            <stop stop-color="#808080" stop-opacity="0.12" offset="54%"></stop>
            <stop stop-color="#808080" stop-opacity="0.1" offset="100%"></stop>
        </linearGradient>
        <linearGradient x1="37186%" y1="82500%" x2="37186%" y2="14787%" id="linearGradient-7">
            <stop stop-color="#808080" stop-opacity="0.25" offset="0%"></stop>
            <stop stop-color="#808080" stop-opacity="0.12" offset="54%"></stop>
            <stop stop-color="#808080" stop-opacity="0.1" offset="100%"></stop>
        </linearGradient>
    </defs>
    <g id="Page-1" stroke="none" stroke-width="1" fill="none" fill-rule="evenodd">
        <g id="Home-Copy-2" transform="translate(-1096.000000, -1693.000000)" fill-rule="nonzero">
            <g id="Group-9" transform="translate(95.000000, 1520.000000)">
                <g id="Group-34-Copy" transform="translate(970.000000, 135.000000)">
                    <g id="Group-12">
                        <g id="undraw_High_five_u364-(1)" transform="translate(31.000000, 38.000000)">
                            <g id="Group-18">
                                <path d="M58.0172216,9.53346565 C51.615639,9.34058731 45.5187053,7.55522628 39.6967468,5.59676931 C33.8747883,3.63831234 28.1082206,1.47312935 21.8599516,0.436531922 C17.8411583,-0.230134745 13.2447191,-0.324101115 10.0073304,1.54038949 C6.89061426,3.33366347 5.88369042,6.4305972 5.34264196,9.30398988 C4.93512465,11.4652164 4.69575768,13.7401917 5.81148469,15.7639305 C6.58695452,17.1694696 7.96183088,18.3504785 8.91336401,19.6956813 C12.2239476,24.379163 9.88369042,30.1536437 6.29714245,34.7303005 C4.61563899,36.8757011 2.66212761,38.9212006 1.36341347,41.2050779 C0.0646993251,43.4889553 -0.535696323,46.1041877 0.600802194,48.4325754 C1.72642039,50.7411808 4.40990209,52.4751076 7.31692484,53.6946922 C13.2209802,56.1674914 20.1754807,56.8806467 26.9618309,57.2822293 C41.979635,58.172437 57.0765688,57.7866803 72.1339377,57.4009236 C77.706638,57.2584904 83.3030772,57.1140789 88.7847785,56.3682827 C91.8292888,55.9548306 94.9717221,55.2980552 97.1824046,53.7115072 C99.987548,51.6976595 100.682899,48.288164 98.8025826,45.7629414 C95.6492691,41.5285201 86.9331464,40.4760967 84.7264204,35.9310918 C83.5137597,33.4296081 84.7590613,30.6432579 86.5226617,28.3227832 C90.3050554,23.3455329 96.6443235,18.9785695 96.9776568,13.288164 C97.2071326,9.38114122 94.1596548,5.46818375 89.4474886,3.61951906 C84.5088141,1.68084448 77.6591603,1.92515705 74.0172216,5.13287218 C70.2635124,8.43158632 63.6700406,9.70260512 58.0172216,9.53346565 Z" id="Shape" fill="#FF1F00" opacity="0.1"></path>
                                <ellipse id="Oval" fill="#FF1F00" opacity="0.1" cx="10.6636993" cy="64.4500495" rx="2.66369931" ry="1"></ellipse>
                                <ellipse id="Oval" fill="#FF1F00" opacity="0.1" cx="34.9772502" cy="74.5173096" rx="8.97725025" ry="1.51730959"></ellipse>
                                <circle id="Oval" fill="url(#linearGradient-1)" cx="55.4089481" cy="12.4216113" r="7.35732121"></circle>
                                <circle id="Oval" fill="#F5F5F5" cx="55.5" cy="12.5" r="7.5"></circle>
                                <path d="M60,13.3855718 C60,15.8073372 58.2985075,17 56.0895522,17 C53.880597,17 52,15.808322 52,13.3855718 C52,10.9628216 53.7910448,9 56,9 C58.2089552,9 60,10.9628216 60,13.3855718 Z" id="Shape" fill="#333333"></path>
                                <path d="M56.0876053,19.9999895 C57.4783712,20.0025237 58.8390443,19.5482752 60,18.6938716 C59.7371841,17.0945217 58.7398315,17 58.7398315,17 L53.2361011,17 C53.2361011,17 52.2945848,17.0859288 52,18.5574596 C53.1963038,19.4977874 54.6242408,20.0017113 56.0876053,19.9999895 Z" id="Shape" fill="#FF1F00"></path>
                                <path d="M55,15 L57,15 L57,16.9101771 C57.0000053,17.2004381 56.8996592,17.4787088 56.7212107,17.6832902 C56.5427623,17.8878716 56.3009574,18.0018584 56.0494097,17.9999771 L55.9374727,17.9999771 C55.4185912,17.995542 54.9999858,17.5089185 55,16.9101771 L55,15 Z" id="Shape" fill="#000000" opacity="0.1"></path>
                                <path d="M55.1753806,15 L56.8193793,15 C56.9191334,15 57,15.0928483 57,15.2073826 L57,16.9127517 C57,17.2011079 56.900233,17.4776537 56.7226467,17.6815523 C56.5450604,17.885451 56.3042017,18 56.0530567,18 L55.9408264,18 C55.4202425,17.9961258 55.0000097,17.5104811 55.0000207,16.9127517 L55.0000207,15.2104027 C54.9985408,15.0970161 55.0766565,15.0032902 55.1753806,15 Z" id="Shape" fill="#FDA57D"></path>
                                <path d="M55,16.2846426 C55.6446027,16.5696335 56.3541428,16.5718367 57,16.290853 L57,16 L55,16 L55,16.2846426 Z" id="Shape" fill="#000000" opacity="0.1"></path>
                                <circle id="Oval" fill="#FDA57D" cx="56.5" cy="13.5" r="3.5"></circle>
                                <path d="M52,13 C52,13 53.9263371,12.7390308 55.3854831,10.6470511 C55.3854831,10.6470511 57.3118202,13.0211311 58.6539326,12.7601619 C58.6539326,12.7601619 59.4325843,11.8451849 58.6539326,10.930208 C57.8752809,10.015231 57.2721798,8.86147246 56.2415281,9.01361644 C55.2108764,9.16576041 53.9452135,9.23126685 53.4006292,9.77644944 C52.8560449,10.321632 52,13 52,13 Z" id="Shape" fill="#000000" opacity="0.1"></path>
                                <path d="M52,13 C52,13 53.9263371,12.7390308 55.3854831,10.6470511 C55.3854831,10.6470511 57.3118202,13.0211311 58.6539326,12.7601619 C58.6539326,12.7601619 59.4325843,11.8451849 58.6539326,10.930208 C57.8752809,10.015231 57.2721798,8.86147246 56.2415281,9.01361644 C55.2108764,9.16576041 53.9452135,9.23126685 53.4006292,9.77644944 C52.8560449,10.321632 52,13 52,13 Z" id="Shape" fill="#333333"></path>
                                <ellipse id="Oval" fill="#FDA57D" cx="52.25" cy="12.4085994" rx="1" ry="1"></ellipse>
                                <ellipse id="Oval" fill="#FDA57D" cx="59.25" cy="12.4085994" rx="1" ry="1"></ellipse>
                                <circle id="Oval" fill="url(#linearGradient-2)" cx="87.3943367" cy="13.3621917" r="7.35732121"></circle>
                                <circle id="Oval" fill="#F5F5F5" cx="87.5" cy="13.5" r="7.5"></circle>
                                <path d="M87.0890172,20.9999835 C88.4792812,21.0025205 89.8394633,20.5477845 91,19.6924638 C90.7382413,18.0913973 89.7402863,18 89.7402863,18 L84.235655,18 C84.235655,18 83.2944785,18.086021 83,19.5591312 C84.1970179,20.4999589 85.6255085,21.003318 87.0890172,20.9999835 Z" id="Shape" fill="#FF1F00"></path>
                                <circle id="Oval" fill="#72351C" cx="87.5" cy="12.5" r="3.5"></circle>
                                <path d="M86.0008741,16 L88,16 L87.9999996,17.9095494 C88.0002316,18.1986621 87.9008713,18.4760251 87.7238013,18.6805533 C87.5467314,18.8850815 87.3064745,19.0000001 87.0559438,19 L86.9440558,19 C86.4226682,19 86,18.5122403 86,17.9105582 L86,16 L86.0008741,16 Z" id="Shape" fill="#000000" opacity="0.1"></path>
                                <path d="M86.1809441,16 L87.8199301,16 C87.9193799,16 88,16.0930669 88,16.2078708 L88,17.9101917 C88,18.1992269 87.9005372,18.4764238 87.7234924,18.6808025 C87.5464476,18.8851812 87.3063233,19 87.0559441,19 L86.9440559,19 C86.6936767,19 86.4535524,18.8851812 86.2765076,18.6808025 C86.0994628,18.4764238 86,18.1992269 86,17.9101917 L86,16.2078708 C86,16.0930669 86.0806201,16 86.1800699,16 L86.1809441,16 Z" id="Shape" fill="#FDA57D"></path>
                                <path d="M86,16.2846426 C86.6446027,16.5696335 87.3541428,16.5718367 88,16.290853 L88,16 L86,16 L86,16.2846426 Z" id="Shape" fill="#000000" opacity="0.1"></path>
                                <circle id="Oval" fill="#FDA57D" cx="87.5" cy="13.5" r="3.5"></circle>
                                <path d="M85,10.6575888 C85,10.6575888 86.3082607,12.8921138 90,11.5952912 L89.140773,10.4604718 L87.6174687,10 L85,10.6575888 Z" id="Shape" fill="#000000" opacity="0.1"></path>
                                <path d="M85,10.6554428 C85,10.6554428 86.3082607,12.89354 90,11.5946443 L89.140773,10.4612079 L87.6174687,10 L85,10.6554428 Z" id="Shape" fill="#72351C"></path>
                                <path d="M85.070949,10.003581 C85.1674587,9.74843063 85.3342704,9.51676953 85.5573789,9.32804749 C86.2263498,8.76406999 87.3205578,8.64454571 87.884775,8 C87.9473748,8.09210196 87.9612091,8.20256468 87.9228332,8.30388194 C87.8844573,8.4051992 87.7974821,8.48783744 87.6835652,8.531219 C88.2218533,8.531219 88.8462261,8.48783611 89.1511523,8.10978526 C89.3049647,8.4151859 89.2387288,8.76891579 88.9810574,9.01816974 C89.4581529,9.03676241 89.9684376,9.31299628 89.9985153,9.72026418 C90.0192586,9.99118587 89.8201231,10.2514832 89.5587578,10.403766 C89.2874634,10.5473652 88.9858491,10.6442173 88.6709454,10.6888535 C87.7623897,10.8597289 84.4787284,11.5759892 85.070949,10.003581 Z" id="Shape" fill="#72351C"></path>
                                <path d="M91,14 L90.9070796,14 L89.1020751,15.3719033 C87.3622215,14.6740618 86.0859017,15.3719033 86.0859017,15.3719033 L84.191181,14.0567053 L84,14.0768266 C84.047315,15.7177322 85.6271588,17.0207875 87.5437948,16.9997488 C89.4604307,16.9787101 91.0007505,15.641405 90.9989319,14 L91,14 Z M87.4946597,15.9042018 C86.8132438,15.9042018 86.26213,15.7862181 86.26213,15.6398817 C86.26213,15.4935454 86.8143119,15.3755617 87.4946597,15.3755617 C88.1750076,15.3755617 88.7271895,15.4935454 88.7271895,15.6398817 C88.7271895,15.7862181 88.1750076,15.9042018 87.4946597,15.9042018 Z" id="Shape" fill="#72351C"></path>
                                <ellipse id="Oval" fill="#FDA57D" cx="84.25" cy="13.4085994" rx="1" ry="1"></ellipse>
                                <ellipse id="Oval" fill="#FDA57D" cx="90.25" cy="13.4085994" rx="1" ry="1"></ellipse>
                                <circle id="Oval" fill="url(#linearGradient-3)" cx="71.4031036" cy="25.4508341" r="7.35732121"></circle>
                                <circle id="Oval" fill="#F5F5F5" cx="71.5" cy="25.5" r="7.5"></circle>
                                <path d="M69.2518055,25 C69.2518055,25 68.4448724,29.4299221 68,29.1832195 C68,29.1832195 72.2484352,33.2709757 76,29.1832195 C76,29.1832195 75.3394319,26.0618942 74.3851709,25 L69.2518055,25 Z" id="Shape" fill="#333333"></path>
                                <path d="M72.0871344,32.9999894 C73.4780677,33.0025264 74.8389046,32.5477895 76,31.6924672 C75.7381153,30.0913975 74.7396799,30 74.7396799,30 L69.2362498,30 C69.2362498,30 68.2946203,30.0860212 68,31.5591343 C69.1965198,32.4991165 70.6242351,33.0024351 72.0871344,32.9999894 Z" id="Shape" fill="#FF1F00"></path>
                                <circle id="Oval" fill="#333333" cx="71.5" cy="25.5" r="3.5"></circle>
                                <path d="M71.0008741,28 L73,28 L73,29.9101917 C73.0000009,30.511289 72.5783971,30.9988869 72.0576923,31 L71.9440559,31 C71.4226682,31 71,30.5120762 71,29.9101917 L71,28 L71.0008741,28 Z" id="Shape" fill="#000000" opacity="0.1"></path>
                                <path d="M71.1833261,28 L72.8201659,28 C72.9194855,28 73,28.0932237 73,28.208221 L73,29.9134094 C72.9975958,30.5147277 72.575653,31.0005627 72.0563073,30.9999995 L71.9428197,30.9999995 C71.4221148,30.9999995 71,30.5112538 71,29.9083555 L71,28.208221 C71,28.0932237 71.0805145,28 71.1798341,28 L71.1833261,28 Z" id="Shape" fill="#BE7C5E"></path>
                                <path d="M71,29.2846426 C71.6446027,29.5696335 72.3541428,29.5718367 73,29.290853 L73,29 L71,29 L71,29.2846426 Z" id="Shape" fill="#000000" opacity="0.1"></path>
                                <circle id="Oval" fill="#BE7C5E" cx="71.5" cy="26.5" r="3.5"></circle>
                                <path d="M69,24 L75,24 C75,24 74.48736,21.8703903 72.216,22.0062331 C69.94464,22.1420758 69,24 69,24 Z" id="Shape" fill="#333333"></path>
                                <ellipse id="Oval" fill="#BE7C5E" cx="68.25" cy="25.4085994" rx="1" ry="1"></ellipse>
                                <ellipse id="Oval" fill="#BE7C5E" cx="75.25" cy="25.4085994" rx="1" ry="1"></ellipse>
                                <path d="M69,24 L75,24 C75,24 74.48736,21.8703903 72.216,22.0062331 C69.94464,22.1420758 69,24 69,24 Z" id="Shape" fill="#000000" opacity="0.1"></path>
                                <path d="M71.5,18.6833644 C75.2647239,18.6833644 78.3166356,21.7352761 78.3166356,25.5 C78.3166356,29.2647239 75.2647239,32.3166356 71.5,32.3166356 C67.7352761,32.3166356 64.6833644,29.2647239 64.6833644,25.5 C64.6833644,21.7352761 67.7352761,18.6833644 71.5,18.6833644 Z M71.5,17 C66.8055796,17 63,20.8055796 63,25.5 C63,30.1944204 66.8055796,34 71.5,34 C76.1944204,34 80,30.1944204 80,25.5 C79.9945434,20.8078417 76.1921583,17.0054566 71.5,17 Z" id="Shape" fill="#CCCCCC"></path>
                                <rect id="Rectangle-path" fill="#CCCCCC" x="70" y="15" width="2" height="2"></rect>
                                <rect id="Rectangle-path" fill="#CCCCCC" transform="translate(76.000000, 17.000000) rotate(-59.000000) translate(-76.000000, -17.000000) " x="75" y="16" width="2" height="2"></rect>
                                <rect id="Rectangle-path" fill="#CCCCCC" transform="translate(80.000000, 21.000000) rotate(-29.000000) translate(-80.000000, -21.000000) " x="79" y="20" width="2" height="2"></rect>
                                <rect id="Rectangle-path" fill="#CCCCCC" transform="translate(80.000000, 30.000000) rotate(-58.000000) translate(-80.000000, -30.000000) " x="79" y="29" width="2" height="2"></rect>
                                <rect id="Rectangle-path" fill="#CCCCCC" transform="translate(64.000000, 20.000000) rotate(-61.000000) translate(-64.000000, -20.000000) " x="63" y="19" width="2" height="2"></rect>
                                <rect id="Rectangle-path" fill="#CCCCCC" transform="translate(63.000000, 30.000000) rotate(-32.000000) translate(-63.000000, -30.000000) " x="62" y="29" width="2" height="2"></rect>
                                <rect id="Rectangle-path" fill="#CCCCCC" transform="translate(67.000000, 17.000000) rotate(-31.000000) translate(-67.000000, -17.000000) " x="66" y="16" width="2" height="2"></rect>
                                <rect id="Rectangle-path" fill="#CCCCCC" x="70" y="34" width="2" height="2"></rect>
                                <rect id="Rectangle-path" fill="#CCCCCC" transform="translate(76.000000, 34.000000) rotate(-31.000000) translate(-76.000000, -34.000000) " x="75" y="33" width="2" height="2"></rect>
                                <rect id="Rectangle-path" fill="#CCCCCC" transform="translate(67.000000, 34.000000) rotate(-58.840695) translate(-67.000000, -34.000000) " x="66" y="33" width="2" height="2"></rect>
                                <rect id="Rectangle-path" fill="#CCCCCC" x="61" y="25" width="2" height="2"></rect>
                                <rect id="Rectangle-path" fill="#CCCCCC" transform="translate(81.000000, 26.000000) rotate(-180.000000) translate(-81.000000, -26.000000) " x="80" y="25" width="2" height="2"></rect>
                                <path d="M87.5,6.6833644 C91.2647239,6.6833644 94.3166356,9.73527611 94.3166356,13.5 C94.3166356,17.2647239 91.2647239,20.3166356 87.5,20.3166356 C83.7352761,20.3166356 80.6833644,17.2647239 80.6833644,13.5 C80.6833644,9.73527611 83.7352761,6.6833644 87.5,6.6833644 Z M87.5,5 C82.8055796,5 79,8.80557963 79,13.5 C79,18.1944204 82.8055796,22 87.5,22 C92.1944204,22 96,18.1944204 96,13.5 C95.9945434,8.8078417 92.1921583,5.00545664 87.5,5 Z" id="Shape" fill="#CCCCCC"></path>
                                <rect id="Rectangle-path" fill="#CCCCCC" x="86" y="3" width="2" height="2"></rect>
                                <rect id="Rectangle-path" fill="#CCCCCC" transform="translate(92.000000, 5.000000) rotate(-59.000000) translate(-92.000000, -5.000000) " x="91" y="4" width="2" height="2"></rect>
                                <rect id="Rectangle-path" fill="#CCCCCC" transform="translate(96.000000, 8.000000) rotate(-29.000000) translate(-96.000000, -8.000000) " x="95" y="7" width="2" height="2"></rect>
                                <rect id="Rectangle-path" fill="#CCCCCC" transform="translate(96.000000, 18.000000) rotate(-58.000000) translate(-96.000000, -18.000000) " x="95" y="17" width="2" height="2"></rect>
                                <rect id="Rectangle-path" fill="#CCCCCC" transform="translate(79.000000, 8.000000) rotate(-61.000000) translate(-79.000000, -8.000000) " x="78" y="7" width="2" height="2"></rect>
                                <rect id="Rectangle-path" fill="#CCCCCC" transform="translate(79.000000, 18.000000) rotate(-32.000000) translate(-79.000000, -18.000000) " x="78" y="17" width="2" height="2"></rect>
                                <rect id="Rectangle-path" fill="#CCCCCC" transform="translate(83.000000, 5.000000) rotate(-31.000000) translate(-83.000000, -5.000000) " x="82" y="4" width="2" height="2"></rect>
                                <rect id="Rectangle-path" fill="#CCCCCC" x="86" y="21" width="2" height="2"></rect>
                                <rect id="Rectangle-path" fill="#CCCCCC" transform="translate(92.000000, 21.000000) rotate(-31.000000) translate(-92.000000, -21.000000) " x="91" y="20" width="2" height="2"></rect>
                                <rect id="Rectangle-path" fill="#CCCCCC" transform="translate(83.000000, 21.000000) rotate(-58.840695) translate(-83.000000, -21.000000) " x="82" y="20" width="2" height="2"></rect>
                                <rect id="Rectangle-path" fill="#CCCCCC" x="77" y="12" width="2" height="2"></rect>
                                <rect id="Rectangle-path" fill="#CCCCCC" transform="translate(97.000000, 13.000000) rotate(-180.000000) translate(-97.000000, -13.000000) " x="96" y="12" width="2" height="2"></rect>
                                <path d="M55.5089121,5.6833644 C55.5888724,5.6833644 55.6691631,5.6833644 55.7497842,5.6833644 C59.4709809,5.81014274 62.4034833,8.89345198 62.3399216,12.6124062 C62.27636,16.3313604 59.2402022,19.3128693 55.5168421,19.3126747 C55.4368818,19.3126747 55.3565911,19.3126747 55.27597,19.3126747 C51.5547733,19.1858964 48.6222709,16.1025872 48.6858325,12.383633 C48.7493941,8.66467873 51.7855519,5.68316982 55.5089121,5.6833644 Z M55.5089121,4 C50.8662147,3.99996865 47.0805109,7.71770874 47.0012641,12.3549125 C46.9220174,16.9921162 50.5784848,20.8367743 55.2184779,20.9950489 C55.3176022,20.9950489 55.4167265,21 55.5158508,21 C60.1485061,20.9865629 63.9190987,17.2733056 63.9987186,12.6461219 C64.0783386,8.01893828 60.4377237,4.17842088 55.8082675,4.00594129 C55.7091432,4.00594129 55.6100189,4.00099021 55.5108946,4.00099021 L55.5089121,4 Z" id="Shape" fill="#CCCCCC"></path>
                                <rect id="Rectangle-path" fill="#CCCCCC" transform="translate(56.000000, 3.000000) rotate(-88.010000) translate(-56.000000, -3.000000) " x="55" y="2" width="2" height="2"></rect>
                                <rect id="Rectangle-path" fill="#CCCCCC" transform="translate(61.000000, 4.000000) rotate(-57.010000) translate(-61.000000, -4.000000) " x="60" y="3" width="2" height="2"></rect>
                                <rect id="Rectangle-path" fill="#CCCCCC" transform="translate(64.000000, 8.000000) rotate(-27.010000) translate(-64.000000, -8.000000) " x="63" y="7" width="2" height="2"></rect>
                                <rect id="Rectangle-path" fill="#CCCCCC" transform="translate(64.000000, 18.000000) rotate(-56.010000) translate(-64.000000, -18.000000) " x="63" y="17" width="2" height="2"></rect>
                                <rect id="Rectangle-path" fill="#CCCCCC" transform="translate(48.000000, 7.000000) rotate(-59.010000) translate(-48.000000, -7.000000) " x="47" y="6" width="2" height="2"></rect>
                                <rect id="Rectangle-path" fill="#CCCCCC" transform="translate(48.000000, 17.000000) rotate(-29.886527) translate(-48.000000, -17.000000) " x="47" y="16" width="2" height="2"></rect>
                                <rect id="Rectangle-path" fill="#CCCCCC" transform="translate(52.000000, 4.000000) rotate(-29.010000) translate(-52.000000, -4.000000) " x="51" y="3" width="2" height="2"></rect>
                                <rect id="Rectangle-path" fill="#CCCCCC" transform="translate(55.000000, 22.000000) rotate(-88.010000) translate(-55.000000, -22.000000) " x="54" y="21" width="2" height="2"></rect>
                                <rect id="Rectangle-path" fill="#CCCCCC" transform="translate(60.000000, 21.000000) rotate(-29.010000) translate(-60.000000, -21.000000) " x="59" y="20" width="2" height="2"></rect>
                                <rect id="Rectangle-path" fill="#CCCCCC" transform="translate(51.000000, 21.000000) rotate(-57.010000) translate(-51.000000, -21.000000) " x="50" y="20" width="2" height="2"></rect>
                                <rect id="Rectangle-path" fill="#CCCCCC" transform="translate(46.000000, 12.000000) rotate(1.990000) translate(-46.000000, -12.000000) " x="45" y="11" width="2" height="2"></rect>
                                <rect id="Rectangle-path" fill="#CCCCCC" transform="translate(65.000000, 13.000000) rotate(-178.010000) translate(-65.000000, -13.000000) " x="64" y="12" width="2" height="2"></rect>
                                <circle id="Oval" fill="url(#linearGradient-4)" cx="23.6724562" cy="38.7354605" r="6.67245621"></circle>
                                <circle id="Oval" fill="#E6E6E6" cx="23.5" cy="38.5" r="6.5"></circle>
                                <path d="M23.5767607,44.9999909 C24.7936319,45.0017575 25.9841936,44.6985736 27,44.1282416 C26.7701948,43.0608763 25.8967443,43 25.8967443,43 L21.0813241,43 C21.0813241,43 20.2574581,43.0576296 20,44.039768 C21.0471524,44.6665788 22.2966228,45.0020136 23.5767607,44.9999909 Z" id="Shape" fill="#CCCCCC"></path>
                                <circle id="Oval" fill="#CCCCCC" cx="23" cy="39" r="3"></circle>
                                <path d="M23,41 L25,41 L25,42.9101234 C25,43.5120403 24.5771086,43.9999904 24.0554455,43.9999904 L23.9485149,43.9999904 C23.6973179,44.0012057 23.4560481,43.8869175 23.2780523,43.6823959 C23.1000565,43.4778743 22.9999978,43.1999676 23,42.9101234 L23,41 Z" id="Shape" fill="#000000" opacity="0.1"></path>
                                <path d="M23.0641975,41 L24.9407407,41 C24.9734687,41 25,41.0306887 25,41.0685451 L25,42.9101234 C25,43.5120403 24.5781527,43.9999904 24.0577778,43.9999904 L23.9461728,43.9999904 C23.6955962,44.0012057 23.4549221,43.8869175 23.2773658,43.6823959 C23.0998095,43.4778743 22.9999978,43.1999676 23,42.9101234 L23,41.0685451 C23,41.0306887 23.0265313,41 23.0592593,41 L23.0641975,41 Z" id="Shape" fill="#CCCCCC"></path>
                                <path d="M23,42.2844698 C23.6445232,42.5694068 24.3540566,42.5718986 25,42.2914938 L25,42 L23,42 L23,42.2844698 Z" id="Shape" fill="#000000" opacity="0.1"></path>
                                <circle id="Oval" fill="#CCCCCC" cx="24" cy="40" r="3"></circle>
                                <path d="M22,36.6578227 C22,36.6578227 23.3084513,38.8929759 27,37.5944755 L26.1419991,36.4602052 L24.6179751,36 L22,36.6578227 Z" id="Shape" fill="#000000" opacity="0.1"></path>
                                <path d="M22,36.6578227 C22,36.6578227 23.3084513,38.8929759 27,37.5944755 L26.1419991,36.4602052 L24.6179751,36 L22,36.6578227 Z" id="Shape" fill="#CCCCCC"></path>
                                <path d="M21.055871,37.0035588 C21.1333109,36.7482232 21.2670107,36.5164451 21.4457456,36.3276836 C21.981236,35.7631173 22.8549309,35.6437862 23.3077491,35 C23.3573308,35.0921743 23.3680532,35.2024403 23.3372636,35.3035192 C23.3064741,35.404598 23.2370486,35.487048 23.1461625,35.5304718 C23.5764337,35.5304718 24.0771642,35.4873521 24.3204836,35.1083005 C24.4433305,35.4137991 24.3902966,35.7675061 24.1842623,36.0168211 C24.5666213,36.0348712 24.9743455,36.3116391 24.9987714,36.7187687 C25.0156816,36.9905227 24.855974,37.2472349 24.6464751,37.4026661 C24.429486,37.5465182 24.1882006,37.6436103 23.9362457,37.6884591 C23.2119245,37.8599348 20.5861425,38.5759213 21.055871,37.0035588 Z" id="Shape" fill="#CCCCCC"></path>
                                <ellipse id="Oval" fill="#CCCCCC" cx="20.25" cy="39.3607389" rx="1" ry="1"></ellipse>
                                <ellipse id="Oval" fill="#CCCCCC" cx="26.25" cy="39.3607389" rx="1" ry="1"></ellipse>
                                <circle id="Oval" fill="url(#linearGradient-5)" cx="24.7314602" cy="38.7004581" r="6.67245621"></circle>
                                <circle id="Oval" fill="#F5F5F5" cx="24.5" cy="38.5" r="6.5"></circle>
                                <path d="M24.5767607,43.9999909 C25.7936319,44.0017575 26.9841936,43.6985736 28,43.1282416 C27.7701948,42.0608763 26.8967443,42 26.8967443,42 L22.0813241,42 C22.0813241,42 21.2574581,42.0576296 21,43.039768 C22.0471524,43.6665788 23.2966228,44.0020136 24.5767607,43.9999909 Z" id="Shape" fill="#CCCCCC"></path>
                                <circle id="Oval" fill="#CCCCCC" cx="24" cy="38" r="3"></circle>
                                <path d="M24,41 L26,41 L26,42.9101295 C26,43.5120483 25.5771086,44 25.0554455,44 L24.9445545,44 C24.4228914,44 24,43.5120483 24,42.9101295 L24,41 Z" id="Shape" fill="#000000" opacity="0.1"></path>
                                <path d="M24.0603741,41.0000097 L25.9406156,41.0000097 C25.9734081,41.0000097 25.9999917,41.0306517 25.9999917,41.0684505 L25.9999917,42.9072279 C26.0010444,43.1966287 25.9020441,43.4745926 25.7248807,43.6796594 C25.5477173,43.8847261 25.3069852,44.0000025 25.0559125,44 L24.9440876,44 C24.4226871,44 24.0000084,43.512792 24.0000084,42.9117906 L24.0000084,41.0695912 C23.9997379,41.0510432 24.0060109,41.0331631 24.0173909,41.0200459 C24.0287708,41.0069286 24.0442827,40.9996979 24.0603741,41.0000097 Z" id="Shape" fill="#CCCCCC"></path>
                                <path d="M24,41.283964 C24.6445232,41.5695697 25.3540566,41.5720674 26,41.2910044 L26,41 L24,41 L24,41.283964 Z" id="Shape" fill="#000000" opacity="0.1"></path>
                                <circle id="Oval" fill="#CCCCCC" cx="25" cy="39" r="3"></circle>
                                <path d="M23,35.6578227 C23,35.6578227 24.3084513,37.8929759 28,36.5944755 L27.1419991,35.4602052 L25.6179751,35 L23,35.6578227 Z" id="Shape" fill="#000000" opacity="0.1"></path>
                                <path d="M23,35.6578227 C23,35.6578227 24.3084513,37.8929759 28,36.5944755 L27.1419991,35.4602052 L25.6179751,35 L23,35.6578227 Z" id="Shape" fill="#CCCCCC"></path>
                                <path d="M23.0568602,36.0035588 C23.1342807,35.7482232 23.267947,35.5164451 23.446637,35.3276836 C23.9819931,34.7631173 24.8554689,34.6437862 25.3081735,34 C25.3577428,34.0921743 25.3684625,34.2024403 25.3376807,34.3035192 C25.3068989,34.404598 25.2374908,34.487048 25.1466275,34.5304718 C25.5767908,34.5304718 26.0773957,34.4873521 26.320654,34.1083005 C26.4434701,34.4137991 26.3904495,34.7675061 26.1844669,35.0168211 C26.56673,35.0348712 26.974352,35.3116391 26.9987717,35.7187687 C27.0156777,35.9905227 26.8560101,36.2472349 26.6465638,36.4026661 C26.4296291,36.5465182 26.1884042,36.6436103 25.9365125,36.6884591 C25.2104945,36.8599348 22.5825535,37.5759213 23.0568602,36.0035588 Z" id="Shape" fill="#CCCCCC"></path>
                                <ellipse id="Oval" fill="#CCCCCC" cx="21.25" cy="38.3607389" rx="1" ry="1"></ellipse>
                                <ellipse id="Oval" fill="#CCCCCC" cx="27.25" cy="38.3607389" rx="1" ry="1"></ellipse>
                                <path d="M49.6906409,16.1036325 L49.6906409,16.4223557 L48.7977439,16.3426749 L48.7977439,18.334695 L46.4613301,21.7719256 L46.3174745,21.6872647 L46,22.0856687 L49.0189839,24 L49.0189839,23.2818768 L48.8493335,23.1822758 C49.0606524,22.3904478 49.9257704,19.233096 50.4198401,18.8157678 C50.4198401,18.8157678 51.3127371,18.1773254 51.7949014,17.2998406 C52.2770658,16.4223557 52.0349915,13.3914972 49.6906409,16.1036325 Z" id="Shape" fill="url(#linearGradient-6)"></path>
                                <path d="M43.9902398,22.9311732 C43.9902398,22.9311732 40.7820382,22.2494082 39.0215598,21.5310317 C38.2000323,21.1936213 37.3256747,21.0050218 36.438869,20.9739436 L34.5141447,20.9106156 L33.5552249,20.3317586 L33.8502772,19.5530226 C33.8797824,19.5401591 33.9092876,19.5263061 33.9387928,19.5094846 L33.966331,19.3422592 C34.1200797,19.3040531 34.2717454,19.2578138 34.4207115,19.2037293 C34.376283,19.586363 34.517566,19.9671313 34.8003454,20.2268716 C35.023693,20.4767854 35.3426099,20.6186696 35.6766506,20.6167344 C36.0074715,20.6178922 36.3235875,20.4793023 36.547978,20.2347316 C36.7723685,19.9901609 36.8844302,19.6620657 36.8568597,19.3303853 L36.7191686,17.5829295 L36.6493396,17.619541 L36.640488,17.50278 L36.6149168,17.516633 C37.7050331,15.9619704 37.7358777,13.8937877 36.6926139,12.3069192 L36.7673605,12.2376542 L36.7673605,10.3130781 C36.7417893,10.2883406 36.7152346,10.2655821 36.6886799,10.2428236 L36.6886799,10.2339181 C35.1012987,8.74966918 32.919879,8.8664301 31.342333,9.24441883 C30.1438986,9.52990403 29.2556509,10.5461833 29.127474,11.7785266 C27.0217844,12.3563941 27.7249923,13.4676019 27.691553,13.8970446 C27.5282907,15.9898356 28.1980594,17.2207727 28.925855,17.9332122 C29.2283692,18.2466348 29.5819616,18.5056639 29.9713235,18.6990847 L29.5100584,19.6262455 L29.3753179,19.6212981 L29.0065026,20.7275583 L28.9887994,20.7275583 L24.420407,23.8405231 L21.2643313,27.3433506 C20.9838985,27.6547778 20.9203137,28.106662 21.1038067,28.4841661 C21.2872996,28.8616702 21.6808533,29.0886381 22.0973622,29.0571634 L25.3262174,28.8117676 C25.3262174,28.8117676 27.6099219,33.3080525 26.8998294,37.8043373 C26.6618206,39.3153027 26.7611549,40.2394951 26.9981802,40.8025202 C26.932343,41.4113861 26.7661504,42.0049642 26.5064264,42.5588815 C25.6399563,44.3815392 25.6399563,46.2833568 26.7424682,48.5018143 L27.0571906,59.9918802 C27.0571906,59.9918802 27.4505937,65.3806935 27.0571906,66.4899222 C26.6637876,67.5991509 27.2145518,72.9088042 27.2145518,72.9088042 L27.1378383,72.9088042 L27.1378383,75.8416801 L33.0388834,76 C33.0388834,76 34.415794,75.3429725 34.6626544,74.8462438 L37.6289131,75.7635097 C37.6289131,75.7635097 40.8921911,75.1975161 38.983203,74.4158116 C37.5581005,73.832007 37.2040378,72.9998381 37.1145387,72.6139334 L41.7793149,59.1201313 C41.7793149,59.1201313 40.9128447,47.6300654 37.7626701,43.6671207 L37.4430302,41.3309128 L37.487288,41.3309128 L38.1570566,27.6876964 L38.2121331,27.6956124 L38.1963969,27.7005599 C40.4220745,28.0389686 42.2100912,27.8598693 43.3952177,27.6194209 C43.9095685,27.5271167 44.4138349,27.3849559 44.9009678,27.1949257 L44.9894834,27.1593038 L45.000302,27.1593038 L45.0081701,27.1593038 C45.3736308,27.0088559 45.7181181,26.8112819 46.0329849,26.5715412 L48,23.5446628 L45.0071866,21.4667143 L43.9902398,22.9311732 Z M31.6245996,69.3386907 L33.1214981,58.7995336 L33.1214981,53.4146783 L35.7995891,59.0409714 L32.917912,71.2335818 L32.7664519,71.1910334 L32.1016008,73.5925482 C31.8844109,73.4119073 31.7196311,73.1757082 31.6245996,72.9088042 L31.6245996,69.3386907 Z" id="Shape" fill="url(#linearGradient-7)"></path>
                                <path d="M25.6286224,25 C25.6286224,25 21.3309417,26.1226403 22.0898594,33 C22.0898594,33 23.6447848,32.389571 24.1878199,32.319868 C24.7032753,32.2533333 26.2610538,32.4392079 26.2610538,32.4392079 L27,29.330033 L25.6286224,25 Z" id="Shape" fill="#535461"></path>
                                <path d="M48.1252083,17.2851943 L48.1252083,19.1931611 L46,22.5221241 L48.1252083,24 C48.1252083,24 49.0697453,20.1082268 49.5784139,19.650195 C49.5784139,19.650195 50.3782837,19.0394859 50.814152,18.20026 C51.2500204,17.361034 51.0325529,14.461164 48.9241447,17.0556795 L48.9241447,17.361034 L48.1252083,17.2851943 Z" id="Shape" fill="#FDA57D"></path>
                                <path d="M30.0362516,22.1954801 L30.9373895,20.3654549 C30.991403,20.255963 31.0992925,20.1844831 31.2197461,20.1783856 L34.6480752,20.0004665 C34.761308,19.9944416 34.8698344,20.0470865 34.9363696,20.1403148 C35.0029049,20.233543 35.0183848,20.3546541 34.9774912,20.4620395 L34.0933748,22.7831216 C34.0395455,22.9241648 33.9003288,23.0120485 33.7519436,22.9986579 L30.3055917,22.6875536 C30.1948523,22.6778235 30.096111,22.6128608 30.0421132,22.5142089 C29.9881153,22.4155571 29.9859187,22.2961102 30.0362516,22.1954801 Z" id="Shape" fill="#FDA57D"></path>
                                <polygon id="Shape" fill="#EDEEF9" points="30.583724 21 30 23 36 22.7491208 33.6952445 21.1348183"></polygon>
                                <polygon id="Shape" fill="#EDEEF9" points="45 22.3446098 45.3160069 22 48 23.3793415 48 24"></polygon>
                                <path d="M27.9748418,39 C27.9748418,39 28.3995226,40.7123059 27.5861179,42.4423151 C26.7727131,44.1723244 26.7688259,45.977081 27.8086623,48.0827944 L28.1060361,58.9880488 C28.1060361,58.9880488 28.4772674,64.1023455 28.1060361,65.1547105 C27.7348048,66.2070754 28.254723,71.2466247 28.254723,71.2466247 L32.4160123,71.2466247 L32.4160123,67.8633207 L33.8280519,57.8609364 L33.8280519,52.7466396 L36.3547572,58.0861622 L33.4539051,70.4204691 L37.2439631,72 L42,58.1618931 C42,58.1618931 41.182708,47.2566388 38.209942,43.4966471 L37.6550386,39.3934074 L27.9748418,39 Z" id="Shape" fill="#4D8AF0"></path>
                                <path d="M28,74.8470825 L28,72 L32.1522998,72 C32.1522998,72 32.4437895,73.1539235 34.3375202,73.3843058 C36.2312509,73.6146881 33.463051,75 33.463051,75 L28,74.8470825 Z" id="Shape" fill="#333333"></path>
                                <path d="M33,72.4725624 L33.7197324,70 L37.7024412,71.0603175 C37.7024412,71.0603175 37.6901138,72.1369615 39.4481953,72.8208617 C41.2062768,73.5047619 38.2012281,74 38.2012281,74 L33,72.4725624 Z" id="Shape" fill="#333333"></path>
                                <path d="M37.7426866,40.4580348 L28,40 C28.1203768,40.6796997 28.145162,41.3778375 28.0733783,42.0668822 C28.5195186,43.2944156 29.4753938,42.95776 29.4753938,42.95776 L38,42.6508766 L37.7426866,40.4580348 Z" id="Shape" fill="#000000" opacity="0.1"></path>
                                <path d="M29.4539778,22 L25,24.9723539 L25.8827613,29.7281201 C25.8827613,29.7281201 28.1102524,34.0271345 27.4183041,38.326149 C26.7263558,42.6251635 28.9538468,41.9633194 28.9538468,41.9633194 L37.7443018,41.6987799 L38.3970832,28.6551003 C38.3970832,28.6551003 43.6986726,29.397198 46.0798184,27.580099 L48,24.6870079 L45.0815649,22.7054387 L44.0833115,24.1103712 C44.0833115,24.1103712 40.9579949,23.4524903 39.2386691,22.7688489 C38.4377701,22.4464916 37.5854094,22.266369 36.7209414,22.2367975 L29.4539778,22 Z" id="Shape" fill="#535461"></path>
                                <path d="M30.0421407,43 C30.0421407,43 29.4149292,45.6338583 33,50" id="Shape" fill="#000000" opacity="0.1"></path>
                                <path d="M39,27.8714259 C39,27.8714259 42.8743549,27 44.5697811,27 C46.2652072,27 45.9822843,27.4944968 45.9822843,27.4944968 C45.9822843,27.4944968 43.2786813,28.3074952 39,27.8714259 Z" id="Shape" fill="#000000" opacity="0.1"></path>
                                <path d="M34.8251816,20.0003598 L33.131116,20.122511 C33.0777414,20.126797 33.029008,20.1682284 33,20.2325185 C33.3724624,20.6461182 33.8389106,20.893278 34.3448096,20.893278 C34.5256165,20.8918813 34.7027362,20.8616057 34.8588309,20.8054148 L34.9887866,20.3225247 C35.0317184,20.1632281 34.9458548,19.9910734 34.8251816,20.0003598 Z" id="Shape" fill="#000000" opacity="0.1"></path>
                                <circle id="Oval" fill="#FDA57D" cx="33.5" cy="16.5" r="4.5"></circle>
                                <path d="M37.9074597,12.1778103 L37.9074597,14.0134196 L37.6801737,14.2169372 C37.483786,14.3926599 37.3927576,14.654303 37.4388053,14.9107031 C37.4848529,15.1671033 37.6615987,15.3827476 37.9074597,15.4824999 C37.9074597,15.4824999 37.5316802,18.4196725 37.0629659,19.5212358 L37.8609923,19.108273 L37.9963538,20.7739552 C38.0219924,21.0898416 37.9115771,21.4018469 37.6917637,21.6346484 C37.4719503,21.8674498 37.1627145,21.9998915 36.8387103,22 C36.4339696,21.9999418 36.0584366,21.7938611 35.8474763,21.456042 C35.636516,21.1182228 35.6205436,20.6973703 35.8053166,20.3451853 C35.9962368,19.98162 36.3346404,19.5992837 36.5003067,19.0608515 C37.1064028,17.0849533 35.8942106,17.4544463 35.6083353,17.8219633 C35.32246,18.1894804 35.6548027,19.1527308 35.6548027,19.1527308 C35.6548027,19.1527308 36.5467741,20.759136 31.8535703,20.3916189 C31.8535703,20.3916189 28.7564194,19.749452 29.0847215,15.6642826 C29.1180568,15.2552716 28.4281174,14.1952023 30.4928846,13.6449146 C30.6184214,12.4701675 31.4894849,11.5013666 32.6647288,11.2293791 C34.2143144,10.8747054 36.3538335,10.7610913 37.9074597,12.1778103 Z" id="Shape" fill="#000000" opacity="0.1"></path>
                                <path d="M36.90948,12.1784271 L36.90948,14.0139212 L36.6801737,14.2174259 C36.483786,14.3931376 36.3927576,14.6547643 36.4388053,14.9111483 C36.4848529,15.1675324 36.6615987,15.3831631 36.9074597,15.4829092 C36.9074597,15.4829092 36.5316802,18.4198974 36.0629659,19.5213914 L36.8609923,19.1084546 L36.9963538,20.7740322 C37.0219924,21.0898988 36.9115771,21.4018845 36.6917637,21.6346713 C36.4719503,21.8674581 36.1627145,21.9998915 35.8387103,22 C35.4339696,21.9999418 35.0584366,21.793874 34.8474763,21.4560761 C34.636516,21.1182782 34.6205436,20.6974521 34.8053166,20.3452892 C34.9962368,19.9817468 35.3346404,19.5994345 35.5003067,19.0610361 C36.1064028,17.085262 34.8942106,17.4547317 34.6083353,17.8222257 C34.32246,18.1897197 34.6548027,19.1529096 34.6548027,19.1529096 C34.6548027,19.1529096 35.5467741,20.7592139 30.8535703,20.3917199 C30.8535703,20.3917199 27.7564194,19.7495933 28.0847215,15.6646804 C28.1180568,15.2556952 27.4281174,14.1956924 29.4928846,13.6454393 C29.6184214,12.470766 30.4894849,11.5020259 31.6647288,11.2300555 C33.2133043,10.8744162 35.3528233,10.7608092 36.90948,12.1784271 Z" id="Shape" fill="#72351C"></path>
                                <ellipse id="Oval" fill="#FF1F00" cx="60.6636993" cy="72.4500495" rx="2.66369931" ry="1"></ellipse>
                                <ellipse id="Oval" fill="#FF1F00" cx="68.9772502" cy="67.6726014" rx="3.97725025" ry="1"></ellipse>
                                <path d="M70.6779668,66.8328459 C70.8595011,66.6846806 70.9919181,66.4850206 71.0577887,66.2601456 C71.1062556,66.0326481 71.0093219,65.7606402 70.7927047,65.6775541 C70.5493812,65.5845769 70.2892427,65.7527272 70.0924079,65.9238449 C69.8955731,66.0949626 69.6690647,66.287841 69.4109045,66.2522327 C69.6809793,66.0076831 69.802679,65.6392033 69.7313792,65.2819062 C69.7201719,65.2091189 69.6894028,65.140743 69.6423585,65.0840823 C69.5068491,64.9396708 69.2625365,65.0019854 69.1003209,65.1157341 C68.5859786,65.4777519 68.4425563,66.1760704 68.4395889,66.8051506 C68.3881547,66.5786421 68.431676,66.3422425 68.4306869,66.1127668 C68.4296977,65.883291 68.365405,65.6182069 68.1695593,65.4965452 C68.0484662,65.4298718 67.9121339,65.3957888 67.7739114,65.3976332 C67.5424574,65.3897203 67.2852863,65.41247 67.1270271,65.5816095 C66.9292032,65.792292 66.9816265,66.1444186 67.1527442,66.3729053 C67.3238619,66.6013919 67.5830113,66.7487707 67.8213891,66.9090081 C68.0132321,67.0230609 68.1768724,67.178925 68.3001231,67.3649923 C68.3143571,67.3909273 68.3262728,67.4180686 68.3357314,67.4461001 L69.7847917,67.4461001 C70.1087712,67.2828309 70.4092125,67.0765479 70.6779668,66.8328459 Z" id="Shape" fill="#FF1F00"></path>
                                <path d="M61.6789559,71.8328459 C61.8602178,71.6846256 61.992301,71.4849488 62.0577887,71.2601456 C62.1062556,71.0326481 62.010311,70.7655858 61.7927047,70.6775541 C61.5493812,70.5845769 61.2892427,70.7527272 61.0924079,70.9238449 C60.8955731,71.0949626 60.6690647,71.287841 60.4109045,71.2522327 C60.6809793,71.0076831 60.802679,70.6392033 60.7313792,70.2819062 C60.7207158,70.208959 60.6898832,70.140442 60.6423585,70.0840823 C60.5078382,69.9396708 60.2625365,70.0019854 60.10131,70.1157341 C59.5869678,70.4777519 59.4435454,71.1760704 59.4405781,71.8051506 C59.3881547,71.5786421 59.431676,71.3422425 59.4306869,71.1127668 C59.4296977,70.883291 59.365405,70.6182069 59.1695593,70.4965452 C59.0481143,70.4312915 58.9117279,70.3988997 58.7739114,70.4025788 C58.5424574,70.3946659 58.2852863,70.4174156 58.1270271,70.5865551 C57.9292032,70.7972376 57.9816265,71.1493642 58.1527442,71.3778509 C58.3238619,71.6063375 58.5830113,71.7537163 58.8223783,71.9139537 C59.0138621,72.0281251 59.1771553,72.1839806 59.3001231,72.3699379 C59.3143571,72.3958729 59.3262728,72.4230142 59.3357314,72.4510457 L60.7847917,72.4510457 C61.1092393,72.2860412 61.4099954,72.078107 61.6789559,71.8328459 Z" id="Shape" fill="#FF1F00"></path>
                            </g>
                        </g>
                    </g>
                </g>
            </g>
        </g>
    </g>
</svg>