<?xml version="1.0" encoding="UTF-8"?>
<svg width="1440px" height="799px" viewBox="0 0 1440 799" version="1.1" xmlns="http://www.w3.org/2000/svg" xmlns:xlink="http://www.w3.org/1999/xlink">
    <!-- Generator: Sketch 50.2 (55047) - http://www.bohemiancoding.com/sketch -->
    <title>Page 1</title>
    <desc>Created with Sketch.</desc>
    <defs>
        <polygon id="path-1" points="0 0.803115 1680.79731 0.803115 1680.79731 188.377427 0 188.377427"></polygon>
        <polygon id="path-3" points="0 0.00905124224 1680.79731 0.00905124224 1680.79731 434.999595 0 434.999595"></polygon>
        <polygon id="path-5" points="0 0.0159527273 1680.79731 0.0159527273 1680.79731 72.5016912 0 72.5016912"></polygon>
        <polygon id="path-7" points="0 0.318017094 1680.79731 0.318017094 1680.79731 156.274369 0 156.274369"></polygon>
    </defs>
    <g id="Page-1" stroke="none" stroke-width="1" fill="none" fill-rule="evenodd" opacity="0.287024457">
        <g id="login" transform="translate(0.000000, -1.000000)">
            <g id="Page-1" transform="translate(-120.000000, 1.000000)">
                <g id="Group-3" transform="translate(0.000000, 256.000000)">
                    <mask id="mask-2" fill="white">
                        <use xlink:href="#path-1"></use>
                    </mask>
                    <g id="Clip-2"></g>
                    <path d="M1116.18616,45.011565 L840.398113,68.363865 L564.611415,45.011565 C564.611415,45.011565 285.703246,68.432715 277.484724,68.432715 C269.26485,68.432715 -0.000540514469,0.803115 -0.000540514469,0.803115 L-0.000540514469,79.077465 C-0.000540514469,79.077465 224.688622,187.662015 230.926159,188.368065 C237.165047,189.076815 569.085524,149.336865 596.07206,140.224365 C622.593754,131.269815 806.64839,119.928465 839.598152,124.514415 L839.598152,124.768215 C839.844086,124.722315 840.129207,124.681815 840.398113,124.637265 C840.667019,124.681815 840.953492,124.722315 841.198074,124.768215 L841.198074,124.514415 C874.149188,119.928465 1058.20382,131.269815 1084.72687,140.224365 C1111.7107,149.336865 1443.63253,189.076815 1449.87007,188.368065 C1456.11031,187.662015 1680.79812,79.077465 1680.79812,79.077465 L1680.79812,0.803115 C1680.79812,0.803115 1411.53273,68.432715 1403.31285,68.432715 C1395.09433,68.432715 1116.18616,45.011565 1116.18616,45.011565" id="Fill-1" fill="#F5821F" mask="url(#mask-2)"></path>
                </g>
                <g id="Group-6" transform="translate(0.000000, 372.000000)">
                    <mask id="mask-4" fill="white">
                        <use xlink:href="#path-3"></use>
                    </mask>
                    <g id="Clip-5"></g>
                    <path d="M1063.17845,53.2735854 C1027.31261,49.4909767 874.276749,91.9993929 840.398654,101.584253 C806.519207,91.9993929 653.486047,49.4909767 617.618859,53.2735854 C577.222158,57.5344239 246.282715,125.471427 232.773908,124.527126 C219.2651,123.581474 0,0.00905124224 0,0.00905124224 L0,434.999595 L833.289537,434.999595 L847.50777,434.999595 L1680.79866,434.999595 L1680.79866,0.00905124224 C1680.79866,0.00905124224 1461.53356,123.581474 1448.0234,124.527126 C1434.51459,125.471427 1103.5765,57.5344239 1063.17845,53.2735854" id="Fill-4" fill="#F5821F" mask="url(#mask-4)"></path>
                </g>
                <g id="Group-9" transform="translate(0.000000, 173.000000)">
                    <mask id="mask-6" fill="white">
                        <use xlink:href="#path-5"></use>
                    </mask>
                    <g id="Clip-8"></g>
                    <path d="M1213.47079,42.9238436 C1157.64916,41.3402436 865.349747,13.1193345 841.19821,10.7809345 L841.19821,10.6262073 C841.19821,10.6262073 840.919845,10.6531164 840.398248,10.7042436 C839.878003,10.6531164 839.598287,10.6262073 839.598287,10.6262073 L839.598287,10.7809345 C815.4481,13.1193345 523.148685,41.3402436 467.327054,42.9238436 C409.089322,44.5774073 -0.000405385852,0.0159527273 -0.000405385852,0.0159527273 L-0.000405385852,10.4660982 C-0.000405385852,10.4660982 409.089322,74.1235891 467.327054,72.4700255 C523.86757,70.8662436 823.024762,41.9335891 840.398248,40.2504255 C857.773086,41.9335891 1156.92893,70.8662436 1213.47079,72.4700255 C1271.70853,74.1235891 1680.79825,10.4660982 1680.79825,10.4660982 L1680.79825,0.0159527273 C1680.79825,0.0159527273 1271.70853,44.5774073 1213.47079,42.9238436" id="Fill-7" fill="#F5821F" mask="url(#mask-6)"></path>
                </g>
                <g id="Group-12">
                    <mask id="mask-8" fill="white">
                        <use xlink:href="#path-7"></use>
                    </mask>
                    <g id="Clip-11"></g>
                    <path d="M841.198074,0.317476923 L839.598152,0.317476923 L-0.000540514469,0.317476923 L-0.000540514469,66.453306 C282.416918,96.2693915 493.155402,151.230434 547.214957,155.491032 C599.46514,159.607135 825.329921,146.205494 840.398113,145.302058 C855.469008,146.205494 1081.33244,159.607135 1133.58262,155.491032 C1187.64217,151.230434 1398.38066,96.2693915 1680.79812,66.453306 L1680.79812,0.317476923 L841.198074,0.317476923 Z" id="Fill-10" fill="#F5821F" mask="url(#mask-8)"></path>
                </g>
            </g>
        </g>
    </g>
</svg>