<?xml version="1.0" encoding="UTF-8"?>
<svg width="185px" height="42px" viewBox="0 0 185 42" version="1.1" xmlns="http://www.w3.org/2000/svg" xmlns:xlink="http://www.w3.org/1999/xlink">
    <!-- Generator: Sketch 50.2 (55047) - http://www.bohemiancoding.com/sketch -->
    <title>Logo</title>
    <desc>Created with Sketch.</desc>
    <defs>
        <polygon id="path-1" points="0 0.684261242 184.17015 0.684261242 184.17015 6.97226981 0 6.97226981"></polygon>
    </defs>
    <g id="Page-1" stroke="none" stroke-width="1" fill="none" fill-rule="evenodd">
        <g id="Logo">
            <path d="M178.273961,8.76743041 C178.318929,9.0687152 178.369893,9.40897216 178.414861,9.78520343 C178.68167,12.1010493 178.677173,15.776424 175.575889,20.1218201 C174.180385,21.6882013 172.249764,22.6355246 170.283169,22.7209636 C169.308865,22.7629336 168.288094,22.5830621 167.49666,21.9415203 C166.062184,20.7798501 165.332206,17.9933405 165.312719,16.0027623 C165.290236,14.037666 165.870321,12.5162527 166.733704,10.8044754 C167.135418,10.005546 167.703512,9.29655246 168.418501,8.84837259 C169.013576,8.47513919 169.673105,8.29976445 170.353619,8.23980728 C171.055118,8.17835118 174.997302,8.28327623 175.057259,13.9657173 C175.064754,14.4198929 175.040771,14.88606 174.889379,15.3072591 C174.743983,15.7149679 173.982527,18.0083298 171.315931,18.279636 C170.185739,18.4535118 167.811435,17.0085439 168.67182,14.2340257 C169.033062,13.4980514 169.514218,12.8115418 170.160257,12.3888437 C170.576959,12.1145396 171.245482,12.0291006 171.614218,12.3798501 C171.887024,12.6421627 171.922998,13.0993362 171.915503,13.5025482 C171.908009,13.931242 171.860043,14.4004069 171.590236,14.7031906 C171.320428,15.0044754 170.759829,14.9774946 170.64591,14.566788 C170.636916,14.5338116 170.629422,14.4903426 170.623426,14.4453747 C170.564968,14.3839186 170.496017,14.35394 170.44955,14.4708565 C170.445054,14.5727837 170.445054,14.6762099 170.454047,14.7811349 C170.515503,15.5141113 171.026638,16.2231049 171.678672,16.2650749 C172.021927,16.2890578 172.359186,16.1316702 172.639486,15.9098287 C173.79666,14.9954818 173.975032,12.890985 173.032206,11.7053319 C172.296231,10.7804925 169.544197,10.0535118 168.109722,12.3858458 C167.708009,13.039379 166.583812,15.1903426 167.836916,18.1971949 C169.061542,20.5894861 171.970964,22.2173233 175.334561,17.4222484 C176.394304,15.7854176 176.703084,13.632955 176.449764,11.6258887 C176.14848,9.24109208 175.061756,6.97021413 173.387452,5.47278373 C171.713148,3.97535332 169.452762,3.30083512 167.360257,3.78948608 C166.303512,4.03680942 158.975246,6.99719486 161.949122,20.3331692 C165.69045,30.3430193 172.693448,26.5612206 175.057259,25.2976231 C181.304797,21.3209636 182.491949,12.8954818 181.800942,7.97449679 C181.694518,7.22802998 178.176531,8.13038544 178.273961,8.76743041" id="Fill-2" fill="#F5B63F"></path>
            <path d="M184.121884,9.1685439 L184.115889,9.09059957 C184.093405,8.64391863 184.064925,8.19873662 184.03045,7.7535546 C184.073919,7.28588865 183.91803,6.87218415 183.603255,6.63085653 C183.283983,6.38653105 182.855289,6.37453961 182.510535,6.60237687 C182.101328,6.87218415 181.891478,7.40730193 181.946938,8.03535332 L181.955931,8.13428266 C182.510535,14.278394 180.770278,20.1017345 177.073919,24.5085867 C176.529807,25.1021627 175.79833,25.838137 174.984411,26.2713276 L174.602184,26.4781799 C174.082056,26.7584797 173.588908,27.0252891 173.083769,27.2351392 C172.370278,27.5304283 171.55636,27.6338544 170.594047,27.5529122 C170.018458,27.5034475 169.417388,27.4075161 168.74137,27.2531263 L168.673919,27.239636 C168.104325,27.1077302 167.561713,26.9338544 167.06257,26.7210064 C166.223169,26.3657602 165.421242,25.7766809 164.616317,24.9237901 C163.50561,23.7456317 162.619743,22.1747537 161.910749,20.1242184 C161.516531,18.9835332 161.261713,17.9387794 161.131306,16.9270021 C160.951435,15.5150107 160.897473,14.2094433 160.967923,12.9368522 C161.015889,12.0569807 161.102827,11.0257173 161.371135,10.0619058 C161.387623,10.0049465 161.411606,9.92850107 161.449079,9.81458244 C161.696403,8.99766595 162.027666,8.2032334 162.460857,7.38781585 C163.013961,6.33856531 163.737944,5.43620985 164.739229,4.54584582 C165.149936,4.181606 165.60561,3.89531049 166.089764,3.5940257 L166.425525,3.38267666 C166.948651,3.04991435 167.554218,2.83107066 168.333662,2.69766595 C168.972206,2.58674518 169.651221,2.6032334 170.235803,2.62721627 C170.591049,2.64220557 170.986767,2.71865096 171.445439,2.86404711 C172.092976,3.0679015 172.739015,3.45312634 173.480985,4.07817987 C174.53773,4.96704497 175.44758,6.28460385 176.26,8.10430407 C176.598758,8.8672591 176.790621,9.67068522 176.828094,10.4905996 L176.840086,10.7529122 C176.867066,11.3374946 176.892548,11.8905996 176.858073,12.433212 C176.826595,12.9563383 176.733662,13.515439 176.592762,14.0520557 C176.391906,14.8045182 176.177559,15.4415632 175.936231,15.9991649 C175.360642,17.3272163 174.699615,18.2640471 173.911178,18.8636188 C173.540942,19.1454176 173.100257,19.4616916 172.650578,19.6625482 C172.406253,19.7704711 172.118458,19.815439 171.814176,19.8604069 C171.709251,19.8768951 171.601328,19.8918844 171.497901,19.9113704 C171.144154,19.9713276 170.766424,19.9188651 170.271777,19.7359957 C169.838587,19.5741113 169.451863,19.3043041 169.1206,18.9280728 C168.512034,18.2355675 168.11182,17.5550535 167.858501,16.7846039 C167.507752,15.7098715 167.459786,14.6861028 167.711606,13.6503426 C168.075846,12.1559101 168.751863,11.1516274 169.783126,10.5805353 C170.280771,10.3047323 170.81439,10.0559101 171.339015,10.1128694 C172.302827,10.2192934 172.924882,10.7873876 173.301113,11.902591 C173.513961,12.5351392 173.563426,13.1796788 173.451006,13.8212206 C173.388051,14.1839615 173.244154,14.5377088 173.016317,14.9034475 C172.71803,15.3831049 172.358287,15.6289293 171.890621,15.6723983 C171.787195,15.6813919 171.476916,15.7113704 171.027238,15.0098715 C170.760428,14.5946681 170.639015,14.1749679 170.658501,13.7252891 C170.674989,13.2995931 170.832377,12.9593362 171.13666,12.68803 C171.183126,12.64606 171.231092,12.6115846 171.288051,12.5681156 L171.418458,12.4661884 C171.842655,12.1379229 171.72424,11.4049465 171.225096,11.2610493 C170.606039,11.0871734 170.15636,11.4858887 169.964497,11.6582655 C169.132591,12.4017345 168.757859,13.6293576 168.985696,14.8599786 C169.361927,16.8895289 170.468137,17.6285011 171.328522,17.8863169 C171.923597,18.0676874 172.577131,17.9507709 173.211178,17.5490578 C174.449293,16.7666167 175.218244,15.4565525 175.498544,13.6563383 C175.670921,12.5456317 175.527024,11.4529122 175.065353,10.4066595 C174.710107,9.59873662 174.191478,8.59445396 173.337088,7.9933833 C172.827452,7.63663812 172.242869,7.41179872 171.599829,7.3293576 C170.779914,7.22143469 169.98848,7.3443469 169.248009,7.69359743 C168.545011,8.02486081 167.862998,8.59295503 167.165996,9.43235546 C166.29212,10.481606 165.733019,11.7467024 165.43773,13.3250749 C165.24137,14.3698287 165.245867,15.4535546 165.440728,16.4983084 C165.761499,18.2370664 166.325096,19.5411349 167.167495,20.494454 C167.891478,21.3143683 168.639443,21.8584797 169.454861,22.1612634 C170.201328,22.4385653 170.980771,22.5030193 171.839657,22.3666167 C172.78848,22.2137259 173.702827,21.8000214 174.552719,21.1374946 C175.748865,20.2066595 176.631734,19.1499143 177.25379,17.9073019 C177.591049,17.2312848 177.914818,16.5642612 178.156146,15.8252891 C178.365996,15.1837473 178.530878,14.4552677 178.674775,13.5334261 C178.817173,12.623576 178.87863,11.8846039 178.871135,11.2115846 C178.860642,10.3946681 178.7797,9.55376874 178.626809,8.70837259 C178.484411,7.91543897 178.241585,7.17796574 178.02424,6.56190578 C177.877345,6.1437045 177.695974,5.7659743 177.5206,5.40173448 C177.445653,5.24734475 177.369208,5.0914561 177.298758,4.93556745 C177.250792,4.82764454 175.877773,2.82957173 175.558501,2.58974304 C174.723597,1.96019272 174.03409,1.45505353 173.386552,0.997880086 C172.777987,0.569186296 172.085482,0.28888651 171.268565,0.141991435 C170.664497,0.0325695931 170.006467,-0.00640256959 169.310964,0.0250749465 C168.627452,0.0565524625 168.023383,0.155481799 167.459786,0.330856531 C166.702827,0.564689507 166.056788,0.846488223 165.482698,1.19573876 C164.643298,1.7038758 163.950792,2.21950749 163.364711,2.77411135 C162.69469,3.40965739 161.999186,4.19359743 161.234732,5.16940043 C160.827024,5.69252677 160.4403,6.34456103 160.098544,7.09102784 C158.810964,9.72014989 158.692548,12.6475589 158.692548,12.6745396 C158.694047,12.9968094 158.691049,13.3205782 158.688051,13.642848 C158.680557,14.4147966 158.674561,15.212227 158.722527,16.0036617 C158.795974,17.2207923 158.984839,18.4514133 159.302612,19.7644754 C159.602398,21.0010921 160.035589,22.2257173 160.627666,23.5117987 C161.116317,24.5715418 161.747366,25.5488437 162.505824,26.4152248 C163.027452,27.0088009 163.610535,27.5903854 164.40197,28.299379 C164.838158,28.6905996 165.305824,28.978394 165.745011,29.2302141 C166.22167,29.5015203 166.813747,29.8417773 167.422313,30.0501285 C168.159786,30.3019486 168.901756,30.4833191 169.627238,30.591242 C169.985482,30.6452034 170.351221,30.6721842 170.722955,30.6721842 C170.998758,30.6721842 171.277559,30.6571949 171.55636,30.6257173 C172.568137,30.5177944 173.43152,30.2764668 174.194475,29.8882441 L174.564711,29.7023769 C175.188266,29.3905996 175.832805,29.0698287 176.472848,28.6231478 C184.328737,22.5270021 184.313747,12.1918844 184.121884,9.1685439" id="Fill-4" fill="#FEFEFE"></path>
            <path d="M135.320343,0.0490578158 C134.966595,0.0265738758 134.468951,0.353340471 134.137687,0.608158458 C133.914347,0.779036403 133.777944,1.03235546 133.762955,1.31415418 C133.659529,3.14884368 133.197859,10.7244325 132.364454,16.4728266 C131.983726,19.1529122 131.698929,21.2409208 131.514561,22.6933833 C131.345182,21.639636 131.022912,19.5711135 130.562741,16.5852463 C128.026552,0.162976445 127.214133,0.162976445 126.866381,0.162976445 C126.466167,0.162976445 126.082441,0.524218415 125.862099,0.780535332 C125.737687,0.924432548 125.683726,1.11179872 125.718201,1.29916488 C125.949036,2.59723769 126.9803,8.41907923 128.04454,14.999379 C129.068308,21.3368522 130.364882,27.8736831 130.733619,29.7098715 C130.841542,30.2389936 131.282227,30.6676874 131.820343,30.6721842 L131.833833,30.6721842 C131.998715,30.6721842 132.307495,30.6721842 132.931049,27.1841756 C133.119914,26.1094433 133.888865,20.8706852 134.097216,19.242848 C134.305567,17.6195075 136.107281,1.76083512 136.182227,1.13428266 C136.245182,0.602162741 135.873448,0.0895289079 135.341328,0.0505567452 C135.333833,0.0490578158 135.327837,0.0490578158 135.320343,0.0490578158" id="Fill-6" fill="#FEFEFE"></path>
            <path d="M156.293662,0.0490578158 C155.939914,0.0265738758 155.44227,0.353340471 155.109507,0.608158458 C154.887666,0.779036403 154.751263,1.03235546 154.734775,1.31415418 C154.632848,3.14884368 154.171178,10.7244325 153.337773,16.4728266 C152.957045,19.1529122 152.672248,21.2409208 152.486381,22.6933833 C152.318501,21.639636 151.996231,19.5711135 151.534561,16.5852463 C148.999872,0.162976445 148.187452,0.162976445 147.8397,0.162976445 C147.439486,0.162976445 147.05576,0.524218415 146.833919,0.780535332 C146.711006,0.924432548 146.657045,1.11179872 146.690021,1.29916488 C146.922355,2.59723769 147.953619,8.41907923 149.017859,14.999379 C150.041627,21.3368522 151.338201,27.8736831 151.706938,29.7098715 C151.814861,30.2389936 152.255546,30.6676874 152.793662,30.6721842 L152.805653,30.6721842 C152.972034,30.6721842 153.280814,30.6721842 153.902869,27.1841756 C154.093233,26.1094433 154.860685,20.8706852 155.070535,19.242848 C155.278887,17.6195075 157.0806,1.76083512 157.155546,1.13428266 C157.218501,0.602162741 156.846767,0.0895289079 156.314647,0.0505567452 C156.307152,0.0490578158 156.301156,0.0490578158 156.293662,0.0490578158" id="Fill-8" fill="#FEFEFE"></path>
            <path d="M143.368244,28.0076874 C143.134411,28.0076874 142.89758,28.0226767 142.663747,28.0496574 C142.663747,28.0496574 142.227559,5.77406852 142.227559,3.17792291 C142.227559,2.89162741 142.277024,2.69526767 142.374454,2.60982869 C142.474882,2.518394 142.644261,2.47342612 142.8706,2.47342612 L143.575096,2.49291221 L143.578094,2.49291221 C143.888373,2.49291221 144.146188,2.37 144.344047,2.12567452 C144.537409,1.88884368 144.636338,1.6085439 144.636338,1.28777302 C144.636338,0.961006424 144.504433,0.67620985 144.245118,0.436381156 C143.984304,0.198051392 143.578094,0.082633833 143.001006,0.082633833 C142.455396,0.082633833 141.607002,0.183062099 140.484304,0.377922912 C139.872741,0.485845824 139.351113,0.665717345 138.937409,0.913040685 C138.496724,1.17685225 138.273383,1.4961242 138.273383,1.86635974 C138.273383,2.5693576 138.639122,2.94259101 139.330128,2.94259101 C139.578951,2.94259101 139.859251,2.8961242 140.166531,2.80468951 C140.221991,3.39376874 140.373383,25.4640043 140.373383,27.5190364 C140.373383,28.3419486 140.021135,28.3419486 139.911713,28.3419486 L139.06182,28.2834904 C137.963105,28.2834904 137.730771,28.8680728 137.730771,29.3597216 C137.730771,30.242591 138.902934,30.6712848 141.317709,30.6712848 L143.609572,30.5903426 C143.912355,30.5783512 144.206146,30.4809208 144.456467,30.3100428 C144.456467,30.3100428 145.09651,29.9143255 145.148972,29.5365953 C145.244904,28.8590792 144.840193,28.0076874 143.368244,28.0076874" id="Fill-10" fill="#FEFEFE"></path>
            <path d="M104.836767,28.0076874 C104.602934,28.0076874 104.366103,28.0226767 104.13227,28.0496574 C104.13227,28.0496574 103.696081,5.77406852 103.696081,3.17792291 C103.696081,2.89162741 103.745546,2.69526767 103.842976,2.60982869 C103.943405,2.518394 104.112784,2.47342612 104.339122,2.47342612 L105.043619,2.49291221 L105.046617,2.49291221 C105.356895,2.49291221 105.614711,2.37 105.81257,2.12567452 C106.005931,1.88884368 106.104861,1.6085439 106.104861,1.28777302 C106.104861,0.961006424 105.972955,0.67620985 105.71364,0.436381156 C105.452827,0.198051392 105.046617,0.082633833 104.469529,0.082633833 C103.92242,0.082633833 103.075525,0.183062099 101.952827,0.377922912 C101.339764,0.485845824 100.819636,0.665717345 100.405931,0.913040685 C99.9652463,1.17685225 99.7419058,1.4961242 99.7419058,1.86635974 C99.7419058,2.5693576 100.107645,2.94259101 100.798651,2.94259101 C101.047473,2.94259101 101.327773,2.8961242 101.635054,2.80468951 C101.690514,3.39376874 101.841906,25.4640043 101.841906,27.5190364 C101.841906,28.3419486 101.489657,28.3419486 101.380236,28.3419486 L100.530343,28.2834904 C99.4316274,28.2834904 99.1992934,28.8680728 99.1992934,29.3597216 C99.1992934,30.242591 100.371456,30.6712848 102.786231,30.6712848 L105.078094,30.5903426 C105.380878,30.5783512 105.674668,30.4809208 105.924989,30.3100428 C105.924989,30.3100428 106.563533,29.9143255 106.617495,29.5365953 C106.713426,28.8590792 106.308715,28.0076874 104.836767,28.0076874" id="Fill-12" fill="#FEFEFE"></path>
            <path d="M5.54573876,28.3677302 L3.25987152,28.351242 L3.25987152,27.4743683 C3.25987152,22.9685867 3.20740899,18.996424 3.10698073,16.7435332 L2.66779443,1.27158458 C2.66779443,0.920835118 2.53588865,0.62254818 2.27657388,0.384218415 C2.02025696,0.150385439 1.73246253,0.0304710921 1.41768737,0.0304710921 C1.05344754,0.0304710921 0.75366167,0.142890792 0.52732334,0.364732334 C0.37143469,0.519122056 0.30248394,0.737965739 0.30248394,0.958308351 C0.30248394,3.91119914 0.434389722,8.39299786 0.693704497,14.2792934 C0.953019272,20.1760814 1.14638116,29.3660171 1.14638116,29.3660171 C1.14638116,29.4919272 1.1433833,29.6912848 1.13888651,29.899636 C1.12689507,30.3388223 1.48963597,30.6985653 1.92882227,30.6820771 C2.08920771,30.6760814 2.24809422,30.6715846 2.37250535,30.6715846 L6.15880086,30.6715846 C6.39563169,30.6715846 6.62496788,30.5456745 6.83631692,30.2983512 C7.04466809,30.0555246 7.07314775,29.9236188 7.07314775,29.5533833 C7.07314775,29.3885011 7.0191863,29.2221199 6.91126338,29.0542398 C6.62047109,28.6030621 6.08385439,28.3707281 5.54573876,28.3677302" id="Fill-14" fill="#FEFEFE"></path>
            <path d="M24.231242,3.85648822 C24.231242,3.25391863 24.3091863,2.53443255 24.6809208,2.53443255 C25.3944111,2.53443255 26.0374518,2.89717345 26.5920557,3.6151606 C27.1526552,4.3406424 27.4389507,5.09010707 27.4389507,5.84107066 L27.4389507,7.24706638 C27.3550107,7.44792291 27.1901285,7.91408994 26.9368094,8.67104925 C26.6774946,9.43850107 26.3432334,10.2479229 25.9445182,11.0708351 C25.503833,11.9552034 24.9792077,12.4993148 24.3871306,12.6926767 C24.3856317,11.7633405 24.358651,10.3468522 24.3091863,8.37426124 C24.2582227,6.33122056 24.231242,4.81280514 24.231242,3.85648822 Z M25.6582227,15.2933191 C25.9100428,15.3832548 26.2443041,15.6410707 26.649015,16.0592719 C26.9922698,16.4130193 27.2965525,16.8477088 27.5588651,17.352848 C27.8196788,17.8564882 28.0640043,18.6164454 28.281349,19.6132334 C28.5016916,20.6115203 28.6111135,21.7836831 28.6111135,23.099743 C28.6111135,24.3963169 28.2378801,25.5594861 27.5004069,26.5517773 C26.7914133,27.5035974 25.8051178,28.0986724 24.5640043,28.3205139 C24.5625054,23.3005996 24.4980514,18.9177302 24.3721413,15.2933191 L25.6582227,15.2933191 Z M26.4661456,13.4106638 C27.3100428,12.7616274 28.0460171,11.8008137 28.6590792,10.5507066 C29.3021199,9.23614561 29.6288865,7.94706638 29.6288865,6.72244111 C29.6288865,4.77083512 29.0787794,3.15199143 27.9965525,1.90937901 C26.9083298,0.662269807 25.3794218,0.0297216274 23.4488009,0.0297216274 C23.0800642,0.0297216274 22.7712848,0.139143469 22.5284582,0.353490364 C22.0547966,0.770192719 21.8254604,1.69653105 21.8254604,3.18047109 L22.0982655,19.6941756 L21.9019058,29.5571306 C21.9019058,30.2976017 22.5749251,30.672334 23.8969807,30.672334 L24.0543683,30.672334 C25.0196788,30.672334 25.9205353,30.4564882 26.7299572,30.0322912 C27.5363812,29.6080942 28.197409,29.0774732 28.6950535,28.4554176 C29.1867024,27.8393576 29.6843469,27.0014561 30.1759957,25.9671949 C30.6691435,24.9269379 30.9194647,23.8956745 30.9194647,22.9033833 C30.9194647,21.0462099 30.5657173,19.2429979 29.8642184,17.5462099 C29.1807066,15.8898929 28.0385225,14.5003854 26.4661456,13.4106638 Z" id="Fill-16" fill="#FEFEFE"></path>
            <path d="M62.7217987,21.691349 C61.9663383,21.713833 59.4346467,21.6089079 58.3689079,21.3840685 C58.2744754,21.3630835 58.2160171,21.2776445 58.2280086,21.1817131 C58.4813276,19.2600857 61.2843255,7.05880086 61.5841113,6.35130621 C61.5841113,6.43674518 61.5826124,6.53867238 61.5826124,6.65708779 C61.5826124,7.0917773 62.7427837,19.7232548 62.8986724,21.4919914 C62.907666,21.5984154 62.8282227,21.6883512 62.7217987,21.691349 M63.3993148,1.43781585 C63.330364,0.68235546 62.7128051,0.0722912206 61.9543469,0.0692933619 L61.9378587,0.0692933619 C61.3113062,0.0692933619 60.6937473,1.01062099 60.0537045,2.94723769 C59.4376445,4.80890792 58.8575589,7.13524625 58.3269379,9.86329764 C57.7963169,12.5988437 54.4986724,27.4307495 54.1404283,28.7842827 C53.9695503,29.4318201 54.6215846,30.1003426 55.1357173,30.5110493 C55.4070236,30.7253961 55.8102355,30.5964882 55.9106638,30.2652248 C56.2494218,29.1545182 57.4905353,24.4089079 57.8427837,23.4780728 C57.8742612,23.4001285 57.9507066,23.3536617 58.0346467,23.3641542 C58.9654818,23.4645824 62.1087366,24.004197 62.8372163,24.2620128 C62.9151606,24.2874946 62.9616274,24.3609422 62.9616274,24.4433833 L62.9616274,29.5097645 C62.9616274,30.0388865 63.1969593,30.6714347 64.3181585,30.6714347 C65.2729764,30.6714347 65.7766167,30.1602998 65.7766167,29.1949893 C65.7766167,27.9223983 63.8414989,6.35130621 63.3993148,1.43781585" id="Fill-18" fill="#FEFEFE"></path>
            <path d="M17.2035118,21.691349 C16.4480514,21.713833 13.9148608,21.6089079 12.8491221,21.3840685 C12.7561884,21.3630835 12.6962313,21.2776445 12.7097216,21.1817131 C12.9630407,19.2600857 15.7645396,7.05880086 16.0658244,6.35130621 C16.0643255,6.43674518 16.0643255,6.53867238 16.0643255,6.65708779 C16.0643255,7.0917773 17.2244968,19.7232548 17.3788865,21.4919914 C17.389379,21.5984154 17.3099358,21.6883512 17.2035118,21.691349 M17.8795289,1.43781585 C17.8120771,0.68235546 17.1945182,0.0722912206 16.43606,0.0692933619 L16.4195717,0.0692933619 C15.7915203,0.0692933619 15.1754604,1.01062099 14.5354176,2.94723769 C13.9193576,4.80890792 13.337773,7.13524625 12.808651,9.86329764 C12.27803,12.5988437 8.98038544,27.4307495 8.6206424,28.7842827 C8.45126338,29.4318201 9.10179872,30.1003426 9.61743041,30.5110493 C9.88873662,30.7253961 10.2919486,30.5964882 10.3923769,30.2652248 C10.7311349,29.1545182 11.9707495,24.4089079 12.3244968,23.4780728 C12.3544754,23.4001285 12.4309208,23.3536617 12.5163597,23.3641542 C13.4456959,23.4645824 16.5889507,24.004197 17.3189293,24.2620128 C17.3953747,24.2874946 17.4418415,24.3609422 17.4418415,24.4433833 L17.4418415,29.5097645 C17.4418415,30.0388865 17.6771734,30.6714347 18.7998715,30.6714347 C19.7531906,30.6714347 20.2568308,30.1602998 20.2568308,29.1949893 C20.2568308,27.9223983 18.3217131,6.35130621 17.8795289,1.43781585" id="Fill-20" fill="#FEFEFE"></path>
            <path d="M75.6646039,0.394561028 C75.3798073,0.165224839 75.0575375,0.0498072805 74.7082869,0.0498072805 C73.624561,0.0498072805 72.26803,0.139743041 70.6791649,0.32111349 C69.7693148,0.426038544 68.9778801,0.596916488 68.3258458,0.832248394 C67.6348394,1.07207709 67.2975803,1.37186296 67.2975803,1.74659529 C67.2975803,2.10184154 67.4474732,2.39413276 67.7412634,2.6159743 C68.024561,2.83182013 68.3513276,2.94124197 68.7230621,2.94124197 L68.724561,2.94124197 L70.7915846,2.73588865 C71.0089293,3.32197002 71.2937259,28.52197 71.2937259,28.52197 C71.2937259,29.0420985 71.4016488,29.5247537 71.6174946,29.9519486 C71.843833,30.4061242 72.2050749,30.6384582 72.6907281,30.6384582 C73.5271306,30.6384582 73.9513276,29.9459529 73.9513276,28.5744325 C73.9513276,28.5744325 73.2633191,3.87807281 73.0924411,2.38513919 C73.1673876,2.3806424 73.2588223,2.37764454 73.3637473,2.37764454 L74.7862313,2.45558887 C75.1474732,2.45558887 75.4592505,2.35366167 75.7125696,2.14980728 C75.9733833,1.93845824 76.1052891,1.65066381 76.1052891,1.2924197 C76.1052891,0.93117773 75.9568951,0.629892934 75.6646039,0.394561028" id="Fill-22" fill="#FEFEFE"></path>
            <path d="M83.3759957,28.3443469 C82.8438758,28.3443469 82.3462313,27.9246467 81.9025482,27.0987366 C81.4408779,26.2443469 81.0691435,25.1861028 80.7948394,23.9554818 C80.5205353,22.7233619 80.2492291,21.1120128 79.9914133,19.1664026 C79.7350964,17.2252891 79.6046895,15.3920985 79.6046895,13.7147966 L79.6046895,13.5514133 C79.6166809,12.9098715 79.636167,12.0165096 79.6601499,10.8728266 C79.6856317,10.1863169 79.7171092,9.55226981 79.7530835,8.99167024 C79.8010493,8.41158458 79.8595075,7.76704497 79.9269593,7.05955032 C79.9944111,6.36104925 80.0933405,5.73449679 80.2222484,5.19788009 C80.3481585,4.66126338 80.4980514,4.15012848 80.6614347,3.68246253 C80.8218201,3.22528908 81.0196788,2.8685439 81.249015,2.62122056 C81.4693576,2.38438972 81.7421627,2.26897216 82.0824197,2.26897216 C82.4211777,2.26897216 82.7719272,2.43685225 83.1241756,2.7666167 C83.4854176,3.1038758 83.794197,3.5940257 84.0385225,4.22207709 C84.2903426,4.8666167 84.5136831,5.56211991 84.7010493,6.29059957 C84.8899143,7.01907923 85.0443041,7.86747323 85.1597216,8.81029979 C85.278137,9.76062099 85.3740685,10.6344968 85.4460171,11.4049465 C85.5209636,12.1828908 85.5734261,13.026788 85.6034047,13.9141542 C85.6348822,14.8285011 85.6528694,15.4970236 85.6573662,15.954197 C85.6648608,16.420364 85.6648608,17.1698287 85.6573662,18.181606 C85.6528694,19.1903854 85.5254604,20.9681156 85.2811349,23.4683298 C85.1342398,24.8593362 84.8869165,26.0449893 84.5466595,26.9938116 C84.2198929,27.8886724 83.8271734,28.3443469 83.3759957,28.3443469 M87.3316702,8.98417559 C87.231242,8.31865096 87.0993362,7.44627409 86.932955,6.36554604 C86.7665739,5.28182013 86.5327409,4.42293362 86.2404497,3.81137045 C85.9496574,3.205803 85.6064026,2.57475375 85.2181799,1.93321199 C84.8209636,1.27668094 84.324818,0.794025696 83.7402355,0.495738758 C83.158651,0.200449679 82.4526552,0.0490578158 81.6387366,0.0490578158 C80.8068308,0.0490578158 80.0633619,0.422291221 79.4278158,1.15976445 C79.1520128,1.48653105 78.8971949,1.91222698 78.6693576,2.42785867 C78.4595075,2.92700214 78.2886296,3.4411349 78.1657173,3.95376874 C78.0413062,4.46490364 77.9378801,5.06747323 77.8584368,5.74049251 C77.7789936,6.40601713 77.7235332,7.04006424 77.6905567,7.62614561 C77.6605782,8.20773019 77.6395931,8.86875803 77.6261028,9.59124197 L77.6261028,11.4619058 C77.6395931,11.9805353 77.6515846,12.5636188 77.6620771,13.2096574 C77.6755675,13.8646895 77.6785653,14.6471306 77.6725696,15.5359957 C77.6650749,16.4383512 77.7370236,17.7259315 77.8854176,19.3672591 C77.982848,20.43 78.110257,21.4627623 78.2661456,22.4355675 C78.4190364,23.4023769 78.6408779,24.4081585 78.9241756,25.4244325 C79.2089722,26.4437045 79.5402355,27.3340685 79.91197,28.0700428 C80.2882013,28.8150107 80.7708565,29.4340685 81.3464454,29.9092291 C81.9295289,30.3918844 82.5890578,30.6377088 83.3025482,30.6377088 C84.0205353,30.6377088 84.6875589,30.3304283 85.2841328,29.7263597 C85.8717131,29.1327837 86.2869165,28.4312848 86.6046895,27.6713276 C87.6089722,25.2610493 87.6089722,15.8612634 87.6089722,15.8612634 C87.6089722,14.9169379 87.5864882,13.621863 87.5355246,11.8995931 C87.4980514,10.6449893 87.4305996,9.66319058 87.3316702,8.98417559" id="Fill-24" fill="#FEFEFE"></path>
            <path d="M38.2938972,28.3443469 C37.7617773,28.3443469 37.2641328,27.9246467 36.8204497,27.0987366 C36.3587794,26.2443469 35.987045,25.1861028 35.7127409,23.9554818 C35.4384368,22.7233619 35.1671306,21.1120128 34.9093148,19.1664026 C34.6529979,17.2252891 34.522591,15.3920985 34.522591,13.7147966 L34.522591,13.5514133 C34.5345824,12.9098715 34.5540685,12.0165096 34.5780514,10.8728266 C34.6035332,10.1863169 34.6350107,9.55226981 34.670985,8.99167024 C34.7189507,8.41158458 34.777409,7.76704497 34.8448608,7.05955032 C34.9123126,6.36104925 35.011242,5.73449679 35.1401499,5.19788009 C35.26606,4.66126338 35.4159529,4.15012848 35.5793362,3.68246253 C35.7397216,3.22528908 35.9375803,2.8685439 36.1669165,2.62122056 C36.3872591,2.38438972 36.6600642,2.26897216 37.0003212,2.26897216 C37.3390792,2.26897216 37.6898287,2.43685225 38.0420771,2.7666167 C38.4033191,3.1038758 38.7120985,3.5940257 38.956424,4.22207709 C39.2082441,4.8666167 39.4315846,5.56211991 39.6189507,6.29059957 C39.8078158,7.01907923 39.9622056,7.86747323 40.0776231,8.81029979 C40.1960385,9.76062099 40.29197,10.6344968 40.3639186,11.4049465 C40.4388651,12.1828908 40.4913276,13.026788 40.5213062,13.9141542 C40.5527837,14.8285011 40.5707709,15.4970236 40.5752677,15.954197 C40.5827623,16.420364 40.5827623,17.1698287 40.5752677,18.181606 C40.5707709,19.1903854 40.4433619,20.9681156 40.1990364,23.4683298 C40.0521413,24.8593362 39.804818,26.0449893 39.464561,26.9938116 C39.1377944,27.8886724 38.7450749,28.3443469 38.2938972,28.3443469 M42.2495717,8.98417559 C42.1491435,8.31865096 42.0172377,7.44627409 41.8508565,6.36554604 C41.6844754,5.28182013 41.4506424,4.42293362 41.1583512,3.81137045 C40.8675589,3.205803 40.5243041,2.57475375 40.1360814,1.93321199 C39.7388651,1.27668094 39.2427195,0.794025696 38.658137,0.495738758 C38.0765525,0.200449679 37.3705567,0.0490578158 36.5566381,0.0490578158 C35.7247323,0.0490578158 34.9812634,0.422291221 34.3457173,1.15976445 C34.0699143,1.48653105 33.8150964,1.91222698 33.5872591,2.42785867 C33.377409,2.92700214 33.206531,3.4411349 33.0836188,3.95376874 C32.9592077,4.46490364 32.8557816,5.06747323 32.7763383,5.74049251 C32.6968951,6.40601713 32.6414347,7.04006424 32.6084582,7.62614561 C32.5784797,8.20773019 32.5574946,8.86875803 32.5440043,9.59124197 L32.5440043,11.4619058 C32.5574946,11.9805353 32.5694861,12.5636188 32.5799786,13.2096574 C32.593469,13.8646895 32.5964668,14.6471306 32.5904711,15.5359957 C32.5844754,16.4383512 32.6549251,17.7259315 32.8033191,19.3672591 C32.9007495,20.43 33.0281585,21.4627623 33.1840471,22.4355675 C33.3369379,23.4023769 33.5602784,24.4081585 33.8420771,25.4244325 C34.1268737,26.4437045 34.458137,27.3340685 34.8298715,28.0700428 C35.2061028,28.8150107 35.688758,29.4340685 36.2643469,29.9092291 C36.8474304,30.3918844 37.5069593,30.6377088 38.2204497,30.6377088 C38.9384368,30.6377088 39.6054604,30.3304283 40.2020343,29.7263597 C40.7896146,29.1327837 41.204818,28.4312848 41.522591,27.6713276 C42.5268737,25.2610493 42.5268737,15.8612634 42.5268737,15.8612634 C42.5268737,14.9169379 42.5043897,13.621863 42.4534261,11.8995931 C42.4159529,10.6449893 42.3485011,9.66319058 42.2495717,8.98417559" id="Fill-26" fill="#FEFEFE"></path>
            <path d="M113.901991,28.3443469 C113.369872,28.3443469 112.872227,27.9246467 112.428544,27.0987366 C111.966874,26.2443469 111.595139,25.1861028 111.320835,23.9554818 C111.046531,22.7233619 110.775225,21.1120128 110.517409,19.1664026 C110.261092,17.2252891 110.130685,15.3920985 110.130685,13.7147966 L110.130685,13.5514133 C110.142677,12.9098715 110.162163,12.0165096 110.186146,10.8728266 C110.211627,10.1863169 110.243105,9.55226981 110.279079,8.99167024 C110.327045,8.41158458 110.385503,7.76704497 110.452955,7.05955032 C110.520407,6.36104925 110.619336,5.73449679 110.748244,5.19788009 C110.874154,4.66126338 111.024047,4.15012848 111.18743,3.68246253 C111.347816,3.22528908 111.545675,2.8685439 111.775011,2.62122056 C111.995353,2.38438972 112.268158,2.26897216 112.608415,2.26897216 C112.947173,2.26897216 113.297923,2.43685225 113.650171,2.7666167 C114.011413,3.1038758 114.320193,3.5940257 114.564518,4.22207709 C114.816338,4.8666167 115.039679,5.56211991 115.227045,6.29059957 C115.41591,7.01907923 115.5703,7.86747323 115.685717,8.81029979 C115.804133,9.76062099 115.900064,10.6344968 115.972013,11.4049465 C116.046959,12.1828908 116.099422,13.026788 116.1294,13.9141542 C116.160878,14.8285011 116.178865,15.4970236 116.183362,15.954197 C116.190857,16.420364 116.190857,17.1698287 116.183362,18.181606 C116.178865,19.1903854 116.051456,20.9681156 115.807131,23.4683298 C115.660236,24.8593362 115.412912,26.0449893 115.072655,26.9938116 C114.745889,27.8886724 114.353169,28.3443469 113.901991,28.3443469 M117.857666,8.98417559 C117.757238,8.31865096 117.625332,7.44627409 117.458951,6.36554604 C117.29257,5.28182013 117.058737,4.42293362 116.764946,3.81137045 C116.475653,3.205803 116.132398,2.57475375 115.744176,1.93321199 C115.346959,1.27668094 114.850814,0.794025696 114.266231,0.495738758 C113.684647,0.200449679 112.978651,0.0490578158 112.164732,0.0490578158 C111.332827,0.0490578158 110.589358,0.422291221 109.953812,1.15976445 C109.678009,1.48653105 109.423191,1.91222698 109.195353,2.42785867 C108.985503,2.92700214 108.814625,3.4411349 108.691713,3.95376874 C108.567302,4.46490364 108.463876,5.06747323 108.384433,5.74049251 C108.304989,6.40601713 108.249529,7.04006424 108.216552,7.62614561 C108.186574,8.20773019 108.16409,8.86875803 108.152099,9.59124197 L108.152099,11.4619058 C108.16409,11.9805353 108.17758,12.5636188 108.188073,13.2096574 C108.201563,13.8646895 108.204561,14.6471306 108.198565,15.5359957 C108.191071,16.4383512 108.263019,17.7259315 108.411413,19.3672591 C108.508844,20.43 108.636253,21.4627623 108.792141,22.4355675 C108.945032,23.4023769 109.166874,24.4081585 109.450171,25.4244325 C109.734968,26.4437045 110.066231,27.3340685 110.437966,28.0700428 C110.812698,28.8150107 111.296852,29.4340685 111.872441,29.9092291 C112.455525,30.3918844 113.113555,30.6377088 113.828544,30.6377088 C114.546531,30.6377088 115.213555,30.3304283 115.810128,29.7263597 C116.397709,29.1327837 116.812912,28.4312848 117.130685,27.6713276 C118.134968,25.2610493 118.134968,15.8612634 118.134968,15.8612634 C118.134968,14.9169379 118.112484,13.621863 118.06152,11.8995931 C118.024047,10.6449893 117.956595,9.66319058 117.857666,8.98417559" id="Fill-28" fill="#FEFEFE"></path>
            <path d="M93.1702998,6.87773019 C93.1702998,8.7633833 91.6488865,11.188651 91.2741542,11.5618844 C91.2591649,11.1826552 91.4525268,2.27901499 91.4525268,2.27901499 C91.4525268,2.27901499 93.1702998,3.24732334 93.1702998,6.87773019 M96.5129122,25.1466809 C95.8773662,23.25803 93.675439,13.9766595 93.6154818,13.2856531 C93.6619486,13.1642398 93.7938544,12.8314775 94.0111991,12.2888651 C94.2420343,11.7132762 94.3949251,11.337045 94.4728694,11.1526767 C95.1159101,9.49186296 95.4426767,7.99593148 95.4426767,6.70535332 C95.4426767,5.4117773 95.1788651,4.19764454 94.6617345,3.09743041 C94.3904283,2.52783726 94.0621627,2.00171306 93.6829336,1.53104925 C93.2902141,1.08586724 92.8015632,0.723126338 92.23197,0.454817987 C91.6608779,0.185010707 91.0882869,0.048608137 90.5276874,0.048608137 C89.9386081,0.048608137 89.5908565,0.120556745 89.4379657,0.274946467 C89.2850749,0.42633833 89.2101285,0.667665953 89.2101285,1.01092077 L89.0572377,29.2702355 C89.0572377,29.6059957 89.1606638,29.8937901 89.3645182,30.1276231 C89.5728694,30.364454 89.8846467,30.4843683 90.2878587,30.4843683 C90.7015632,30.4843683 90.9908565,30.3554604 91.1542398,30.1036403 C91.3071306,29.8668094 91.3850749,29.535546 91.3850749,29.1173448 L91.3850749,14.475803 C91.6668737,15.4965739 92.0760814,16.8546039 92.6007066,18.5319058 C93.8762955,22.6104925 95.3617345,30.638758 96.5953533,30.638758 C96.8501713,30.638758 97.0929979,30.5563169 97.3178373,30.3944325 C97.4092719,30.3299786 97.4812206,30.066167 97.5366809,29.7633833 C97.6565953,29.1143469 97.6056317,28.4458244 97.4002784,27.8192719 C97.1799358,27.1447537 96.8516702,26.1494647 96.5129122,25.1466809" id="Fill-30" fill="#FEFEFE"></path>
            <path d="M48.161349,6.87773019 C48.161349,8.7633833 46.6399358,11.188651 46.2652034,11.5618844 C46.2502141,11.1826552 46.443576,2.27901499 46.443576,2.27901499 C46.443576,2.27901499 48.161349,3.24732334 48.161349,6.87773019 M51.5039615,25.1466809 C50.8699143,23.25803 48.6664882,13.9766595 48.606531,13.2856531 C48.6529979,13.1642398 48.7849036,12.8314775 49.0037473,12.2888651 C49.2330835,11.7132762 49.3859743,11.337045 49.4639186,11.1526767 C50.1084582,9.49186296 50.4337259,7.99593148 50.4337259,6.70535332 C50.4337259,5.4117773 50.1714133,4.19764454 49.6527837,3.09743041 C49.3814775,2.52783726 49.0547109,2.00171306 48.6739829,1.53104925 C48.2812634,1.08586724 47.7926124,0.723126338 47.2230193,0.454817987 C46.6519272,0.185010707 46.0793362,0.048608137 45.5202355,0.048608137 C44.9296574,0.048608137 44.5819058,0.120556745 44.429015,0.274946467 C44.2761242,0.42633833 44.2026767,0.667665953 44.2026767,1.01092077 L44.0482869,29.2702355 C44.0482869,29.6059957 44.1517131,29.8937901 44.3570664,30.1276231 C44.5654176,30.364454 44.8756959,30.4843683 45.2804069,30.4843683 C45.6926124,30.4843683 45.9834047,30.3554604 46.1452891,30.1036403 C46.2981799,29.8668094 46.3776231,29.535546 46.3776231,29.1173448 L46.3776231,14.475803 C46.6594218,15.4965739 47.0671306,16.8546039 47.5932548,18.5319058 C48.8688437,22.6104925 50.3527837,30.638758 51.5879015,30.638758 C51.8412206,30.638758 52.0840471,30.5563169 52.3088865,30.3944325 C52.4003212,30.3299786 52.4737687,30.066167 52.5292291,29.7633833 C52.6476445,29.1143469 52.5966809,28.4458244 52.3913276,27.8192719 C52.170985,27.1447537 51.8427195,26.1494647 51.5039615,25.1466809" id="Fill-32" fill="#FEFEFE"></path>
            <g id="Group-36" transform="translate(0.000000, 35.060000)">
                <mask id="mask-2" fill="white">
                    <use xlink:href="#path-1"></use>
                </mask>
                <g id="Clip-35"></g>
                <path d="M184.17015,6.97226981 C155.27379,2.89518201 124.302912,0.684261242 92.0849251,0.684261242 C59.8684368,0.684261242 28.89606,2.89518201 -0.000299785867,6.97226981 C29.5750749,4.93522484 60.4035546,3.85449679 92.0849251,3.85449679 C123.767794,3.85449679 154.594775,4.93522484 184.17015,6.97226981" id="Fill-34" fill="#F5B63F" mask="url(#mask-2)"></path>
            </g>
        </g>
    </g>
</svg>